SplineFontDB: 3.2
FontName: IRMaryam
FullName: IRMaryam
FamilyName: IRMaryam
Weight: Book
Copyright: Copyright (c) 2022, Information Technology Organization of Iran (ito.gov.ir)
Version: 1.001
ItalicAngle: 0
UnderlinePosition: -100
UnderlineWidth: 60
Ascent: 1638
Descent: 410
InvalidEm: 0
sfntRevision: 0x00010042
LayerCount: 2
Layer: 0 1 "Back" 1
Layer: 1 1 "Fore" 0
XUID: [1021 420 722297922 10595586]
StyleMap: 0x0040
FSType: 0
OS2Version: 3
OS2_WeightWidthSlopeOnly: 0
OS2_UseTypoMetrics: 0
CreationTime: 1356338302
ModificationTime: 1662628474
PfmFamily: 17
TTFWeight: 400
TTFWidth: 5
LineGap: 100
VLineGap: 0
Panose: 2 0 5 3 0 0 0 2 0 2
OS2TypoAscent: 2263
OS2TypoAOffset: 0
OS2TypoDescent: -1334
OS2TypoDOffset: 0
OS2TypoLinegap: 1500
OS2WinAscent: 2263
OS2WinAOffset: 0
OS2WinDescent: 1334
OS2WinDOffset: 0
HheadAscent: 2263
HheadAOffset: 0
HheadDescent: -1334
HheadDOffset: 0
OS2SubXSize: 1434
OS2SubYSize: 1331
OS2SubXOff: 0
OS2SubYOff: 293
OS2SupXSize: 1434
OS2SupYSize: 1331
OS2SupXOff: 0
OS2SupYOff: 930
OS2StrikeYSize: 50
OS2StrikeYPos: 250
OS2CapHeight: 2247
OS2XHeight: 594
OS2FamilyClass: 2048
OS2Vendor: 'PARS'
OS2CodePages: 20000041.00000000
OS2UnicodeRanges: 00002003.00000000.00000000.00000000
Lookup: 1 1 0 "'isol' Isolated Forms in Arabic lookup 0" { "'isol' Isolated Forms in Arabic lookup 0 subtable"  } ['isol' ('arab' <'dflt' > ) ]
Lookup: 1 1 0 "'init' Initial Forms in Arabic lookup 1" { "'init' Initial Forms in Arabic lookup 1 subtable"  } ['init' ('arab' <'dflt' > ) ]
Lookup: 1 1 0 "'fina' Terminal Forms in Arabic lookup 2" { "'fina' Terminal Forms in Arabic lookup 2 subtable"  } ['fina' ('arab' <'dflt' > ) ]
Lookup: 1 1 0 "'medi' Medial Forms in Arabic lookup 3" { "'medi' Medial Forms in Arabic lookup 3 subtable"  } ['medi' ('arab' <'dflt' > ) ]
Lookup: 4 1 0 "'ccmp' Glyph Composition/Decomposition in Arabic lookup 4" { "'ccmp' Glyph Composition/Decomposition in Arabic lookup 4 subtable"  } ['ccmp' ('arab' <'dflt' > ) ]

StartChar: quotedbl
Encoding: 34 34 4
Width: 580
Flags: W
LayerCount: 2
Fore
SplineSet
90 1362 m 0,0,1
 90 1470 90 1470 174 1470 c 0,2,3
 207 1470 207 1470 229.5 1438.5 c 128,-1,4
 252 1407 252 1407 252 1372 c 0,5,6
 252 1202 252 1202 215 1030 c 1,7,-1
 135 1030 l 1,8,9
 90 1262 90 1262 90 1362 c 0,0,1
334 1354 m 0,10,11
 334 1395 334 1395 358.5 1432.5 c 128,-1,12
 383 1470 383 1470 422 1470 c 0,13,14
 494 1470 494 1470 494 1378 c 0,15,16
 494 1210 494 1210 453 1030 c 1,17,-1
 383 1030 l 1,18,19
 334 1241 334 1241 334 1354 c 0,10,11
EndSplineSet
EndChar

StartChar: quotesingle
Encoding: 39 39 5
Width: 365
Flags: W
LayerCount: 2
Fore
SplineSet
106 1354 m 0,0,1
 106 1462 106 1462 190 1462 c 0,2,3
 223 1462 223 1462 245.5 1430.5 c 128,-1,4
 268 1399 268 1399 268 1364 c 0,5,6
 268 1194 268 1194 231 1022 c 1,7,-1
 152 1022 l 1,8,9
 106 1253 106 1253 106 1354 c 0,0,1
EndSplineSet
EndChar

StartChar: asterisk
Encoding: 42 42 6
Width: 1126
Flags: W
LayerCount: 2
Fore
SplineSet
568 347 m 1,0,-1
 574 687 l 1,1,-1
 355 467 l 1,2,-1
 250 467 l 1,3,-1
 527 746 l 1,4,-1
 203 746 l 1,5,-1
 223 839 l 1,6,-1
 547 839 l 1,7,-1
 277 1104 l 1,8,-1
 370 1104 l 1,9,-1
 579 899 l 1,10,-1
 585 1199 l 1,11,-1
 704 1239 l 1,12,-1
 699 912 l 1,13,-1
 905 1104 l 1,14,-1
 1013 1104 l 1,15,-1
 730 839 l 1,16,-1
 1065 839 l 1,17,-1
 1043 746 l 1,18,-1
 729 746 l 1,19,-1
 1002 467 l 1,20,-1
 910 467 l 1,21,-1
 696 687 l 1,22,-1
 688 386 l 1,23,-1
 568 347 l 1,0,-1
EndSplineSet
EndChar

StartChar: plus
Encoding: 43 43 7
Width: 1253
GlyphClass: 2
Flags: W
LayerCount: 2
Fore
SplineSet
1054 522 m 1,0,-1
 671 522 l 1,1,-1
 671 143 l 1,2,-1
 533 143 l 1,3,-1
 533 522 l 1,4,-1
 153 522 l 1,5,-1
 153 666 l 1,6,-1
 533 666 l 1,7,-1
 533 1048 l 1,8,-1
 671 1048 l 1,9,-1
 671 666 l 1,10,-1
 1054 666 l 1,11,-1
 1054 522 l 1,0,-1
EndSplineSet
EndChar

StartChar: hyphen
Encoding: 45 45 8
Width: 1118
Flags: W
LayerCount: 2
Fore
SplineSet
156 715 m 1,0,-1
 946 715 l 1,1,-1
 946 580 l 1,2,-1
 156 580 l 1,3,-1
 156 715 l 1,0,-1
EndSplineSet
EndChar

StartChar: period
Encoding: 46 46 9
Width: 705
GlyphClass: 2
Flags: W
LayerCount: 2
Fore
SplineSet
209 147 m 0,0,1
 215 182 215 182 250 248 c 0,2,3
 293 324 293 324 307 322 c 0,4,5
 332 317 332 317 409.5 248.5 c 128,-1,6
 487 180 487 180 483 162 c 0,7,8
 477 125 477 125 453 70 c 0,9,10
 424 0 424 0 395 -2 c 1,11,12
 293 47 293 47 281 49 c 1,13,14
 199 100 199 100 209 147 c 0,0,1
EndSplineSet
EndChar

StartChar: slash
Encoding: 47 47 10
Width: 977
Flags: W
LayerCount: 2
Fore
SplineSet
733 1236 m 1,0,-1
 865 1236 l 1,1,-1
 265 -4 l 1,2,-1
 130 -4 l 1,3,-1
 733 1236 l 1,0,-1
EndSplineSet
EndChar

StartChar: less
Encoding: 60 60 11
Width: 992
Flags: W
LayerCount: 2
Fore
SplineSet
54 407 m 1,0,-1
 54 473 l 1,1,-1
 938 862 l 1,2,-1
 938 734 l 1,3,-1
 268 440 l 1,4,-1
 938 146 l 1,5,-1
 938 19 l 1,6,-1
 54 407 l 1,0,-1
EndSplineSet
EndChar

StartChar: equal
Encoding: 61 61 12
Width: 969
Flags: W
LayerCount: 2
Fore
SplineSet
840 448 m 1,0,-1
 118 448 l 1,1,-1
 118 560 l 1,2,-1
 840 560 l 1,3,-1
 840 448 l 1,0,-1
840 696 m 1,4,-1
 118 696 l 1,5,-1
 118 808 l 1,6,-1
 840 808 l 1,7,-1
 840 696 l 1,4,-1
EndSplineSet
EndChar

StartChar: greater
Encoding: 62 62 13
Width: 992
Flags: W
LayerCount: 2
Fore
SplineSet
54 19 m 1,0,-1
 54 146 l 1,1,-1
 724 440 l 1,2,-1
 54 734 l 1,3,-1
 54 862 l 1,4,-1
 938 473 l 1,5,-1
 938 407 l 1,6,-1
 54 19 l 1,0,-1
EndSplineSet
EndChar

StartChar: bracketleft
Encoding: 91 91 14
Width: 646
GlyphClass: 2
Flags: W
LayerCount: 2
Fore
SplineSet
562 -232 m 1,0,-1
 190 -232 l 1,1,-1
 190 1687 l 1,2,-1
 562 1687 l 1,3,-1
 562 1590 l 1,4,-1
 329 1590 l 1,5,-1
 329 -136 l 1,6,-1
 562 -136 l 1,7,-1
 562 -232 l 1,0,-1
EndSplineSet
EndChar

StartChar: bracketright
Encoding: 93 93 15
Width: 646
GlyphClass: 2
Flags: W
LayerCount: 2
Fore
SplineSet
211 -136 m 1,0,-1
 444 -136 l 1,1,-1
 444 1590 l 1,2,-1
 211 1590 l 1,3,-1
 211 1687 l 1,4,-1
 583 1687 l 1,5,-1
 583 -232 l 1,6,-1
 211 -232 l 1,7,-1
 211 -136 l 1,0,-1
EndSplineSet
EndChar

StartChar: grave
Encoding: 96 96 16
Width: 557
Flags: W
LayerCount: 2
Fore
SplineSet
338 847 m 1,0,-1
 80 1009 l 2,1,2
 58 1025 58 1025 45 1043 c 128,-1,3
 32 1061 32 1061 32 1081 c 0,4,5
 32 1105 32 1105 47 1119.5 c 128,-1,6
 62 1134 62 1134 89 1134 c 0,7,8
 107 1134 107 1134 121.5 1125 c 128,-1,9
 136 1116 136 1116 159 1094 c 2,10,-1
 405 847 l 1,11,-1
 338 847 l 1,0,-1
EndSplineSet
EndChar

StartChar: braceleft
Encoding: 123 123 17
Width: 830
GlyphClass: 2
Flags: W
LayerCount: 2
Fore
SplineSet
710 -345 m 1,0,-1
 710 -373 l 1,1,2
 569 -354 569 -354 481 -259 c 128,-1,3
 393 -164 393 -164 393 -49 c 0,4,5
 393 12 393 12 412.5 93.5 c 128,-1,6
 432 175 432 175 432 219 c 0,7,8
 432 279 432 279 380.5 332.5 c 128,-1,9
 329 386 329 386 239 397 c 1,10,-1
 239 432 l 1,11,12
 329 444 329 444 380.5 496 c 128,-1,13
 432 548 432 548 432 611 c 0,14,15
 432 655 432 655 412.5 735 c 128,-1,16
 393 815 393 815 393 876 c 0,17,18
 393 992 393 992 481 1087.5 c 128,-1,19
 569 1183 569 1183 710 1202 c 1,20,-1
 710 1172 l 1,21,22
 612 1148 612 1148 565.5 1095 c 128,-1,23
 519 1042 519 1042 519 977 c 0,24,25
 519 927 519 927 538.5 845 c 128,-1,26
 558 763 558 763 558 707 c 0,27,28
 558 621 558 621 495.5 541 c 128,-1,29
 433 461 433 461 308 416 c 1,30,31
 430 372 430 372 494 290 c 128,-1,32
 558 208 558 208 558 123 c 0,33,34
 558 65 558 65 538.5 -16.5 c 128,-1,35
 519 -98 519 -98 519 -148 c 0,36,37
 519 -212 519 -212 565.5 -265.5 c 128,-1,38
 612 -319 612 -319 710 -345 c 1,0,-1
EndSplineSet
EndChar

StartChar: bar
Encoding: 124 124 18
Width: 347
Flags: W
LayerCount: 2
Fore
SplineSet
206 1202 m 1,0,-1
 206 -373 l 1,1,-1
 136 -373 l 1,2,-1
 136 1202 l 1,3,-1
 206 1202 l 1,0,-1
EndSplineSet
EndChar

StartChar: asciitilde
Encoding: 126 126 19
Width: 936
Flags: W
LayerCount: 2
Fore
SplineSet
880 570 m 1,0,-1
 919 570 l 1,1,2
 915 461 915 461 855.5 398.5 c 128,-1,3
 796 336 796 336 711 336 c 0,4,5
 673 336 673 336 628 349 c 128,-1,6
 583 362 583 362 396 439 c 0,7,8
 266 492 266 492 211 492 c 0,9,10
 152 492 152 492 111.5 456 c 128,-1,11
 71 420 71 420 54 338 c 1,12,-1
 17 338 l 1,13,14
 22 452 22 452 79.5 512 c 128,-1,15
 137 572 137 572 214 572 c 0,16,17
 252 572 252 572 290 561 c 0,18,19
 378 536 378 536 521.5 474.5 c 128,-1,20
 665 413 665 413 724 413 c 0,21,22
 787 413 787 413 830 453.5 c 128,-1,23
 873 494 873 494 880 570 c 1,0,-1
EndSplineSet
EndChar

StartChar: agrave
Encoding: 224 224 20
Width: 1075
Flags: W
LayerCount: 2
Fore
SplineSet
741 331 m 1,0,1
 720 266 720 266 690.5 213 c 128,-1,2
 661 160 661 160 626 114 c 0,3,4
 519 -19 519 -19 400 -19 c 0,5,6
 208 -19 208 -19 159 214 c 0,7,8
 133 334 133 334 157 451 c 128,-1,9
 181 568 181 568 252 683 c 0,10,11
 325 801 325 801 433 860 c 128,-1,12
 541 919 541 919 684 919 c 0,13,14
 712 919 712 919 746 918.5 c 128,-1,15
 780 918 780 918 815.5 916 c 128,-1,16
 851 914 851 914 886 912 c 128,-1,17
 921 910 921 910 952 908 c 1,18,-1
 946 646 l 1,19,-1
 946 647 l 1,20,-1
 950 254 l 2,21,22
 952 209 952 209 954.5 179.5 c 128,-1,23
 957 150 957 150 958 139 c 0,24,25
 961 114 961 114 985 114 c 0,26,27
 1053 114 1053 114 1214 346 c 1,28,-1
 1218 179 l 1,29,30
 1073 -19 1073 -19 925 -19 c 0,31,32
 785 -19 785 -19 753 126 c 0,33,34
 749 146 749 146 747 182 c 128,-1,35
 745 218 745 218 745 264 c 2,36,-1
 741 331 l 1,0,1
737 758 m 1,37,38
 688 775 688 775 647 783.5 c 128,-1,39
 606 792 606 792 561 792 c 0,40,41
 497 792 497 792 453.5 749.5 c 128,-1,42
 410 707 410 707 387 625 c 0,43,44
 362 522 362 522 357 425 c 128,-1,45
 352 328 352 328 368 248 c 0,46,47
 388 146 388 146 437 146 c 0,48,49
 493 146 493 146 589 280 c 0,50,51
 637 352 637 352 674 430 c 128,-1,52
 711 508 711 508 739 599 c 1,53,-1
 737 758 l 1,37,38
627 502 m 1,54,-1
 369 664 l 2,55,56
 347 680 347 680 334 698 c 128,-1,57
 321 716 321 716 321 736 c 0,58,59
 321 760 321 760 336 774.5 c 128,-1,60
 351 789 351 789 378 789 c 0,61,62
 396 789 396 789 410.5 780 c 128,-1,63
 425 771 425 771 448 749 c 2,64,-1
 694 502 l 1,65,-1
 627 502 l 1,54,-1
EndSplineSet
EndChar

StartChar: ocircumflex.001
Encoding: 65539 -1 26
Width: 1112
Flags: W
LayerCount: 2
Fore
SplineSet
416 -19 m 0,0,1
 301 -19 301 -19 205 70 c 0,2,3
 110 160 110 160 85 288 c 0,4,5
 32 528 32 528 170 726 c 0,6,7
 307 928 307 928 522 928 c 0,8,9
 643 928 643 928 742 842 c 1,10,11
 837 753 837 753 864 626 c 0,12,13
 890 499 890 499 869 388.5 c 128,-1,14
 848 278 848 278 781 179 c 0,15,16
 711 79 711 79 619.5 30 c 128,-1,17
 528 -19 528 -19 416 -19 c 0,0,1
483 98 m 0,18,19
 536 98 536 98 573.5 133 c 128,-1,20
 611 168 611 168 637 236 c 0,21,22
 665 310 665 310 668.5 393.5 c 128,-1,23
 672 477 672 477 652 574 c 0,24,25
 602 813 602 813 466 813 c 0,26,27
 365 813 365 813 313 670 c 0,28,29
 284 595 284 595 281 510.5 c 128,-1,30
 278 426 278 426 298 332 c 0,31,32
 324 213 324 213 370 155.5 c 128,-1,33
 416 98 416 98 483 98 c 0,18,19
EndSplineSet
EndChar

StartChar: dagger
Encoding: 8224 8224 30
Width: 932
Flags: W
LayerCount: 2
Fore
SplineSet
347 -231 m 1,0,-1
 567 622 l 1,1,-1
 248 592 l 1,2,-1
 297 700 l 1,3,-1
 576 668 l 1,4,-1
 607 1066 l 1,5,-1
 755 1093 l 1,6,-1
 621 668 l 1,7,-1
 941 700 l 1,8,-1
 895 592 l 1,9,-1
 612 622 l 1,10,-1
 496 -213 l 1,11,-1
 347 -231 l 1,0,-1
EndSplineSet
EndChar

StartChar: degree
Encoding: 176 176 31
Width: 409
Flags: W
LayerCount: 2
Fore
SplineSet
395 844 m 0,0,1
 344 844 344 844 307.5 880 c 128,-1,2
 271 916 271 916 271 968 c 0,3,4
 271 1021 271 1021 307.5 1057 c 128,-1,5
 344 1093 344 1093 395 1093 c 0,6,7
 447 1093 447 1093 483 1057 c 128,-1,8
 519 1021 519 1021 519 968 c 0,9,10
 519 916 519 916 483 880 c 128,-1,11
 447 844 447 844 395 844 c 0,0,1
395 888 m 256,12,13
 427 888 427 888 450.5 912 c 128,-1,14
 474 936 474 936 474 968 c 256,15,16
 474 1000 474 1000 450.5 1024 c 128,-1,17
 427 1048 427 1048 395 1048 c 256,18,19
 363 1048 363 1048 339 1024 c 128,-1,20
 315 1000 315 1000 315 968 c 256,21,22
 315 936 315 936 339 912 c 128,-1,23
 363 888 363 888 395 888 c 256,12,13
EndSplineSet
EndChar

StartChar: bullet
Encoding: 8226 8226 32
Width: 931
Flags: W
LayerCount: 2
Fore
SplineSet
817 662 m 256,0,1
 817 517 817 517 713.5 414 c 128,-1,2
 610 311 610 311 465 311 c 256,3,4
 320 311 320 311 217 414 c 128,-1,5
 114 517 114 517 114 662 c 256,6,7
 114 807 114 807 217 910 c 128,-1,8
 320 1013 320 1013 465 1013 c 256,9,10
 610 1013 610 1013 713.5 910 c 128,-1,11
 817 807 817 807 817 662 c 256,0,1
EndSplineSet
EndChar

StartChar: registered
Encoding: 174 174 33
Width: 897
Flags: W
LayerCount: 2
Fore
SplineSet
580 445 m 0,0,1
 448 445 448 445 354.5 538.5 c 128,-1,2
 261 632 261 632 261 764 c 256,3,4
 261 896 261 896 354.5 990 c 128,-1,5
 448 1084 448 1084 580 1084 c 0,6,7
 714 1084 714 1084 807 990 c 128,-1,8
 900 896 900 896 900 764 c 256,9,10
 900 632 900 632 806.5 538.5 c 128,-1,11
 713 445 713 445 580 445 c 0,0,1
580 484 m 0,12,13
 695 484 695 484 777.5 567 c 128,-1,14
 860 650 860 650 860 764 c 256,15,16
 860 878 860 878 777.5 961 c 128,-1,17
 695 1044 695 1044 580 1044 c 0,18,19
 466 1044 466 1044 383.5 961 c 128,-1,20
 301 878 301 878 301 764 c 256,21,22
 301 650 301 650 383.5 567 c 128,-1,23
 466 484 466 484 580 484 c 0,12,13
529 737 m 1,24,-1
 501 596 l 1,25,-1
 394 596 l 1,26,-1
 403 639 l 1,27,-1
 456 639 l 1,28,-1
 511 915 l 1,29,-1
 458 915 l 1,30,-1
 466 959 l 1,31,-1
 598 959 l 2,32,33
 751 959 751 959 751 875 c 0,34,35
 751 800 751 800 650 750 c 1,36,-1
 685 639 l 1,37,-1
 747 639 l 1,38,-1
 738 596 l 1,39,-1
 641 596 l 1,40,-1
 591 737 l 1,41,-1
 529 737 l 1,24,-1
538 782 m 1,42,-1
 574 782 l 2,43,44
 697 782 697 782 697 866 c 0,45,46
 697 915 697 915 607 915 c 2,47,-1
 564 915 l 1,48,-1
 538 782 l 1,42,-1
EndSplineSet
EndChar

StartChar: copyright
Encoding: 169 169 34
Width: 1244
Flags: W
LayerCount: 2
Fore
SplineSet
725 -27 m 0,0,1
 495 -27 495 -27 330.5 137 c 128,-1,2
 166 301 166 301 166 533 c 256,3,4
 166 765 166 765 330.5 929 c 128,-1,5
 495 1093 495 1093 725 1093 c 0,6,7
 958 1093 958 1093 1122 929 c 128,-1,8
 1286 765 1286 765 1286 533 c 256,9,10
 1286 301 1286 301 1122 137 c 128,-1,11
 958 -27 958 -27 725 -27 c 0,0,1
725 18 m 0,12,13
 939 18 939 18 1090 169 c 128,-1,14
 1241 320 1241 320 1241 533 c 256,15,16
 1241 746 1241 746 1090 897 c 128,-1,17
 939 1048 939 1048 725 1048 c 0,18,19
 513 1048 513 1048 362 897 c 128,-1,20
 211 746 211 746 211 533 c 256,21,22
 211 320 211 320 362 169 c 128,-1,23
 513 18 513 18 725 18 c 0,12,13
890 246 m 1,24,25
 785 213 785 213 704 213 c 0,26,27
 580 213 580 213 508 279.5 c 128,-1,28
 436 346 436 346 436 462 c 0,29,30
 436 625 436 625 541 734.5 c 128,-1,31
 646 844 646 844 805 844 c 0,32,33
 896 844 896 844 1003 814 c 1,34,-1
 967 675 l 1,35,-1
 915 684 l 1,36,-1
 923 766 l 1,37,38
 854 798 854 798 792 798 c 0,39,40
 688 798 688 798 616 700 c 128,-1,41
 544 602 544 602 544 462 c 0,42,43
 544 271 544 271 722 271 c 0,44,45
 823 271 823 271 902 307 c 1,46,-1
 890 246 l 1,24,25
EndSplineSet
EndChar

StartChar: trademark
Encoding: 8482 8482 35
Width: 1333
Flags: W
LayerCount: 2
Fore
SplineSet
440 1021 m 1,0,-1
 307 1021 l 1,1,-1
 288 923 l 1,2,-1
 225 923 l 1,3,-1
 254 1066 l 1,4,-1
 751 1066 l 1,5,-1
 723 923 l 1,6,-1
 661 923 l 1,7,-1
 679 1021 l 1,8,-1
 546 1021 l 1,9,-1
 456 569 l 1,10,-1
 554 569 l 1,11,-1
 545 524 l 1,12,-1
 243 524 l 1,13,-1
 253 569 l 1,14,-1
 350 569 l 1,15,-1
 440 1021 l 1,0,-1
1011 569 m 1,16,-1
 942 956 l 1,17,-1
 857 524 l 1,18,-1
 688 524 l 1,19,-1
 697 569 l 1,20,-1
 794 569 l 1,21,-1
 884 1021 l 1,22,-1
 787 1021 l 1,23,-1
 796 1066 l 1,24,-1
 1036 1066 l 1,25,-1
 1092 747 l 1,26,-1
 1265 1066 l 1,27,-1
 1481 1066 l 1,28,-1
 1473 1021 l 1,29,-1
 1375 1021 l 1,30,-1
 1285 569 l 1,31,-1
 1383 569 l 1,32,-1
 1373 524 l 1,33,-1
 1178 524 l 1,34,-1
 1270 985 l 1,35,-1
 1041 569 l 1,36,-1
 1011 569 l 1,16,-1
EndSplineSet
EndChar

StartChar: logicalnot
Encoding: 172 172 39
Width: 932
Flags: W
LayerCount: 2
Fore
SplineSet
177 510 m 1,0,-1
 193 590 l 1,1,-1
 975 590 l 1,2,-1
 906 248 l 1,3,-1
 814 248 l 1,4,-1
 866 510 l 1,5,-1
 177 510 l 1,0,-1
EndSplineSet
EndChar

StartChar: florin
Encoding: 402 402 40
Width: 679
Flags: W
LayerCount: 2
Fore
SplineSet
158 -231 m 1,0,-1
 210 -18 l 1,1,-1
 286 364 l 1,2,-1
 108 364 l 1,3,-1
 117 409 l 1,4,-1
 294 409 l 1,5,-1
 298 427 l 2,6,7
 330 586 330 586 463 692.5 c 128,-1,8
 596 799 596 799 761 799 c 0,9,10
 818 799 818 799 860 784 c 1,11,-1
 764 678 l 1,12,13
 712 729 712 729 643 729 c 0,14,15
 500 729 500 729 457 512 c 2,16,-1
 436 409 l 1,17,-1
 623 409 l 1,18,-1
 614 364 l 1,19,-1
 427 364 l 1,20,-1
 313 -213 l 1,21,-1
 158 -231 l 1,0,-1
EndSplineSet
EndChar

StartChar: ellipsis
Encoding: 8230 8230 41
Width: 1827
Flags: W
LayerCount: 2
Fore
SplineSet
758 113 m 0,0,1
 758 144 758 144 809.5 245.5 c 128,-1,2
 861 347 861 347 876 355 c 0,3,4
 907 369 907 369 964.5 307.5 c 128,-1,5
 1022 246 1022 246 1026 211 c 1,6,7
 1026 166 1026 166 977.5 79.5 c 128,-1,8
 929 -7 929 -7 908 -7 c 0,9,10
 899 -7 899 -7 851 26.5 c 128,-1,11
 803 60 803 60 778 79 c 0,12,13
 758 96 758 96 758 113 c 0,0,1
1308 113 m 0,14,15
 1308 144 1308 144 1359 245.5 c 128,-1,16
 1410 347 1410 347 1426 355 c 0,17,18
 1457 369 1457 369 1514.5 307.5 c 128,-1,19
 1572 246 1572 246 1575 211 c 0,20,21
 1575 166 1575 166 1527 79.5 c 128,-1,22
 1479 -7 1479 -7 1458 -7 c 0,23,24
 1449 -7 1449 -7 1401 26.5 c 128,-1,25
 1353 60 1353 60 1328 79 c 0,26,27
 1308 96 1308 96 1308 113 c 0,14,15
211 113 m 0,28,29
 211 144 211 144 262 245.5 c 128,-1,30
 313 347 313 347 329 355 c 0,31,32
 360 369 360 369 417.5 307.5 c 128,-1,33
 475 246 475 246 478 211 c 0,34,35
 478 166 478 166 430 79.5 c 128,-1,36
 382 -7 382 -7 361 -7 c 0,37,38
 352 -7 352 -7 304 26.5 c 128,-1,39
 256 60 256 60 231 79 c 0,40,41
 211 96 211 96 211 113 c 0,28,29
EndSplineSet
EndChar

StartChar: endash
Encoding: 8211 8211 42
Width: 434
Flags: W
LayerCount: 2
Fore
SplineSet
434 154 m 1,0,-1
 0 154 l 1,1,-1
 0 234 l 1,2,-1
 434 234 l 1,3,-1
 434 154 l 1,0,-1
EndSplineSet
EndChar

StartChar: emdash
Encoding: 8212 8212 43
Width: 1862
Flags: W
LayerCount: 2
Fore
SplineSet
1866 572 m 1,0,-1
 -4 572 l 1,1,-1
 -4 732 l 1,2,-1
 1866 732 l 1,3,-1
 1866 572 l 1,0,-1
EndSplineSet
EndChar

StartChar: quotedblleft
Encoding: 8220 8220 44
Width: 613
Flags: W
LayerCount: 2
Fore
SplineSet
340 993 m 0,0,1
 341 1058 341 1058 385 1121.5 c 128,-1,2
 429 1185 429 1185 483 1211 c 1,3,-1
 514 1153 l 1,4,5
 498 1144 498 1144 476 1120 c 128,-1,6
 454 1096 454 1096 444 1058 c 1,7,8
 510 1030 510 1030 507 975 c 0,9,10
 507 959 507 959 500.5 944.5 c 128,-1,11
 494 930 494 930 483.5 919 c 128,-1,12
 473 908 473 908 458 901.5 c 128,-1,13
 443 895 443 895 427 895 c 0,14,15
 406 895 406 895 390 903.5 c 128,-1,16
 374 912 374 912 363 925.5 c 128,-1,17
 352 939 352 939 346 957 c 128,-1,18
 340 975 340 975 340 993 c 0,0,1
121 993 m 0,19,20
 122 1058 122 1058 166 1121.5 c 128,-1,21
 210 1185 210 1185 265 1211 c 1,22,-1
 296 1153 l 1,23,24
 280 1144 280 1144 258 1120 c 128,-1,25
 236 1096 236 1096 226 1058 c 1,26,27
 292 1030 292 1030 289 975 c 0,28,29
 289 959 289 959 282.5 944.5 c 128,-1,30
 276 930 276 930 265 919 c 128,-1,31
 254 908 254 908 239 901.5 c 128,-1,32
 224 895 224 895 208 895 c 0,33,34
 188 895 188 895 171.5 903.5 c 128,-1,35
 155 912 155 912 144 925.5 c 128,-1,36
 133 939 133 939 127 957 c 128,-1,37
 121 975 121 975 121 993 c 0,19,20
EndSplineSet
EndChar

StartChar: quotedblright
Encoding: 8221 8221 45
Width: 597
Flags: W
LayerCount: 2
Fore
SplineSet
295 1113 m 0,0,1
 294 1048 294 1048 250 984.5 c 128,-1,2
 206 921 206 921 152 895 c 1,3,-1
 121 953 l 1,4,5
 137 962 137 962 159 986 c 128,-1,6
 181 1010 181 1010 191 1048 c 1,7,8
 125 1076 125 1076 128 1131 c 0,9,10
 128 1147 128 1147 134.5 1161.5 c 128,-1,11
 141 1176 141 1176 151.5 1187 c 128,-1,12
 162 1198 162 1198 176.5 1204.5 c 128,-1,13
 191 1211 191 1211 208 1211 c 0,14,15
 229 1211 229 1211 245 1202.5 c 128,-1,16
 261 1194 261 1194 272 1180.5 c 128,-1,17
 283 1167 283 1167 289 1149 c 128,-1,18
 295 1131 295 1131 295 1113 c 0,0,1
514 1113 m 0,19,20
 513 1048 513 1048 469 984.5 c 128,-1,21
 425 921 425 921 370 895 c 1,22,-1
 339 953 l 1,23,24
 355 962 355 962 377 986 c 128,-1,25
 399 1010 399 1010 409 1048 c 1,26,27
 343 1076 343 1076 346 1131 c 0,28,29
 346 1147 346 1147 352.5 1161.5 c 128,-1,30
 359 1176 359 1176 370 1187 c 128,-1,31
 381 1198 381 1198 395.5 1204.5 c 128,-1,32
 410 1211 410 1211 427 1211 c 0,33,34
 447 1211 447 1211 463 1202.5 c 128,-1,35
 479 1194 479 1194 490.5 1180.5 c 128,-1,36
 502 1167 502 1167 508 1149 c 128,-1,37
 514 1131 514 1131 514 1113 c 0,19,20
EndSplineSet
EndChar

StartChar: divide
Encoding: 247 247 46
Width: 1093
Flags: W
LayerCount: 2
Fore
SplineSet
644 821 m 1,0,-1
 466 821 l 1,1,-1
 466 1002 l 1,2,-1
 644 1002 l 1,3,-1
 644 821 l 1,0,-1
644 204 m 1,4,-1
 466 204 l 1,5,-1
 466 385 l 1,6,-1
 644 385 l 1,7,-1
 644 204 l 1,4,-1
157 543 m 1,8,-1
 947 543 l 1,9,-1
 947 678 l 1,10,-1
 157 678 l 1,11,-1
 157 543 l 1,8,-1
EndSplineSet
EndChar

StartChar: lozenge
Encoding: 9674 9674 47
Width: 1118
Flags: W
LayerCount: 2
Fore
SplineSet
1003 699 m 1,0,-1
 560 197 l 1,1,-1
 117 699 l 1,2,-1
 560 1202 l 1,3,-1
 1003 699 l 1,0,-1
848 699 m 1,4,-1
 560 1036 l 1,5,-1
 271 699 l 1,6,-1
 560 364 l 1,7,-1
 848 699 l 1,4,-1
EndSplineSet
EndChar

StartChar: fraction
Encoding: 8260 8260 48
Width: 742
Flags: W
LayerCount: 2
Fore
SplineSet
740 1101 m 1,0,-1
 101 -82 l 1,1,-1
 -9 -82 l 1,2,-1
 629 1101 l 1,3,-1
 740 1101 l 1,0,-1
EndSplineSet
EndChar

StartChar: guilsinglleft
Encoding: 8249 8249 49
Width: 1117
Flags: W
LayerCount: 2
Fore
SplineSet
955 58 m 1,0,-1
 150 444 l 1,1,-1
 150 534 l 1,2,-1
 955 918 l 1,3,-1
 955 784 l 1,4,-1
 331 489 l 1,5,-1
 955 192 l 1,6,-1
 955 58 l 1,0,-1
EndSplineSet
EndChar

StartChar: daggerdbl
Encoding: 8225 8225 52
Width: 932
Flags: W
LayerCount: 2
Fore
SplineSet
349 -231 m 1,0,-1
 481 185 l 1,1,-1
 161 154 l 1,2,-1
 211 261 l 1,3,-1
 490 229 l 1,4,-1
 567 616 l 1,5,-1
 247 586 l 1,6,-1
 297 693 l 1,7,-1
 575 661 l 1,8,-1
 608 1066 l 1,9,-1
 758 1093 l 1,10,-1
 620 661 l 1,11,-1
 940 693 l 1,12,-1
 889 586 l 1,13,-1
 611 616 l 1,14,-1
 535 229 l 1,15,-1
 855 261 l 1,16,-1
 804 154 l 1,17,-1
 525 185 l 1,18,-1
 499 -213 l 1,19,-1
 349 -231 l 1,0,-1
EndSplineSet
EndChar

StartChar: middot.001
Encoding: 8729 8729 53
Width: 620
Flags: W
LayerCount: 2
Fore
SplineSet
429 516 m 1,0,-1
 190 516 l 1,1,-1
 190 789 l 1,2,-1
 429 789 l 1,3,-1
 429 516 l 1,0,-1
EndSplineSet
EndChar

StartChar: quotesinglbase
Encoding: 8218 8218 54
Width: 418
Flags: W
LayerCount: 2
Fore
SplineSet
103 128 m 1,0,-1
 247 231 l 1,1,-1
 353 90 l 1,2,3
 345 -56 345 -56 262.5 -134.5 c 128,-1,4
 180 -213 180 -213 36 -213 c 1,5,-1
 76 -168 l 1,6,7
 189 -158 189 -158 211 -18 c 1,8,-1
 103 128 l 1,0,-1
EndSplineSet
EndChar

StartChar: quotedblbase
Encoding: 8222 8222 55
Width: 684
Flags: W
LayerCount: 2
Fore
SplineSet
91 92 m 1,0,-1
 204 178 l 1,1,-1
 292 64 l 1,2,3
 270 -213 270 -213 31 -213 c 1,4,-1
 60 -168 l 1,5,6
 166 -148 166 -148 179 -16 c 1,7,-1
 91 92 l 1,0,-1
401 92 m 1,8,-1
 516 178 l 1,9,-1
 602 64 l 1,10,11
 581 -213 581 -213 341 -213 c 1,12,-1
 372 -168 l 1,13,14
 476 -148 476 -148 490 -16 c 1,15,-1
 401 92 l 1,8,-1
EndSplineSet
EndChar

StartChar: perthousand
Encoding: 8240 8240 56
Width: 1571
Flags: W
LayerCount: 2
Fore
SplineSet
385 533 m 0,0,1
 304 533 304 533 254.5 584.5 c 128,-1,2
 205 636 205 636 205 722 c 0,3,4
 205 865 205 865 286.5 965.5 c 128,-1,5
 368 1066 368 1066 483 1066 c 0,6,7
 567 1066 567 1066 617.5 1014.5 c 128,-1,8
 668 963 668 963 668 877 c 0,9,10
 668 733 668 733 585.5 633 c 128,-1,11
 503 533 503 533 385 533 c 0,0,1
311 715 m 0,12,13
 311 578 311 578 398 578 c 0,14,15
 463 578 463 578 517 671.5 c 128,-1,16
 571 765 571 765 571 881 c 0,17,18
 571 1022 571 1022 483 1022 c 0,19,20
 416 1022 416 1022 363.5 928 c 128,-1,21
 311 834 311 834 311 715 c 0,12,13
850 0 m 0,22,23
 769 0 769 0 719.5 51.5 c 128,-1,24
 670 103 670 103 670 189 c 0,25,26
 670 331 670 331 751 432 c 128,-1,27
 832 533 832 533 947 533 c 0,28,29
 1031 533 1031 533 1081.5 481.5 c 128,-1,30
 1132 430 1132 430 1132 344 c 0,31,32
 1132 200 1132 200 1049.5 100 c 128,-1,33
 967 0 967 0 850 0 c 0,22,23
776 182 m 0,34,35
 776 44 776 44 862 44 c 0,36,37
 929 44 929 44 982 138 c 128,-1,38
 1035 232 1035 232 1035 348 c 0,39,40
 1035 490 1035 490 948 490 c 0,41,42
 880 490 880 490 828 395.5 c 128,-1,43
 776 301 776 301 776 182 c 0,34,35
131 -27 m 1,44,-1
 1111 1093 l 1,45,-1
 1206 1093 l 1,46,-1
 225 -27 l 1,47,-1
 131 -27 l 1,44,-1
1376 0 m 0,48,49
 1294 0 1294 0 1244.5 51.5 c 128,-1,50
 1195 103 1195 103 1195 189 c 0,51,52
 1195 331 1195 331 1276.5 432 c 128,-1,53
 1358 533 1358 533 1473 533 c 0,54,55
 1557 533 1557 533 1607.5 481.5 c 128,-1,56
 1658 430 1658 430 1658 344 c 0,57,58
 1658 200 1658 200 1575.5 100 c 128,-1,59
 1493 0 1493 0 1376 0 c 0,48,49
1301 183 m 0,60,61
 1301 44 1301 44 1389 44 c 0,62,63
 1453 44 1453 44 1507 138 c 128,-1,64
 1561 232 1561 232 1561 347 c 0,65,66
 1561 490 1561 490 1473 490 c 0,67,68
 1406 490 1406 490 1353.5 395.5 c 128,-1,69
 1301 301 1301 301 1301 183 c 0,60,61
EndSplineSet
EndChar

StartChar: multiply
Encoding: 215 215 60
Width: 1068
Flags: W
LayerCount: 2
Fore
SplineSet
203 316 m 1,0,-1
 459 575 l 1,1,-1
 203 830 l 1,2,-1
 318 938 l 1,3,-1
 574 686 l 1,4,-1
 825 938 l 1,5,-1
 937 835 l 1,6,-1
 681 581 l 1,7,-1
 941 316 l 1,8,-1
 830 207 l 1,9,-1
 570 461 l 1,10,-1
 308 207 l 1,11,-1
 203 316 l 1,0,-1
EndSplineSet
EndChar

StartChar: macron
Encoding: 175 175 61
Width: 1118
Flags: W
LayerCount: 2
Fore
SplineSet
1134 1259 m 1,0,-1
 -16 1259 l 1,1,-1
 -16 1389 l 1,2,-1
 1134 1389 l 1,3,-1
 1134 1259 l 1,0,-1
EndSplineSet
EndChar

StartChar: periodcentered
Encoding: 183 183 62
Width: 724
Flags: W
LayerCount: 2
Fore
SplineSet
482 832 m 1,0,-1
 243 832 l 1,1,-1
 243 1117 l 1,2,-1
 482 1117 l 1,3,-1
 482 832 l 1,0,-1
EndSplineSet
EndChar

StartChar: H22073
Encoding: 9633 9633 63
Width: 1237
Flags: W
LayerCount: 2
Fore
SplineSet
146 944 m 1,0,-1
 1090 944 l 1,1,-1
 1090 0 l 1,2,-1
 146 0 l 1,3,-1
 146 944 l 1,0,-1
222 868 m 1,4,-1
 222 76 l 1,5,-1
 1014 76 l 1,6,-1
 1014 868 l 1,7,-1
 222 868 l 1,4,-1
EndSplineSet
EndChar

StartChar: H18543
Encoding: 9642 9642 64
Width: 1089
Flags: W
LayerCount: 2
Fore
SplineSet
886 894 m 1,0,-1
 886 200 l 1,1,-1
 192 200 l 1,2,-1
 192 894 l 1,3,-1
 886 894 l 1,0,-1
EndSplineSet
EndChar

StartChar: H18551
Encoding: 9643 9643 65
Width: 1089
Flags: W
LayerCount: 2
Fore
SplineSet
888 930 m 1,0,-1
 888 235 l 1,1,-1
 193 235 l 1,2,-1
 193 930 l 1,3,-1
 888 930 l 1,0,-1
774 816 m 1,4,-1
 307 816 l 1,5,-1
 307 349 l 1,6,-1
 774 349 l 1,7,-1
 774 816 l 1,4,-1
EndSplineSet
EndChar

StartChar: H18533
Encoding: 9679 9679 66
Width: 1339
Flags: W
LayerCount: 2
Fore
SplineSet
204 775 m 0,0,1
 204 976 204 976 345 1117 c 128,-1,2
 486 1258 486 1258 685 1258 c 0,3,4
 885 1258 885 1258 1026 1117 c 128,-1,5
 1167 976 1167 976 1167 775 c 0,6,7
 1167 577 1167 577 1026 436 c 128,-1,8
 885 295 885 295 685 295 c 0,9,10
 486 295 486 295 345 436 c 128,-1,11
 204 577 204 577 204 775 c 0,0,1
EndSplineSet
EndChar

StartChar: openbullet
Encoding: 9702 9702 67
Width: 1089
Flags: W
LayerCount: 2
Fore
SplineSet
544 1392 m 0,0,1
 700 1392 700 1392 810.5 1281.5 c 128,-1,2
 921 1171 921 1171 921 1015 c 256,3,4
 921 859 921 859 810.5 749 c 128,-1,5
 700 639 700 639 544 639 c 256,6,7
 388 639 388 639 278 749 c 128,-1,8
 168 859 168 859 168 1015 c 256,9,10
 168 1171 168 1171 277.5 1281.5 c 128,-1,11
 387 1392 387 1392 544 1392 c 0,0,1
544 1278 m 0,12,13
 435 1278 435 1278 358.5 1200.5 c 128,-1,14
 282 1123 282 1123 282 1015 c 0,15,16
 282 906 282 906 359 829.5 c 128,-1,17
 436 753 436 753 544 753 c 256,18,19
 652 753 652 753 729.5 829.5 c 128,-1,20
 807 906 807 906 807 1015 c 0,21,22
 807 1123 807 1123 730.5 1200.5 c 128,-1,23
 654 1278 654 1278 544 1278 c 0,12,13
EndSplineSet
EndChar

StartChar: uniFFFC
Encoding: 65532 65532 68
Width: 2048
Flags: W
LayerCount: 2
Fore
SplineSet
2048 1150 m 1,0,-1
 1948 1150 l 1,1,-1
 1948 1373 l 1,2,-1
 1725 1373 l 1,3,-1
 1725 1473 l 1,4,-1
 2048 1473 l 1,5,-1
 2048 1150 l 1,0,-1
1473 1373 m 1,6,-1
 1150 1373 l 1,7,-1
 1150 1473 l 1,8,-1
 1473 1473 l 1,9,-1
 1473 1373 l 1,6,-1
2048 575 m 1,10,-1
 1948 575 l 1,11,-1
 1948 898 l 1,12,-1
 2048 898 l 1,13,-1
 2048 575 l 1,10,-1
1782 611 m 2,14,15
 1782 370 1782 370 1571 370 c 0,16,17
 1485 370 1485 370 1433 415 c 1,18,-1
 1506 494 l 1,19,20
 1531 468 1531 468 1571 468 c 0,21,22
 1666 468 1666 468 1666 606 c 2,23,-1
 1666 1090 l 1,24,-1
 1782 1090 l 1,25,-1
 1782 611 l 2,14,15
898 1373 m 1,26,-1
 575 1373 l 1,27,-1
 575 1473 l 1,28,-1
 898 1473 l 1,29,-1
 898 1373 l 1,26,-1
2048 0 m 1,30,-1
 1725 0 l 1,31,-1
 1725 100 l 1,32,-1
 1948 100 l 1,33,-1
 1948 323 l 1,34,-1
 2048 323 l 1,35,-1
 2048 0 l 1,30,-1
1423 591 m 0,36,37
 1423 382 1423 382 1149 382 c 2,38,-1
 909 382 l 1,39,-1
 909 1090 l 1,40,-1
 1144 1090 l 2,41,42
 1393 1090 1393 1090 1393 904 c 0,43,44
 1393 813 1393 813 1304 759 c 1,45,46
 1423 713 1423 713 1423 591 c 0,36,37
323 1373 m 1,47,-1
 100 1373 l 1,48,-1
 100 1150 l 1,49,-1
 0 1150 l 1,50,-1
 0 1473 l 1,51,-1
 323 1473 l 1,52,-1
 323 1373 l 1,47,-1
1473 0 m 1,53,-1
 1150 0 l 1,54,-1
 1150 100 l 1,55,-1
 1473 100 l 1,56,-1
 1473 0 l 1,53,-1
854 735 m 0,57,58
 854 562 854 562 772 466 c 128,-1,59
 690 370 690 370 537 370 c 256,60,61
 384 370 384 370 303.5 466 c 128,-1,62
 223 562 223 562 223 735 c 0,63,64
 223 910 223 910 303.5 1006 c 128,-1,65
 384 1102 384 1102 537 1102 c 256,66,67
 690 1102 690 1102 772 1006 c 128,-1,68
 854 910 854 910 854 735 c 0,57,58
100 575 m 1,69,-1
 0 575 l 1,70,-1
 0 898 l 1,71,-1
 100 898 l 1,72,-1
 100 575 l 1,69,-1
898 0 m 1,73,-1
 575 0 l 1,74,-1
 575 100 l 1,75,-1
 898 100 l 1,76,-1
 898 0 l 1,73,-1
323 0 m 1,77,-1
 0 0 l 1,78,-1
 0 323 l 1,79,-1
 100 323 l 1,80,-1
 100 100 l 1,81,-1
 323 100 l 1,82,-1
 323 0 l 1,77,-1
1277 893 m 0,83,84
 1277 992 1277 992 1114 992 c 2,85,-1
 1025 992 l 1,86,-1
 1025 798 l 1,87,-1
 1126 798 l 2,88,89
 1277 798 1277 798 1277 893 c 0,83,84
1307 591 m 0,90,91
 1307 700 1307 700 1136 700 c 2,92,-1
 1025 700 l 1,93,-1
 1025 480 l 1,94,-1
 1149 480 l 2,95,96
 1307 480 1307 480 1307 591 c 0,90,91
738 735 m 0,97,98
 738 1004 738 1004 537 1004 c 0,99,100
 339 1004 339 1004 339 735 c 0,101,102
 339 468 339 468 537 468 c 0,103,104
 738 468 738 468 738 735 c 0,97,98
EndSplineSet
EndChar

StartChar: zerowidthnonjoiner
Encoding: 8204 8204 88
Width: 0
GlyphClass: 2
Flags: W
LayerCount: 2
Fore
SplineSet
36 1289 m 1,0,-1
 36 -275 l 1,1,-1
 -36 -275 l 1,2,-1
 -36 1289 l 1,3,-1
 36 1289 l 1,0,-1
EndSplineSet
EndChar

StartChar: zerowidthjoiner
Encoding: 8205 8205 89
Width: 0
GlyphClass: 2
Flags: W
LayerCount: 2
Fore
SplineSet
36 -275 m 1,0,-1
 -36 -275 l 1,1,-1
 -36 1114 l 1,2,-1
 -170 978 l 1,3,-1
 -219 1027 l 1,4,-1
 -48 1196 l 1,5,-1
 -219 1364 l 1,6,-1
 -170 1413 l 1,7,-1
 0 1242 l 1,8,-1
 170 1413 l 1,9,-1
 219 1364 l 1,10,-1
 48 1196 l 1,11,-1
 219 1027 l 1,12,-1
 170 978 l 1,13,-1
 36 1114 l 1,14,-1
 36 -275 l 1,0,-1
EndSplineSet
EndChar

StartChar: lefttorightmark
Encoding: 8206 8206 90
Width: 0
GlyphClass: 2
Flags: W
LayerCount: 2
Fore
SplineSet
430 1198 m 1,0,-1
 213 984 l 1,1,-1
 164 1033 l 1,2,-1
 301 1163 l 1,3,-1
 35 1163 l 1,4,-1
 35 -275 l 1,5,-1
 -36 -275 l 1,6,-1
 -36 1234 l 1,7,-1
 301 1234 l 1,8,-1
 164 1364 l 1,9,-1
 213 1413 l 1,10,-1
 430 1198 l 1,0,-1
EndSplineSet
EndChar

StartChar: righttoleftmark
Encoding: 8207 8207 91
Width: 0
GlyphClass: 2
Flags: W
LayerCount: 2
Fore
SplineSet
35 -275 m 1,0,-1
 -36 -275 l 1,1,-1
 -36 1163 l 1,2,-1
 -302 1163 l 1,3,-1
 -165 1033 l 1,4,-1
 -214 984 l 1,5,-1
 -431 1198 l 1,6,-1
 -214 1413 l 1,7,-1
 -165 1364 l 1,8,-1
 -302 1234 l 1,9,-1
 35 1234 l 1,10,-1
 35 -275 l 1,0,-1
EndSplineSet
EndChar

StartChar: afii57388.001
Encoding: 1644 1644 92
Width: 353
GlyphClass: 2
Flags: W
LayerCount: 2
Fore
SplineSet
210 654 m 0,0,1
 200 627 200 627 185 603 c 0,2,3
 180 597 180 597 173.5 593.5 c 128,-1,4
 167 590 167 590 162 590 c 128,-1,5
 157 590 157 590 154.5 593 c 128,-1,6
 152 596 152 596 155 603 c 0,7,8
 187 660 187 660 202.5 713.5 c 128,-1,9
 218 767 218 767 218 800 c 1,10,11
 194 806 194 806 179 816 c 128,-1,12
 164 826 164 826 155 837.5 c 128,-1,13
 146 849 146 849 143 859 c 128,-1,14
 140 869 140 869 140 874 c 0,15,16
 140 890 140 890 145.5 907 c 128,-1,17
 151 924 151 924 160.5 937.5 c 128,-1,18
 170 951 170 951 183.5 959.5 c 128,-1,19
 197 968 197 968 213 968 c 0,20,21
 272 968 272 968 272 874 c 0,22,23
 272 859 272 859 268 835 c 128,-1,24
 264 811 264 811 256 781.5 c 128,-1,25
 248 752 248 752 236.5 719.5 c 128,-1,26
 225 687 225 687 210 654 c 0,0,1
EndSplineSet
EndChar

StartChar: afii57409
Encoding: 1569 1569 93
Width: 745
GlyphClass: 2
Flags: W
AnchorPoint: "Anchor-1" 375 -420 basechar 0
AnchorPoint: "Anchor-0" 300 825 basechar 0
LayerCount: 2
Fore
SplineSet
111 299 m 1,0,1
 207 618 207 618 381 618 c 0,2,3
 477 618 477 618 477 545 c 0,4,5
 477 494 477 494 459 440 c 1,6,7
 428 399 428 399 414 399 c 0,8,9
 367 399 367 399 365 406 c 0,10,11
 352 428 352 428 344 451 c 1,12,13
 233 436 233 436 225 381 c 1,14,15
 268 334 268 334 322 313 c 0,16,17
 352 299 352 299 440 285 c 1,18,19
 496 307 496 307 528.5 325.5 c 128,-1,20
 561 344 561 344 678 424 c 1,21,-1
 692 428 l 2,22,23
 705 428 705 428 705 401 c 0,24,25
 705 311 705 311 608 233 c 0,26,27
 549 184 549 184 401 113 c 0,28,29
 260 47 260 47 211 6 c 1,30,-1
 188 4 l 1,31,32
 135 4 135 4 135 23 c 0,33,34
 135 70 135 70 272 176 c 1,35,36
 184 195 184 195 164 207 c 0,37,38
 139 225 139 225 111 299 c 1,0,1
EndSplineSet
EndChar

StartChar: afii57440
Encoding: 1600 1600 94
Width: 322
GlyphClass: 2
Flags: W
LayerCount: 2
Fore
SplineSet
-43 0 m 1,0,-1
 -43 207 l 1,1,-1
 352 207 l 1,2,-1
 352 0 l 1,3,-1
 -43 0 l 1,0,-1
EndSplineSet
EndChar

StartChar: afii57453
Encoding: 1613 1613 95
Width: 0
GlyphClass: 4
Flags: W
AnchorPoint: "Anchor-3" 0 0 mark 0
AnchorPoint: "Anchor-1" 0 0 mark 0
LayerCount: 2
Fore
SplineSet
-220 -98 m 1,0,-1
 213 129 l 1,1,-1
 213 29 l 1,2,-1
 -220 -190 l 1,3,-1
 -220 -98 l 1,0,-1
-220 92 m 1,4,-1
 213 319 l 1,5,-1
 213 221 l 1,6,-1
 -220 4 l 1,7,-1
 -220 92 l 1,4,-1
EndSplineSet
EndChar

StartChar: afii57381
Encoding: 1642 1642 96
Width: 1184
GlyphClass: 2
Flags: W
LayerCount: 2
Fore
SplineSet
911 1434 m 1,0,-1
 1018 1434 l 1,1,-1
 246 -4 l 1,2,-1
 135 -4 l 1,3,-1
 911 1434 l 1,0,-1
768 113 m 0,4,5
 768 150 768 150 791 219 c 0,6,7
 817 303 817 303 831 303 c 0,8,9
 858 303 858 303 947 251 c 128,-1,10
 1036 199 1036 199 1036 180 c 0,11,12
 1036 141 1036 141 1022 84 c 0,13,14
 1008 10 1008 10 979 2 c 1,15,16
 870 31 870 31 858 31 c 1,17,18
 768 66 768 66 768 113 c 0,4,5
199 1243 m 0,19,20
 199 1280 199 1280 221 1350 c 0,21,22
 248 1434 248 1434 262 1434 c 0,23,24
 289 1434 289 1434 378 1381.5 c 128,-1,25
 467 1329 467 1329 467 1311 c 0,26,27
 467 1272 467 1272 453 1214 c 0,28,29
 438 1141 438 1141 410 1133 c 1,30,31
 301 1161 301 1161 289 1161 c 1,32,33
 199 1196 199 1196 199 1243 c 0,19,20
EndSplineSet
EndChar

StartChar: afii57461
Encoding: 1643 1643 97
Width: 1184
GlyphClass: 2
Flags: W
LayerCount: 2
Fore
SplineSet
911 1434 m 1,0,-1
 1018 1434 l 1,1,-1
 246 -4 l 1,2,-1
 135 -4 l 1,3,-1
 911 1434 l 1,0,-1
EndSplineSet
EndChar

StartChar: afii63167
Encoding: 1645 1645 98
Width: 1118
GlyphClass: 2
Flags: W
LayerCount: 2
Fore
SplineSet
694 729 m 1,0,-1
 1057 733 l 1,1,-1
 1057 610 l 1,2,-1
 702 612 l 1,3,-1
 971 352 l 1,4,-1
 883 264 l 1,5,-1
 616 539 l 1,6,-1
 623 168 l 1,7,-1
 498 168 l 1,8,-1
 502 539 l 1,9,-1
 236 264 l 1,10,-1
 147 352 l 1,11,-1
 422 614 l 1,12,-1
 63 610 l 1,13,-1
 63 733 l 1,14,-1
 420 729 l 1,15,-1
 170 975 l 1,16,-1
 258 1065 l 1,17,-1
 502 817 l 1,18,-1
 498 1176 l 1,19,-1
 623 1176 l 1,20,-1
 616 813 l 1,21,-1
 860 1065 l 1,22,-1
 948 975 l 1,23,-1
 694 729 l 1,0,-1
EndSplineSet
EndChar

StartChar: afii57459
Encoding: 65543 -1 99
Width: 528
GlyphClass: 2
Flags: W
LayerCount: 2
Fore
SplineSet
-23 207 m 1,0,1
 322 207 322 207 459 389 c 1,2,3
 459 524 459 524 387 602 c 1,4,5
 377 496 377 496 360 453 c 1,6,7
 324 395 324 395 233 395 c 0,8,9
 98 395 98 395 98 608 c 0,10,11
 98 692 98 692 150 795 c 0,12,13
 207 909 207 909 281 909 c 0,14,15
 399 909 399 909 477 752 c 0,16,17
 545 618 545 618 545 479 c 0,18,19
 545 295 545 295 467 207 c 1,20,21
 401 121 401 121 219 53 c 0,22,23
 84 0 84 0 0 0 c 2,24,-1
 -23 0 l 1,25,-1
 -23 207 l 1,0,1
195 602 m 1,26,-1
 219 600 l 1,27,28
 311 600 311 600 334 641 c 1,29,30
 289 692 289 692 262 692 c 1,31,32
 182 655 182 655 182 612 c 1,33,-1
 195 602 l 1,26,-1
EndSplineSet
EndChar

StartChar: afii57543
Encoding: 65544 -1 100
Width: 500
Flags: W
LayerCount: 2
Fore
SplineSet
-18 207 m 1,0,1
 33 205 33 205 131 248 c 128,-1,2
 229 291 229 291 248 291 c 0,3,4
 285 291 285 291 376 249 c 128,-1,5
 467 207 467 207 522 207 c 1,6,-1
 522 0 l 1,7,8
 459 0 459 0 370 46 c 128,-1,9
 281 92 281 92 248 92 c 0,10,11
 233 92 233 92 145 46 c 128,-1,12
 57 0 57 0 0 0 c 2,13,-1
 -18 0 l 1,14,-1
 -18 207 l 1,0,1
EndSplineSet
EndChar

StartChar: afii57534
Encoding: 1749 1749 101
Width: 590
GlyphClass: 2
Flags: W
LayerCount: 2
Fore
SplineSet
74 203 m 0,0,1
 74 285 74 285 145 467 c 1,2,3
 223 645 223 645 279 709 c 1,4,5
 412 639 412 639 469 584 c 0,6,7
 547 504 547 504 547 377 c 0,8,9
 547 143 547 143 387 43 c 1,10,11
 375 23 375 23 315.5 12.5 c 128,-1,12
 256 2 256 2 223 2 c 0,13,14
 152 2 152 2 109 68 c 0,15,16
 74 129 74 129 74 203 c 0,0,1
199 295 m 0,17,18
 199 272 199 272 226.5 247.5 c 128,-1,19
 254 223 254 223 270 223 c 2,20,-1
 301 223 l 2,21,22
 399 223 399 223 428 264 c 1,23,24
 428 338 428 338 377 394.5 c 128,-1,25
 326 451 326 451 262 463 c 1,26,27
 199 354 199 354 199 295 c 0,17,18
EndSplineSet
EndChar

StartChar: afii64240
Encoding: 65546 -1 103
Width: 307
Flags: W
LayerCount: 2
Fore
SplineSet
46 86 m 1,0,1
 91 244 91 244 140 252 c 1,2,3
 171 248 171 248 222 219 c 0,4,5
 286 178 286 178 286 149 c 0,6,7
 286 127 286 127 265 72 c 0,8,9
 245 22 245 22 222 2 c 1,10,-1
 212 2 l 2,11,12
 173 2 173 2 118 29 c 1,13,14
 46 51 46 51 46 86 c 1,0,1
EndSplineSet
EndChar

StartChar: afii64241
Encoding: 65547 -1 104
Width: 566
Flags: W
LayerCount: 2
Fore
SplineSet
315 209 m 1,0,1
 362 346 362 346 401 360 c 1,2,3
 436 342 436 342 477 315 c 1,4,5
 520 280 520 280 536 252 c 1,6,7
 505 94 505 94 448 94 c 0,8,9
 427 94 427 94 372 137 c 1,10,11
 329 182 329 182 315 209 c 1,0,1
75 117 m 0,12,13
 75 164 75 164 149 270 c 1,14,15
 262 192 262 192 294 160 c 1,16,-1
 294 153 l 2,17,18
 294 117 294 117 274 65 c 0,19,20
 251 10 251 10 229 10 c 0,21,22
 204 10 204 10 139.5 52 c 128,-1,23
 75 94 75 94 75 117 c 0,12,13
EndSplineSet
EndChar

StartChar: afii63954
Encoding: 65548 -1 105
Width: 585
Flags: W
LayerCount: 2
Fore
SplineSet
56 86 m 1,0,1
 56 129 56 129 84 195 c 0,2,3
 117 281 117 281 139 281 c 0,4,5
 154 281 154 281 205 248 c 0,6,7
 266 209 266 209 266 180 c 0,8,9
 266 152 266 152 246 84 c 0,10,11
 219 4 219 4 191 4 c 0,12,13
 170 4 170 4 56 86 c 1,0,1
377 322 m 1,14,15
 514 273 514 273 522 195 c 1,16,17
 479 35 479 35 447 35 c 0,18,19
 414 35 414 35 363 83 c 128,-1,20
 312 131 312 131 312 158 c 1,21,-1
 377 322 l 1,14,15
142 391 m 0,22,23
 142 434 142 434 197 531 c 1,24,25
 197 553 197 553 219 553 c 0,26,27
 248 553 248 553 297 522 c 0,28,29
 355 483 355 483 355 447 c 0,30,31
 355 420 355 420 287 279 c 1,32,-1
 273 279 l 1,33,34
 142 369 142 369 142 391 c 0,22,23
EndSplineSet
EndChar

StartChar: afii57382
Encoding: 65549 -1 106
Width: 552
Flags: W
LayerCount: 2
Fore
SplineSet
522 -81 m 1,0,1
 522 -124 522 -124 494 -190 c 0,2,3
 461 -276 461 -276 439 -276 c 0,4,5
 424 -276 424 -276 373 -243 c 0,6,7
 312 -204 312 -204 312 -175 c 0,8,9
 312 -147 312 -147 332 -79 c 0,10,11
 359 1 359 1 387 1 c 0,12,13
 408 1 408 1 522 -81 c 1,0,1
201 -317 m 1,14,15
 64 -268 64 -268 56 -190 c 1,16,17
 99 -30 99 -30 131 -30 c 0,18,19
 164 -30 164 -30 215 -78 c 128,-1,20
 266 -126 266 -126 266 -153 c 1,21,-1
 201 -317 l 1,14,15
436 -386 m 0,22,23
 436 -429 436 -429 381 -526 c 1,24,25
 381 -548 381 -548 359 -548 c 0,26,27
 330 -548 330 -548 281 -517 c 0,28,29
 223 -478 223 -478 223 -442 c 0,30,31
 223 -415 223 -415 291 -274 c 1,32,-1
 305 -274 l 1,33,34
 436 -364 436 -364 436 -386 c 0,22,23
EndSplineSet
EndChar

StartChar: afii64242
Encoding: 65550 -1 107
Width: 354
Flags: W
LayerCount: 2
Fore
SplineSet
-18 207 m 1,0,1
 121 205 121 205 139 266 c 1,2,3
 133 291 133 291 90 360 c 0,4,5
 53 418 53 418 47 457 c 1,6,7
 70 522 70 522 102 602 c 1,8,-1
 111 602 l 2,9,10
 156 602 156 602 197 473 c 1,11,12
 240 360 240 360 240 295 c 0,13,14
 240 154 240 154 195 84 c 0,15,16
 141 0 141 0 10 0 c 2,17,-1
 -18 0 l 1,18,-1
 -18 207 l 1,0,1
EndSplineSet
EndChar

StartChar: afii57373
Encoding: 65551 -1 112
Width: 0
Flags: W
LayerCount: 2
Fore
SplineSet
289 967 m 1,0,1
 352 1186 352 1186 477 1186 c 0,2,3
 512 1186 512 1186 537 1157 c 1,4,-1
 545 1128 l 1,5,6
 545 1079 545 1079 535 1057 c 1,7,-1
 518 1036 l 1,8,9
 508 1036 508 1036 494 1032 c 1,10,11
 477 1036 477 1036 467 1032 c 1,12,13
 457 1057 457 1057 453 1063 c 1,14,15
 377 1057 377 1057 373 1022 c 1,16,17
 406 983 406 983 436 975 c 0,18,19
 446 969 446 969 518 952 c 1,20,21
 629 1008 629 1008 692 1053 c 1,22,23
 702 1053 702 1053 702 1036 c 0,24,25
 702 944 702 944 563 868 c 0,26,27
 467 813 467 813 365 758 c 1,28,-1
 338 752 l 1,29,30
 307 758 307 758 307 766 c 0,31,32
 307 791 307 791 401 872 c 1,33,34
 342 883 342 883 326.5 896 c 128,-1,35
 311 909 311 909 289 967 c 1,0,1
EndSplineSet
EndChar

StartChar: afii57374
Encoding: 65552 -1 113
Width: 678
GlyphClass: 2
Flags: W
LayerCount: 2
Fore
SplineSet
-18 207 m 1,0,1
 47 207 47 207 168 268 c 1,2,3
 162 313 162 313 162 330 c 0,4,5
 162 473 162 473 233 602 c 1,6,7
 317 745 317 745 451 745 c 0,8,9
 494 745 494 745 518 670 c 0,10,11
 537 612 537 612 537 555 c 0,12,13
 537 381 537 381 418 248 c 1,14,15
 459 225 459 225 557 211 c 1,16,17
 641 205 641 205 696 207 c 1,18,-1
 696 0 l 1,19,20
 373 -6 373 -6 262 111 c 1,21,22
 111 0 111 0 0 0 c 2,23,-1
 -18 0 l 1,24,-1
 -18 207 l 1,0,1
248 406 m 1,25,26
 248 387 248 387 324 311 c 1,27,28
 399 365 399 365 436 401 c 1,29,30
 436 485 436 485 389 555 c 1,31,32
 295 518 295 518 248 406 c 1,25,26
EndSplineSet
EndChar

StartChar: afii57375
Encoding: 1619 1619 114
Width: 965
GlyphClass: 2
Flags: W
LayerCount: 2
Fore
SplineSet
-43 1567 m 0,0,1
 -43 1595 -43 1595 29.5 1700.5 c 128,-1,2
 102 1806 102 1806 127 1819 c 1,3,4
 242 1765 242 1765 289 1753 c 0,5,6
 362 1729 362 1729 455 1729 c 0,7,8
 758 1729 758 1729 965 1917 c 1,9,10
 985 1917 985 1917 985 1886 c 0,11,12
 985 1763 985 1763 766 1657 c 0,13,14
 588 1573 588 1573 375 1573 c 0,15,16
 135 1573 135 1573 82 1642 c 1,17,18
 8 1571 8 1571 -14 1530 c 1,19,-1
 -25 1528 l 1,20,21
 -43 1546 -43 1546 -43 1567 c 0,0,1
EndSplineSet
EndChar

StartChar: afii57391
Encoding: 59450 59450 115
Width: 1024
GlyphClass: 2
Flags: W
LayerCount: 2
Fore
SplineSet
1024 0 m 1,0,-1
 -70 0 l 1,1,-1
 -70 188 l 1,2,-1
 1024 188 l 1,3,-1
 1024 0 l 1,0,-1
EndSplineSet
EndChar

StartChar: afii57471
Encoding: 65553 -1 116
Width: 1870
Flags: W
LayerCount: 2
Fore
SplineSet
49 272 m 0,0,1
 49 373 49 373 119 524 c 1,2,-1
 178 580 l 1,3,-1
 182 563 l 2,4,5
 182 555 182 555 176 528 c 1,6,7
 164 502 164 502 164 500 c 0,8,9
 156 457 156 457 156 401 c 0,10,11
 156 381 156 381 164 365 c 0,12,13
 248 121 248 121 715 121 c 0,14,15
 1276 121 1276 121 1599 295 c 0,16,17
 1638 313 1638 313 1649 352 c 0,18,19
 1657 373 1657 373 1659 387 c 1,20,21
 1671 406 1671 406 1686 414 c 1,22,23
 1708 399 1708 399 1708 344 c 0,24,25
 1708 338 1708 338 1686 260 c 1,26,27
 1755 207 1755 207 1892 207 c 1,28,-1
 1892 0 l 1,29,30
 1804 0 1804 0 1743 57 c 0,31,32
 1726 72 1726 72 1640 188 c 1,33,34
 1544 72 1544 72 1493 53 c 0,35,36
 1055 -102 1055 -102 655 -102 c 0,37,38
 424 -102 424 -102 262 -27 c 0,39,40
 49 72 49 72 49 272 c 0,0,1
EndSplineSet
EndChar

StartChar: afii52258
Encoding: 65554 -1 117
Width: 2013
GlyphClass: 2
Flags: W
LayerCount: 2
Fore
SplineSet
43 289 m 0,0,1
 43 352 43 352 90 467 c 0,2,3
 141 586 141 586 184 592 c 1,4,-1
 195 580 l 1,5,6
 184 555 184 555 162 477 c 0,7,8
 141 408 141 408 141 373 c 0,9,10
 141 207 141 207 387 133 c 0,11,12
 537 84 537 84 764 84 c 0,13,14
 1247 84 1247 84 1571 233 c 1,15,16
 1554 285 1554 285 1554 334 c 0,17,18
 1554 451 1554 451 1640 600 c 0,19,20
 1735 766 1735 766 1833 766 c 0,21,22
 1905 766 1905 766 1931 639 c 1,23,24
 1952 557 1952 557 1952 457 c 0,25,26
 1952 338 1952 338 1860 225 c 1,27,28
 1921 197 1921 197 2036 207 c 1,29,-1
 2036 0 l 1,30,31
 1833 0 1833 0 1698 90 c 1,32,-1
 1532 4 l 2,33,34
 1247 -141 1247 -141 664 -141 c 0,35,36
 428 -141 428 -141 254 -47 c 0,37,38
 43 72 43 72 43 289 c 0,0,1
1636 387 m 1,39,40
 1636 365 1636 365 1671 330 c 0,41,42
 1686 317 1686 317 1720 289 c 1,43,44
 1831 344 1831 344 1853 387 c 1,45,46
 1853 467 1853 467 1804 528 c 1,47,48
 1726 528 1726 528 1636 387 c 1,39,40
EndSplineSet
EndChar

StartChar: afii62889
Encoding: 65555 -1 123
Width: 1290
Flags: W
LayerCount: 2
Fore
SplineSet
47 -360 m 0,0,1
 47 -225 47 -225 70 -94 c 1,2,3
 98 111 98 111 154 111 c 1,4,-1
 156 106 l 2,5,6
 162 92 162 92 162 78 c 0,7,8
 162 47 162 47 150.5 -21.5 c 128,-1,9
 139 -90 139 -90 139 -121 c 0,10,11
 139 -307 139 -307 219 -414 c 0,12,13
 313 -545 313 -545 485 -545 c 0,14,15
 670 -545 670 -545 868 -451 c 0,16,17
 1075 -352 1075 -352 1155 -199 c 1,18,19
 1155 -98 1155 -98 1135 -6 c 1,20,21
 1108 -6 1108 -6 1047.5 -12 c 128,-1,22
 987 -18 987 -18 958 -18 c 0,23,24
 895 -18 895 -18 839.5 30 c 128,-1,25
 784 78 784 78 784 150 c 0,26,27
 784 254 784 254 838 373 c 0,28,29
 903 512 903 512 993 512 c 0,30,31
 1133 512 1133 512 1210 207 c 1,32,-1
 1313 207 l 1,33,-1
 1313 0 l 1,34,35
 1290 0 1290 0 1241 -4 c 1,36,37
 1241 -248 1241 -248 1149 -396.5 c 128,-1,38
 1057 -545 1057 -545 840 -655 c 0,39,40
 629 -766 629 -766 473 -766 c 0,41,42
 313 -766 313 -766 180 -644 c 128,-1,43
 47 -522 47 -522 47 -360 c 0,0,1
903 240 m 1,44,45
 944 197 944 197 965 197 c 0,46,47
 985 197 985 197 1057 205 c 1,48,49
 999 285 999 285 975 285 c 0,50,51
 915 285 915 285 903 240 c 1,44,45
EndSplineSet
EndChar

StartChar: afii62887
Encoding: 65556 -1 124
Width: 1532
Flags: W
LayerCount: 2
Fore
SplineSet
70 289 m 0,0,1
 70 338 70 338 98 430 c 1,2,3
 133 528 133 528 164 561 c 1,4,5
 176 563 176 563 182 563 c 0,6,7
 195 563 195 563 197 549 c 1,8,9
 176 436 176 436 176 389 c 0,10,11
 176 254 176 254 311 182 c 1,12,13
 408 121 408 121 561 121 c 0,14,15
 725 121 725 121 1049 205 c 1,16,17
 1423 295 1423 295 1423 395 c 0,18,19
 1423 424 1423 424 1380 485 c 1,20,21
 1343 549 1343 549 1331 578 c 1,22,23
 1348 659 1348 659 1393 745 c 1,24,25
 1530 580 1530 580 1530 453 c 0,26,27
 1530 360 1530 360 1466 217 c 1,28,29
 1325 70 1325 70 993 -23 c 1,30,31
 715 -94 715 -94 457 -94 c 0,32,33
 289 -94 289 -94 179.5 12.5 c 128,-1,34
 70 119 70 119 70 289 c 0,0,1
EndSplineSet
EndChar

StartChar: afii62888
Encoding: 1697 1697 125
Width: 1743
GlyphClass: 2
Flags: W
LayerCount: 2
Fore
SplineSet
53 295 m 0,0,1
 53 473 53 473 156 563 c 1,2,-1
 178 578 l 1,3,4
 197 578 197 578 197 545 c 0,5,6
 197 528 197 528 173.5 473 c 128,-1,7
 150 418 150 418 150 387 c 0,8,9
 150 233 150 233 322 141 c 1,10,11
 467 72 467 72 549 72 c 0,12,13
 633 72 633 72 918 106 c 1,14,15
 1083 121 1083 121 1325 197 c 1,16,17
 1620 295 1620 295 1659 387 c 1,18,19
 1659 457 1659 457 1581 535 c 1,20,-1
 1581 512 l 2,21,22
 1581 446 1581 446 1535 392 c 128,-1,23
 1489 338 1489 338 1423 338 c 0,24,25
 1348 338 1348 338 1305 428 c 0,26,27
 1276 496 1276 496 1276 580 c 0,28,29
 1276 670 1276 670 1327 768 c 1,30,31
 1397 883 1397 883 1477 883 c 1,32,-1
 1559 840 l 1,33,34
 1630 797 1630 797 1692 678 c 1,35,36
 1743 555 1743 555 1743 467 c 0,37,38
 1743 266 1743 266 1649 168 c 0,39,40
 1532 47 1532 47 1141 -63 c 0,41,42
 791 -164 791 -164 580 -164 c 0,43,44
 354 -164 354 -164 211 -49 c 0,45,46
 53 76 53 76 53 295 c 0,0,1
1397 606 m 1,47,48
 1401 584 1401 584 1401 571 c 1,49,50
 1413 549 1413 549 1460 549 c 0,51,52
 1483 549 1483 549 1493 571 c 1,53,-1
 1495 592 l 2,54,55
 1495 633 1495 633 1454 633 c 0,56,57
 1403 633 1403 633 1397 606 c 1,47,48
EndSplineSet
Substitution2: "'medi' Medial Forms in Arabic lookup 3 subtable" afii57374
Substitution2: "'fina' Terminal Forms in Arabic lookup 2 subtable" afii52258
Substitution2: "'init' Initial Forms in Arabic lookup 1 subtable" afii57459
EndChar

StartChar: afii57567
Encoding: 1705 1705 132
Width: 1108
GlyphClass: 2
Flags: W
AnchorPoint: "Anchor-1" 600 -630 basechar 0
AnchorPoint: "Anchor-0" 495 1365 basechar 0
LayerCount: 2
Fore
SplineSet
903 1266 m 1,0,1
 965 1343 965 1343 995 1378 c 0,2,3
 1112 1507 1112 1507 1477 1724 c 1,4,5
 1882 1942 1882 1942 2140 2068 c 1,6,-1
 2146 2064 l 1,7,-1
 2146 2042 l 1,8,9
 2114 1905 2114 1905 1931 1786 c 1,10,-1
 1163 1352 l 1,11,12
 1075 1317 1075 1317 987 1284 c 1,13,-1
 985 1280 l 1,14,-1
 993 1270 l 1,15,16
 967 1223 967 1223 962.5 1145 c 128,-1,17
 958 1067 958 1067 969 1016 c 0,18,19
 985 958 985 958 987 928 c 1,20,21
 1008 895 1008 895 1008 885 c 2,22,-1
 1008 877 l 1,23,24
 1157 387 1157 387 1157 248 c 0,25,26
 1157 242 1157 242 1128 121 c 1,27,28
 1102 33 1102 33 944 -4 c 0,29,30
 881 -18 881 -18 705 -29 c 0,31,32
 387 -53 387 -53 76 -57 c 1,33,-1
 72 -23 l 1,34,35
 72 164 72 164 113 182 c 1,36,37
 176 162 176 162 344 162 c 0,38,39
 571 162 571 162 1057 262 c 1,40,41
 1057 381 1057 381 903 920 c 1,42,43
 874 932 874 932 860 993 c 1,44,45
 840 1042 840 1042 840 1081 c 0,46,47
 840 1174 840 1174 936 1255 c 0,48,49
 946 1266 946 1266 956 1274 c 1,50,51
 942 1270 942 1270 930 1266 c 1,52,-1
 903 1266 l 1,53,-1
 903 1266 l 1,0,1
EndSplineSet
Substitution2: "'medi' Medial Forms in Arabic lookup 3 subtable" afii52306
Substitution2: "'fina' Terminal Forms in Arabic lookup 2 subtable" afii62964
Substitution2: "'init' Initial Forms in Arabic lookup 1 subtable" afii52305
EndChar

StartChar: afii62964
Encoding: 64399 64399 133
Width: 1671
GlyphClass: 2
Flags: W
AnchorPoint: "Anchor-1" 615 -720 basechar 0
AnchorPoint: "Anchor-0" 615 1320 basechar 0
LayerCount: 2
Fore
SplineSet
1366 1282 m 1,0,1
 1425 1358 1425 1358 1458 1395 c 0,2,3
 1575 1524 1575 1524 1937 1739 c 1,4,5
 2343 1958 2343 1958 2601 2085 c 1,6,-1
 2609 2079 l 1,7,-1
 2609 2056 l 1,8,9
 2574 1919 2574 1919 2392 1802 c 1,10,-1
 1624 1368 l 1,11,12
 1509 1323 1509 1323 1393 1282 c 1,13,-1
 1384 1282 l 1,14,15
 1405 1040 1405 1040 1493 528 c 1,16,17
 1581 195 1581 195 1692 207 c 1,18,-1
 1692 0 l 1,19,20
 1552 0 1552 0 1483 154 c 1,21,22
 1446 225 1446 225 1413 428 c 1,23,24
 1339 246 1339 246 1276 195 c 0,25,26
 1128 63 1128 63 910 -17.5 c 128,-1,27
 692 -98 692 -98 500 -98 c 0,28,29
 295 -98 295 -98 178 -4 c 0,30,31
 47 98 47 98 47 291 c 0,32,33
 47 387 47 387 84 494 c 0,34,35
 133 627 133 627 197 651 c 1,36,37
 141 485 141 485 141 401 c 0,38,39
 141 344 141 344 182 285 c 1,40,41
 289 111 289 111 524 111 c 0,42,43
 678 111 678 111 936 207 c 1,44,45
 1200 311 1200 311 1298 408 c 0,46,47
 1325 430 1325 430 1339 485 c 2,48,-1
 1356 571 l 1,49,-1
 1307 1032 l 1,50,51
 1307 1079 1307 1079 1315 1126 c 0,52,53
 1321 1165 1321 1165 1384 1282 c 1,54,-1
 1366 1282 l 1,55,-1
 1366 1282 l 1,0,1
EndSplineSet
EndChar

StartChar: afii52305
Encoding: 64400 64400 134
Width: 641
GlyphClass: 2
Flags: W
AnchorPoint: "Anchor-1" 270 -555 basechar 0
AnchorPoint: "Anchor-0" -30 1695 basechar 0
LayerCount: 2
Fore
SplineSet
-317 1073 m 1,0,1
 -311 1114 -311 1114 -283 1151 c 1,2,3
 -119 1321 -119 1321 78 1427 c 0,4,5
 1036 1960 1036 1960 1194 2036 c 1,6,-1
 1200 2032 l 1,7,-1
 1200 2009 l 1,8,9
 1169 1855 1169 1855 985 1749 c 0,10,11
 922 1710 922 1710 764 1630 c 0,12,13
 618 1554 618 1554 537 1501 c 0,14,15
 387 1403 387 1403 313 1360 c 0,16,17
 184 1290 184 1290 53 1212 c 1,18,19
 -98 1128 -98 1128 -182 1040 c 1,20,21
 53 936 53 936 219 774 c 1,22,23
 436 580 436 580 436 373 c 0,24,25
 436 229 436 229 289 111 c 0,26,27
 150 0 150 0 0 0 c 2,28,-1
 -23 0 l 1,29,-1
 -23 207 l 1,30,31
 78 207 78 207 197 260 c 0,32,33
 338 322 338 322 338 406 c 0,34,35
 338 473 338 473 135 627 c 0,36,37
 -49 768 -49 768 -141 791 c 1,38,-1
 -195 768 l 1,39,40
 -317 831 -317 831 -317 985 c 2,41,-1
 -317 1073 l 1,0,1
EndSplineSet
EndChar

StartChar: afii52306
Encoding: 64401 64401 135
Width: 1413
GlyphClass: 2
Flags: W
AnchorPoint: "Anchor-1" 435 -600 basechar 0
AnchorPoint: "Anchor-0" 360 1650 basechar 0
LayerCount: 2
Fore
SplineSet
-133 1004 m 0,0,1
 -133 1073 -133 1073 -98 1102 c 0,2,3
 70 1243 70 1243 334 1403 c 1,4,5
 563 1536 563 1536 791 1671 c 0,6,7
 1057 1827 1057 1827 1487 2122 c 1,8,9
 1526 2120 1526 2120 1526 2079 c 0,10,11
 1526 2062 1526 2062 1487 1931 c 1,12,13
 1061 1663 1061 1663 854 1524 c 1,14,15
 375 1225 375 1225 367 1225 c 1,16,17
 92 1061 92 1061 72 1049 c 1,18,19
 106 999 106 999 260 918 c 2,20,-1
 715 678 l 2,21,22
 817 627 817 627 995 485 c 1,23,24
 1122 377 1122 377 1260 268 c 0,25,26
 1333 211 1333 211 1373 204 c 128,-1,27
 1413 197 1413 197 1434 197 c 1,28,-1
 1434 0 l 1,29,30
 1298 -6 1298 -6 1243 33 c 0,31,32
 1079 162 1079 162 999 225 c 0,33,34
 678 477 678 477 592 528 c 1,35,36
 600 508 600 508 613.5 458 c 128,-1,37
 627 408 627 408 627 387 c 0,38,39
 627 377 627 377 618 307 c 1,40,41
 610 168 610 168 473 78 c 0,42,43
 354 0 354 0 8 0 c 2,44,-1
 -14 0 l 1,45,-1
 -14 207 l 1,46,47
 424 207 424 207 545 360 c 1,48,49
 545 436 545 436 397 555 c 0,50,51
 313 627 313 627 102 766 c 0,52,53
 -90 891 -90 891 -127 930 c 1,54,55
 -127 944 -127 944 -131 969 c 0,56,57
 -133 987 -133 987 -133 1004 c 0,0,1
EndSplineSet
EndChar

StartChar: afii57509
Encoding: 1711 1711 136
Width: 1108
GlyphClass: 2
Flags: W
AnchorPoint: "Anchor-1" 600 -585 basechar 0
AnchorPoint: "Anchor-0" 375 1290 basechar 0
LayerCount: 2
Fore
SplineSet
903 1266 m 1,0,1
 965 1343 965 1343 995 1378 c 0,2,3
 1112 1507 1112 1507 1477 1724 c 1,4,5
 1882 1942 1882 1942 2140 2068 c 1,6,-1
 2146 2064 l 1,7,-1
 2146 2042 l 1,8,9
 2114 1905 2114 1905 1931 1786 c 1,10,-1
 1163 1352 l 1,11,12
 1075 1317 1075 1317 987 1284 c 1,13,-1
 985 1280 l 1,14,-1
 993 1270 l 1,15,16
 967 1223 967 1223 962.5 1145 c 128,-1,17
 958 1067 958 1067 969 1016 c 0,18,19
 985 958 985 958 987 928 c 1,20,21
 1008 895 1008 895 1008 885 c 2,22,-1
 1008 877 l 1,23,24
 1157 387 1157 387 1157 248 c 0,25,26
 1157 242 1157 242 1128 121 c 1,27,28
 1102 33 1102 33 944 -4 c 0,29,30
 881 -18 881 -18 705 -29 c 0,31,32
 387 -53 387 -53 76 -57 c 1,33,-1
 72 -23 l 1,34,35
 72 164 72 164 113 182 c 1,36,37
 176 162 176 162 344 162 c 0,38,39
 571 162 571 162 1057 262 c 1,40,41
 1057 381 1057 381 903 920 c 1,42,43
 874 932 874 932 860 993 c 1,44,45
 840 1042 840 1042 840 1081 c 0,46,47
 840 1174 840 1174 936 1255 c 0,48,49
 946 1266 946 1266 956 1274 c 1,50,51
 942 1270 942 1270 930 1266 c 1,52,-1
 903 1266 l 1,0,1
1036 1690 m 1,53,54
 1036 1712 1036 1712 1065 1743 c 0,55,56
 1077 1759 1077 1759 1106 1796 c 1,57,58
 1219 1913 1219 1913 1753 2154 c 0,59,60
 1759 2154 1759 2154 1774 2161 c 0,61,62
 1780 2161 1780 2161 1796 2154 c 1,63,-1
 1796 2138 l 1,64,65
 1739 2052 1739 2052 1710 2013 c 1,66,-1
 1292 1823 l 1,67,68
 1126 1731 1126 1731 1049 1679 c 1,69,-1
 1036 1690 l 1,53,54
EndSplineSet
Substitution2: "'medi' Medial Forms in Arabic lookup 3 subtable" afii62966
Substitution2: "'fina' Terminal Forms in Arabic lookup 2 subtable" afii62967
Substitution2: "'init' Initial Forms in Arabic lookup 1 subtable" afii62965
EndChar

StartChar: afii62967
Encoding: 64403 64403 137
Width: 1671
GlyphClass: 2
Flags: W
AnchorPoint: "Anchor-1" 750 -660 basechar 0
AnchorPoint: "Anchor-0" 570 1335 basechar 0
LayerCount: 2
Fore
SplineSet
1366 1282 m 1,0,1
 1425 1358 1425 1358 1458 1395 c 0,2,3
 1575 1524 1575 1524 1937 1739 c 1,4,5
 2343 1958 2343 1958 2601 2085 c 1,6,-1
 2609 2079 l 1,7,-1
 2609 2056 l 1,8,9
 2574 1919 2574 1919 2392 1802 c 1,10,-1
 1624 1368 l 1,11,12
 1509 1323 1509 1323 1393 1282 c 1,13,-1
 1384 1282 l 1,14,15
 1405 1040 1405 1040 1493 528 c 1,16,17
 1581 195 1581 195 1692 207 c 1,18,-1
 1692 0 l 1,19,20
 1552 0 1552 0 1483 154 c 1,21,22
 1446 225 1446 225 1413 428 c 1,23,24
 1339 246 1339 246 1276 195 c 0,25,26
 1128 63 1128 63 910 -17.5 c 128,-1,27
 692 -98 692 -98 500 -98 c 0,28,29
 295 -98 295 -98 178 -4 c 0,30,31
 47 98 47 98 47 291 c 0,32,33
 47 387 47 387 84 494 c 0,34,35
 133 627 133 627 197 651 c 1,36,37
 141 485 141 485 141 401 c 0,38,39
 141 344 141 344 182 285 c 1,40,41
 289 111 289 111 524 111 c 0,42,43
 678 111 678 111 936 207 c 1,44,45
 1200 311 1200 311 1298 408 c 0,46,47
 1325 430 1325 430 1339 485 c 2,48,-1
 1356 571 l 1,49,-1
 1307 1032 l 1,50,51
 1307 1079 1307 1079 1315 1126 c 0,52,53
 1321 1165 1321 1165 1384 1282 c 1,54,-1
 1366 1282 l 1,0,1
1499 1706 m 1,55,56
 1499 1729 1499 1729 1528 1759 c 1,57,58
 1538 1776 1538 1776 1569 1810 c 0,59,60
 1681 1929 1681 1929 2214 2169 c 0,61,62
 2222 2169 2222 2169 2234 2177 c 0,63,64
 2241 2177 2241 2177 2257 2169 c 1,65,-1
 2257 2154 l 1,66,67
 2202 2068 2202 2068 2171 2030 c 1,68,-1
 1755 1839 l 1,69,70
 1589 1747 1589 1747 1509 1694 c 1,71,-1
 1499 1706 l 1,55,56
EndSplineSet
EndChar

StartChar: afii62965
Encoding: 64404 64404 138
Width: 641
GlyphClass: 2
Flags: W
AnchorPoint: "Anchor-1" 300 -570 basechar 0
AnchorPoint: "Anchor-0" -15 1905 basechar 0
LayerCount: 2
Fore
SplineSet
-332 985 m 0,0,1
 -332 1061 -332 1061 -328 1073 c 0,2,3
 -322 1114 -322 1114 -291 1151 c 0,4,5
 -133 1321 -133 1321 70 1427 c 1,6,7
 1026 1960 1026 1960 1180 2036 c 1,8,-1
 1190 2032 l 1,9,-1
 1190 2009 l 1,10,11
 1155 1855 1155 1855 975 1749 c 0,12,13
 909 1710 909 1710 745 1630 c 1,14,15
 602 1554 602 1554 524 1501 c 0,16,17
 373 1403 373 1403 299 1360 c 0,18,19
 176 1290 176 1290 43 1212 c 1,20,21
 -111 1128 -111 1128 -195 1040 c 1,22,23
 43 936 43 936 207 774 c 1,24,25
 424 580 424 580 424 373 c 0,26,27
 424 229 424 229 272 111 c 0,28,29
 135 0 135 0 -16 0 c 2,30,-1
 -35 0 l 1,31,-1
 -35 207 l 1,32,33
 72 207 72 207 184 260 c 1,34,35
 324 317 324 317 324 406 c 0,36,37
 324 473 324 473 121 627 c 0,38,39
 -63 768 -63 768 -158 791 c 1,40,-1
 -207 768 l 1,41,42
 -332 831 -332 831 -332 985 c 0,0,1
129 1630 m 1,43,44
 129 1653 129 1653 156 1686 c 0,45,46
 168 1706 168 1706 197 1735 c 0,47,48
 311 1860 311 1860 647 2023 c 0,49,50
 758 2077 758 2077 1112 2234 c 0,51,52
 1120 2234 1120 2234 1135 2236 c 0,53,54
 1137 2236 1137 2236 1155 2230 c 1,55,-1
 1155 2218 l 1,56,57
 1092 2128 1092 2128 1065 2091 c 1,58,-1
 909 2023 l 2,59,60
 625 1898 625 1898 387 1772 c 1,61,-1
 135 1624 l 1,62,-1
 129 1630 l 1,43,44
EndSplineSet
EndChar

StartChar: afii62966
Encoding: 64405 64405 139
Width: 1470
GlyphClass: 2
Flags: W
AnchorPoint: "Anchor-1" 405 -570 basechar 0
AnchorPoint: "Anchor-0" 300 1905 basechar 0
LayerCount: 2
Fore
SplineSet
-74 1004 m 0,0,1
 -74 1073 -74 1073 -41 1102 c 0,2,3
 129 1243 129 1243 391 1403 c 1,4,5
 623 1536 623 1536 850 1671 c 0,6,7
 1114 1827 1114 1827 1546 2122 c 1,8,9
 1583 2120 1583 2120 1583 2079 c 0,10,11
 1583 2062 1583 2062 1546 1931 c 1,12,13
 1120 1663 1120 1663 913 1524 c 1,14,15
 432 1225 432 1225 426 1225 c 0,16,17
 152 1061 152 1061 131 1049 c 1,18,19
 164 999 164 999 317 918 c 2,20,-1
 772 678 l 2,21,22
 877 627 877 627 1055 485 c 1,23,24
 1180 377 1180 377 1317 268 c 0,25,26
 1393 211 1393 211 1431.5 204 c 128,-1,27
 1470 197 1470 197 1491 197 c 1,28,-1
 1491 0 l 1,29,30
 1356 -6 1356 -6 1303 33 c 0,31,32
 1137 162 1137 162 1059 225 c 0,33,34
 737 477 737 477 651 528 c 1,35,36
 657 508 657 508 670.5 458 c 128,-1,37
 684 408 684 408 684 387 c 0,38,39
 684 377 684 377 678 307 c 0,40,41
 670 168 670 168 532 78 c 0,42,43
 412 0 412 0 2 0 c 2,44,-1
 -16 0 l 1,45,-1
 -16 207 l 1,46,47
 481 207 481 207 604 360 c 1,48,49
 604 436 604 436 455 555 c 1,50,51
 373 627 373 627 160 766 c 0,52,53
 -31 891 -31 891 -68 930 c 1,54,55
 -68 944 -68 944 -72 969 c 0,56,57
 -74 987 -74 987 -74 1004 c 0,0,1
721 1716 m 1,58,59
 721 1739 721 1739 750 1772 c 0,60,61
 762 1786 762 1786 791 1823 c 1,62,-1
 1438 2253 l 2,63,64
 1444 2253 1444 2253 1458 2259 c 0,65,66
 1464 2259 1464 2259 1481 2253 c 1,67,-1
 1481 2236 l 1,68,69
 1423 2150 1423 2150 1395 2114 c 1,70,71
 811 1757 811 1757 733 1706 c 1,72,-1
 721 1716 l 1,58,59
EndSplineSet
EndChar

StartChar: afii57555
Encoding: 1740 1740 140
Width: 1147
GlyphClass: 2
Flags: W
AnchorPoint: "Anchor-1" -465 -1650 basechar 0
AnchorPoint: "Anchor-0" 105 855 basechar 0
LayerCount: 2
Fore
SplineSet
-2839 -451 m 0,0,1
 -2839 -428 -2839 -428 -2812 -428 c 0,2,3
 -2777 -428 -2777 -428 -2701 -473 c 0,4,5
 -1995 -909 -1995 -909 -868 -909 c 0,6,7
 -178 -909 -178 -909 477 -670 c 0,8,9
 592 -627 592 -627 715 -530 c 1,10,11
 817 -436 817 -436 922 -344 c 1,12,-1
 930 -332 l 1,13,14
 930 -301 930 -301 803 -283 c 1,15,16
 733 -268 733 -268 655 -262 c 1,17,18
 606 -254 606 -254 545 -211 c 1,19,20
 477 -170 477 -170 473 -121 c 1,21,-1
 473 -43 l 2,22,23
 473 150 473 150 646 378 c 128,-1,24
 819 606 819 606 999 641 c 1,25,26
 1096 600 1096 600 1096 512 c 0,27,28
 1096 473 1096 473 1075 401 c 0,29,30
 1049 324 1049 324 1010 317 c 1,31,32
 930 399 930 399 905 399 c 0,33,34
 840 399 840 399 705.5 248.5 c 128,-1,35
 571 98 571 98 571 29 c 0,36,37
 571 6 571 6 578 0 c 0,38,39
 651 -49 651 -49 713 -57 c 0,40,41
 915 -86 915 -86 926 -90 c 0,42,43
 1049 -127 1049 -127 1049 -246 c 0,44,45
 1049 -436 1049 -436 881 -621 c 1,46,47
 733 -774 733 -774 537 -854 c 0,48,49
 229 -975 229 -975 -158 -1057 c 0,50,51
 -561 -1143 -561 -1143 -872 -1143 c 0,52,53
 -1710 -1143 -1710 -1143 -2191 -958 c 1,54,55
 -2300 -909 -2300 -909 -2327 -897 c 1,56,57
 -2509 -774 -2509 -774 -2617 -692 c 1,58,59
 -2839 -502 -2839 -502 -2839 -451 c 0,0,1
EndSplineSet
Substitution2: "'medi' Medial Forms in Arabic lookup 3 subtable" afii62832
Substitution2: "'fina' Terminal Forms in Arabic lookup 2 subtable" afii52364
Substitution2: "'init' Initial Forms in Arabic lookup 1 subtable" uniFBFE
EndChar

StartChar: afii52364
Encoding: 64509 64509 141
Width: 682
GlyphClass: 2
Flags: W
AnchorPoint: "Anchor-1" -840 -1785 basechar 0
AnchorPoint: "Anchor-0" -375 570 basechar 0
LayerCount: 2
Fore
SplineSet
-3334 -477 m 1,0,1
 -3267 -512 -3267 -512 -3228 -537 c 0,2,3
 -2470 -1032 -2470 -1032 -1579 -1032 c 0,4,5
 -602 -1032 -602 -1032 -129 -835.5 c 128,-1,6
 344 -639 344 -639 414 -518 c 1,7,8
 387 -453 387 -453 266 -436 c 1,9,10
 119 -410 119 -410 92 -399 c 0,11,12
 -4 -344 -4 -344 -4 -289 c 0,13,14
 -4 -164 -4 -164 281 23 c 1,15,16
 549 207 549 207 682 207 c 2,17,-1
 702 207 l 1,18,-1
 702 0 l 1,19,20
 580 6 580 6 387 -70 c 1,21,22
 178 -141 178 -141 111 -233 c 1,23,24
 176 -248 176 -248 205 -262 c 1,25,26
 289 -272 289 -272 373 -295 c 0,27,28
 500 -328 500 -328 500 -377 c 1,29,30
 549 -549 549 -549 372 -737.5 c 128,-1,31
 195 -926 195 -926 10 -993 c 0,32,33
 -313 -1112 -313 -1112 -756 -1180 c 0,34,35
 -1171 -1247 -1171 -1247 -1536 -1247 c 0,36,37
 -1804 -1247 -1804 -1247 -2003 -1225 c 0,38,39
 -2363 -1192 -2363 -1192 -2744 -1036 c 1,40,41
 -2851 -999 -2851 -999 -2861 -987 c 1,42,43
 -2955 -936 -2955 -936 -3095 -797 c 1,44,45
 -3228 -672 -3228 -672 -3295 -571 c 0,46,47
 -3334 -518 -3334 -518 -3340 -485 c 1,48,-1
 -3334 -477 l 1,0,1
EndSplineSet
EndChar

StartChar: afii62945
Encoding: 65557 -1 147
Width: 1507
GlyphClass: 3
Flags: W
LayerCount: 2
Fore
SplineSet
18 281 m 0,0,1
 18 428 18 428 133 528 c 1,2,3
 207 602 207 602 373 682 c 1,4,-1
 377 705 l 1,5,-1
 377 819 l 1,6,7
 381 897 381 897 414 922 c 1,8,9
 428 915 428 915 459 719 c 1,10,11
 502 500 502 500 561 387 c 1,12,13
 664 207 664 207 831 207 c 2,14,-1
 846 207 l 2,15,16
 903 207 903 207 922 225 c 1,17,18
 961 248 961 248 961 313 c 0,19,20
 961 365 961 365 936 535 c 1,21,22
 838 1087 838 1087 834 1155 c 1,23,24
 850 1245 850 1245 881 1245 c 1,25,26
 883 1241 883 1241 895 1225 c 1,27,28
 1151 219 1151 219 1290 207 c 0,29,30
 1327 207 1327 207 1374 225 c 0,31,32
 1438 248 1438 248 1427 285 c 0,33,34
 1360 629 1360 629 1327 797 c 1,35,-1
 1247 1325 l 1,36,37
 1266 1423 1266 1423 1290 1427 c 1,38,39
 1313 1423 1313 1423 1325 1378 c 0,40,41
 1501 424 1501 424 1501 242 c 0,42,43
 1501 150 1501 150 1450 76 c 1,44,45
 1393 4 1393 4 1305 0 c 1,46,-1
 1280 0 l 1,47,48
 1122 6 1122 6 1026 313 c 1,49,50
 1026 229 1026 229 975 121 c 0,51,52
 918 4 918 4 846 0 c 1,53,54
 664 0 664 0 578 98 c 1,55,56
 508 164 508 164 440 360 c 1,57,58
 354 248 354 248 324 233 c 1,59,60
 268 188 268 188 156 188 c 0,61,62
 18 188 18 188 18 281 c 0,0,1
188 414 m 1,63,64
 240 408 240 408 260 408 c 0,65,66
 330 408 330 408 418 451 c 1,67,68
 399 537 399 537 387 606 c 1,69,70
 365 549 365 549 332 524.5 c 128,-1,71
 299 500 299 500 188 414 c 1,63,64
EndSplineSet
EndChar

StartChar: afii64184
Encoding: 65010 65010 148
Width: 1560
GlyphClass: 3
Flags: W
AnchorPoint: "Anchor-3" 1395 -450 baselig 0
AnchorPoint: "Anchor-2" 1230 1545 baselig 0
AnchorPoint: "Anchor-3" 915 -480 baselig 1
AnchorPoint: "Anchor-2" 795 1305 baselig 1
AnchorPoint: "Anchor-3" 360 -495 baselig 2
AnchorPoint: "Anchor-2" 150 1005 baselig 2
LayerCount: 2
Fore
SplineSet
18 281 m 0,0,1
 18 188 18 188 156 188 c 0,2,3
 268 188 268 188 324 233 c 1,4,5
 354 248 354 248 440 360 c 1,6,7
 508 164 508 164 578 98 c 1,8,9
 664 0 664 0 846 0 c 1,10,11
 918 4 918 4 975 121 c 0,12,13
 1026 229 1026 229 1026 313 c 1,14,15
 1122 6 1122 6 1280 0 c 1,16,-1
 1305 0 l 1,17,18
 1393 4 1393 4 1450 76 c 1,19,20
 1501 150 1501 150 1501 242 c 0,21,22
 1501 424 1501 424 1325 1378 c 0,23,24
 1313 1423 1313 1423 1290 1427 c 1,25,26
 1266 1423 1266 1423 1247 1325 c 1,27,-1
 1327 797 l 1,28,29
 1360 629 1360 629 1427 285 c 0,30,31
 1438 248 1438 248 1374 225 c 0,32,33
 1327 207 1327 207 1290 207 c 0,34,35
 1151 219 1151 219 895 1225 c 1,36,37
 883 1241 883 1241 881 1245 c 1,38,39
 850 1245 850 1245 834 1155 c 1,40,41
 838 1087 838 1087 936 535 c 1,42,43
 961 365 961 365 961 313 c 0,44,45
 961 248 961 248 922 225 c 1,46,47
 903 207 903 207 846 207 c 2,48,-1
 831 207 l 2,49,50
 664 207 664 207 561 387 c 1,51,52
 502 500 502 500 459 719 c 1,53,54
 428 915 428 915 414 922 c 1,55,56
 381 897 381 897 377 819 c 1,57,-1
 377 705 l 1,58,-1
 373 682 l 1,59,60
 207 602 207 602 133 528 c 1,61,62
 18 428 18 428 18 281 c 0,0,1
612 1397 m 0,63,64
 612 1352 612 1352 629 1317 c 0,65,66
 651 1268 651 1268 684 1268 c 0,67,68
 741 1268 741 1268 772 1303 c 1,69,70
 774 1313 774 1313 834 1395 c 1,71,72
 868 1350 868 1350 918 1350 c 0,73,74
 1014 1350 1014 1350 1014 1518 c 0,75,76
 1014 1595 1014 1595 999 1661 c 1,77,-1
 952 1638 l 1,78,79
 952 1483 952 1483 897 1483 c 0,80,81
 862 1483 862 1483 854 1524 c 0,82,83
 850 1563 850 1563 846 1595 c 1,84,-1
 791 1569 l 1,85,86
 784 1518 784 1518 772 1470 c 0,87,88
 758 1401 758 1401 705 1401 c 0,89,90
 670 1401 670 1401 692 1534 c 1,91,-1
 678 1534 l 2,92,93
 612 1536 612 1536 612 1397 c 0,63,64
188 414 m 1,94,95
 299 500 299 500 332 524.5 c 128,-1,96
 365 549 365 549 387 606 c 1,97,98
 399 537 399 537 418 451 c 1,99,100
 330 408 330 408 260 408 c 0,101,102
 240 408 240 408 188 414 c 1,94,95
803 1704 m 1,103,-1
 763 1616 l 1,104,105
 757 1678 757 1678 747.5 1809 c 128,-1,106
 738 1940 738 1940 705 2008 c 1,107,108
 790 2148 790 2148 795 2148 c 0,109,110
 816 2143 816 2143 824.5 2026 c 128,-1,111
 833 1909 833 1909 803 1704 c 1,103,-1
EndSplineSet
Ligature2: "'rlig' Required Ligatures in Arabic lookup 5 subtable" afii62817 afii62818 uniFC63 afii62828
Ligature2: "'rlig' Required Ligatures in Arabic lookup 5 subtable" afii62817 afii62818 afii57457 uni0670 afii62828
EndChar

StartChar: afii57415.001
Encoding: 1575 1575 162
Width: 420
GlyphClass: 2
Flags: W
AnchorPoint: "Anchor-1" 285 -405 basechar 0
AnchorPoint: "Anchor-0" 150 1515 basechar 0
LayerCount: 2
Fore
SplineSet
106 1249 m 0,0,1
 131 1411 131 1411 186 1456 c 1,2,3
 195 1446 195 1446 201 1442 c 1,4,5
 227 1303 227 1303 263 992.5 c 128,-1,6
 299 682 299 682 323.5 434 c 128,-1,7
 348 186 348 186 348 172 c 0,8,9
 348 143 348 143 333.5 80.5 c 128,-1,10
 319 18 319 18 274 -4 c 1,11,12
 242 250 242 250 210.5 501 c 128,-1,13
 179 752 179 752 142.5 995.5 c 128,-1,14
 106 1239 106 1239 106 1249 c 0,0,1
EndSplineSet
Substitution2: "'fina' Terminal Forms in Arabic lookup 2 subtable" afii62760
EndChar

StartChar: afii62760.001
Encoding: 65558 -1 163
Width: 457
GlyphClass: 2
Flags: W
LayerCount: 2
Fore
SplineSet
61 1264 m 1,0,1
 90 1427 90 1427 102 1468 c 1,2,3
 129 1444 129 1444 139 1382 c 1,4,5
 152 1354 152 1354 158 1292 c 0,6,7
 260 545 260 545 262 512 c 0,8,9
 291 317 291 317 307 291 c 0,10,11
 352 207 352 207 479 207 c 1,12,-1
 479 0 l 1,13,14
 299 0 299 0 260 70 c 1,15,16
 229 113 229 113 197 266 c 1,17,18
 188 334 188 334 168 477 c 0,19,20
 96 1083 96 1083 61 1264 c 1,0,1
EndSplineSet
EndChar

StartChar: afii57421
Encoding: 1581 1581 182
Width: 1267
GlyphClass: 2
Flags: W
AnchorPoint: "Anchor-1" 750 -1770 basechar 0
AnchorPoint: "Anchor-0" 450 1020 basechar 0
LayerCount: 2
Fore
SplineSet
-6 473 m 0,0,1
 -6 479 -6 479 18 528 c 0,2,3
 111 702 111 702 344 702 c 0,4,5
 408 702 408 702 536 690 c 128,-1,6
 664 678 664 678 725 678 c 0,7,8
 772 678 772 678 876.5 696.5 c 128,-1,9
 981 715 981 715 1026 715 c 0,10,11
 1122 715 1122 715 1147 696 c 1,12,13
 1108 592 1108 592 1083 518 c 1,14,15
 1057 508 1057 508 868 440 c 0,16,17
 737 395 737 395 655 344 c 0,18,19
 225 92 225 92 225 -381 c 0,20,21
 225 -975 225 -975 1010 -975 c 0,22,23
 1122 -975 1122 -975 1454 -922 c 0,24,25
 1567 -905 1567 -905 1735 -905 c 0,26,27
 1743 -905 1743 -905 1761 -909 c 1,28,-1
 1772 -926 l 1,29,-1
 1755 -946 l 1,30,31
 1507 -1083 1507 -1083 1343 -1135 c 1,32,33
 1122 -1214 1122 -1214 895 -1214 c 0,34,35
 139 -1214 139 -1214 139 -473 c 0,36,37
 139 -164 139 -164 241.5 54 c 128,-1,38
 344 272 344 272 580 473 c 1,39,-1
 557 477 l 1,40,41
 365 477 365 477 184 430 c 0,42,43
 70 401 70 401 6 401 c 1,44,45
 -6 451 -6 451 -6 473 c 0,0,1
EndSplineSet
Substitution2: "'medi' Medial Forms in Arabic lookup 3 subtable" afii62775
Substitution2: "'fina' Terminal Forms in Arabic lookup 2 subtable" afii62776
Substitution2: "'init' Initial Forms in Arabic lookup 1 subtable" afii62774
EndChar

StartChar: afii62776
Encoding: 65186 65186 183
Width: 1180
GlyphClass: 2
Flags: W
AnchorPoint: "Anchor-1" 780 -1890 basechar 0
AnchorPoint: "Anchor-0" 435 1080 basechar 0
LayerCount: 2
Fore
SplineSet
-4 365 m 1,0,1
 37 494 37 494 93.5 539 c 128,-1,2
 150 584 150 584 285 606 c 0,3,4
 344 618 344 618 387 618 c 0,5,6
 418 618 418 618 490.5 609 c 128,-1,7
 563 600 563 600 602 600 c 0,8,9
 791 600 791 600 1106 629 c 0,10,11
 1151 633 1151 633 1151 592 c 0,12,13
 1151 578 1151 578 1085 436 c 1,14,-1
 936 373 l 1,15,16
 930 285 930 285 930 291 c 1,17,18
 932 219 932 219 1032 211 c 0,19,20
 1155 205 1155 205 1200 207 c 1,21,-1
 1200 0 l 1,22,23
 872 0 872 0 872 266 c 0,24,25
 872 285 872 285 874 311 c 1,26,27
 881 338 881 338 881 352 c 1,28,29
 629 248 629 248 518 156 c 0,30,31
 367 33 367 33 289 -184 c 0,32,33
 242 -313 242 -313 242 -467 c 0,34,35
 242 -1061 242 -1061 1030 -1061 c 0,36,37
 1133 -1061 1133 -1061 1466 -1008 c 0,38,39
 1579 -987 1579 -987 1749 -987 c 0,40,41
 1772 -987 1772 -987 1774 -1010 c 1,42,-1
 1772 -1030 l 1,43,44
 1743 -1057 1743 -1057 1688 -1083 c 0,45,46
 1686 -1083 1686 -1083 1593 -1116 c 1,47,48
 1516 -1151 1516 -1151 1477 -1171 c 0,49,50
 1444 -1192 1444 -1192 1423 -1200 c 0,51,52
 1284 -1247 1284 -1247 1221 -1270 c 0,53,54
 1133 -1298 1133 -1298 895 -1298 c 0,55,56
 141 -1298 141 -1298 141 -561 c 0,57,58
 141 53 141 53 580 389 c 1,59,-1
 518 389 l 2,60,61
 418 389 418 389 258 351 c 128,-1,62
 98 313 98 313 23 313 c 1,63,64
 0 334 0 334 -4 365 c 1,0,1
EndSplineSet
EndChar

StartChar: afii62774
Encoding: 65187 65187 184
Width: 1243
GlyphClass: 2
Flags: W
AnchorPoint: "Anchor-1" 450 -525 basechar 0
AnchorPoint: "Anchor-0" 660 1050 basechar 0
LayerCount: 2
Fore
SplineSet
-23 207 m 1,0,-1
 29 207 l 2,1,2
 156 207 156 207 365 262 c 1,3,4
 563 322 563 322 664 377 c 1,5,6
 627 387 627 387 512 424 c 0,7,8
 414 459 414 459 373 459 c 0,9,10
 338 459 338 459 253 432.5 c 128,-1,11
 168 406 168 406 119 406 c 0,12,13
 92 406 92 406 92 424 c 0,14,15
 92 446 92 446 128 526 c 128,-1,16
 164 606 164 606 184 629 c 1,17,18
 307 702 307 702 360 702 c 0,19,20
 424 702 424 702 500 670 c 1,21,22
 563 629 563 629 629 600 c 1,23,24
 725 545 725 545 941 492.5 c 128,-1,25
 1157 440 1157 440 1276 440 c 0,26,27
 1298 440 1298 440 1313 430 c 1,28,-1
 1266 307 l 2,29,30
 1253 268 1253 268 1198 268 c 0,31,32
 1151 268 1151 268 1059 278.5 c 128,-1,33
 967 289 967 289 918 289 c 0,34,35
 819 289 819 289 498.5 146.5 c 128,-1,36
 178 4 178 4 0 4 c 2,37,-1
 -23 4 l 1,38,-1
 -23 207 l 1,0,-1
EndSplineSet
EndChar

StartChar: afii62775
Encoding: 65188 65188 185
Width: 1343
GlyphClass: 2
Flags: W
AnchorPoint: "Anchor-1" 555 -645 basechar 0
AnchorPoint: "Anchor-0" 645 1035 basechar 0
LayerCount: 2
Fore
SplineSet
-23 207 m 1,0,1
 139 207 139 207 324 248 c 1,2,3
 524 299 524 299 655 373 c 1,4,5
 399 459 399 459 365 459 c 0,6,7
 322 459 322 459 231.5 429 c 128,-1,8
 141 399 141 399 92 399 c 1,9,10
 141 571 141 571 150 578 c 1,11,12
 176 627 176 627 281 682 c 0,13,14
 317 702 317 702 381 702 c 0,15,16
 408 702 408 702 602 618 c 0,17,18
 817 522 817 522 860 508 c 0,19,20
 1083 440 1083 440 1284 440 c 1,21,22
 1303 424 1303 424 1305 414 c 0,23,24
 1305 377 1305 377 1253 268 c 1,25,-1
 1219 268 l 2,26,27
 1083 268 1083 268 1014 289 c 1,28,-1
 1008 260 l 1,29,-1
 1014 225 l 1,30,31
 1055 184 1055 184 1135 184 c 0,32,33
 1255 184 1255 184 1360 207 c 1,34,-1
 1360 0 l 1,35,-1
 1141 -4 l 2,36,37
 1061 -6 1061 -6 1009.5 48 c 128,-1,38
 958 102 958 102 958 182 c 0,39,40
 958 195 958 195 962.5 220.5 c 128,-1,41
 967 246 967 246 967 260 c 2,42,-1
 967 289 l 1,43,44
 872 289 872 289 745 246 c 0,45,46
 571 182 571 182 473 135 c 1,47,48
 281 57 281 57 242 47 c 0,49,50
 111 0 111 0 0 0 c 2,51,-1
 -23 0 l 1,52,-1
 -23 207 l 1,0,1
EndSplineSet
EndChar

StartChar: afii57423
Encoding: 1583 1583 190
Width: 847
GlyphClass: 2
Flags: W
AnchorPoint: "Anchor-1" 420 -600 basechar 0
AnchorPoint: "Anchor-0" 360 1065 basechar 0
LayerCount: 2
Fore
SplineSet
202 102 m 0,0,1
 202 195 202 195 251 195 c 2,2,-1
 258 195 l 1,3,4
 286 141 286 141 378 141 c 0,5,6
 444 141 444 141 581 178 c 0,7,8
 737 217 737 217 737 260 c 0,9,10
 737 317 737 317 624 453 c 0,11,12
 512 592 512 592 440 592 c 0,13,14
 417 592 417 592 391 578 c 1,15,16
 356 578 356 578 356 678 c 0,17,18
 356 838 356 838 487 838 c 0,19,20
 518 838 518 838 598 764 c 0,21,22
 827 537 827 537 827 246 c 0,23,24
 827 98 827 98 737 33 c 0,25,26
 690 -4 690 -4 548.5 -45 c 128,-1,27
 407 -86 407 -86 340 -86 c 0,28,29
 202 -86 202 -86 202 102 c 0,0,1
EndSplineSet
Substitution2: "'fina' Terminal Forms in Arabic lookup 2 subtable" afii62780
PairPos2: "'kern' Horizontal Kerning in Arabic lookup 0 subtable" afii62831 dx=0 dy=0 dh=0 dv=0 dx=0 dy=0 dh=-60 dv=0
PairPos2: "'kern' Horizontal Kerning in Arabic lookup 0 subtable" afii62823 dx=0 dy=0 dh=0 dv=0 dx=0 dy=0 dh=-50 dv=0
PairPos2: "'kern' Horizontal Kerning in Arabic lookup 0 subtable" afii57410 dx=0 dy=0 dh=0 dv=0 dx=0 dy=0 dh=-80 dv=0
PairPos2: "'kern' Horizontal Kerning in Arabic lookup 0 subtable" afii57434 dx=0 dy=0 dh=0 dv=0 dx=0 dy=0 dh=-100 dv=0
PairPos2: "'kern' Horizontal Kerning in Arabic lookup 0 subtable" afii57433 dx=0 dy=0 dh=0 dv=0 dx=0 dy=0 dh=-100 dv=0
PairPos2: "'kern' Horizontal Kerning in Arabic lookup 0 subtable" afii62777 dx=0 dy=0 dh=0 dv=0 dx=0 dy=0 dh=80 dv=0
PairPos2: "'kern' Horizontal Kerning in Arabic lookup 0 subtable" afii62774 dx=0 dy=0 dh=0 dv=0 dx=0 dy=0 dh=80 dv=0
PairPos2: "'kern' Horizontal Kerning in Arabic lookup 0 subtable" afii62771 dx=0 dy=0 dh=0 dv=0 dx=0 dy=0 dh=80 dv=0
PairPos2: "'kern' Horizontal Kerning in Arabic lookup 0 subtable" afii62768 dx=0 dy=0 dh=0 dv=0 dx=0 dy=0 dh=-50 dv=0
PairPos2: "'kern' Horizontal Kerning in Arabic lookup 0 subtable" afii62765 dx=0 dy=0 dh=0 dv=0 dx=0 dy=0 dh=-50 dv=0
PairPos2: "'kern' Horizontal Kerning in Arabic lookup 0 subtable" afii62757 dx=0 dy=0 dh=0 dv=0 dx=0 dy=0 dh=-50 dv=0
PairPos2: "'kern' Horizontal Kerning in Arabic lookup 0 subtable" afii62965 dx=0 dy=0 dh=0 dv=0 dx=0 dy=0 dh=-80 dv=0
PairPos2: "'kern' Horizontal Kerning in Arabic lookup 0 subtable" afii57509 dx=0 dy=0 dh=0 dv=0 dx=0 dy=0 dh=100 dv=0
PairPos2: "'kern' Horizontal Kerning in Arabic lookup 0 subtable" afii52305 dx=0 dy=0 dh=0 dv=0 dx=0 dy=0 dh=-80 dv=0
PairPos2: "'kern' Horizontal Kerning in Arabic lookup 0 subtable" afii57567 dx=0 dy=0 dh=0 dv=0 dx=0 dy=0 dh=100 dv=0
PairPos2: "'kern' Horizontal Kerning in Arabic lookup 0 subtable" afii62959 dx=0 dy=0 dh=0 dv=0 dx=0 dy=0 dh=80 dv=0
PairPos2: "'kern' Horizontal Kerning in Arabic lookup 0 subtable" afii62956 dx=0 dy=0 dh=0 dv=0 dx=0 dy=0 dh=-60 dv=0
EndChar

StartChar: afii62780
Encoding: 65194 65194 191
Width: 1059
GlyphClass: 2
Flags: W
AnchorPoint: "Anchor-1" 405 -660 basechar 0
AnchorPoint: "Anchor-0" 375 1230 basechar 0
LayerCount: 2
Fore
SplineSet
164 78 m 0,0,1
 164 133 164 133 178 197 c 1,2,3
 203 272 203 272 233 295 c 1,4,-1
 239 289 l 1,5,-1
 244 272 l 1,6,7
 244 184 244 184 252 168 c 0,8,9
 266 135 266 135 338 135 c 0,10,11
 463 135 463 135 561 195 c 0,12,13
 674 262 674 262 674 377 c 0,14,15
 674 424 674 424 643 553 c 128,-1,16
 612 682 612 682 584 725 c 1,17,-1
 584 834 l 2,18,19
 584 895 584 895 604 895 c 1,20,21
 631 874 631 874 647 834 c 0,22,23
 776 512 776 512 797 473 c 0,24,25
 928 219 928 219 1059 207 c 2,26,-1
 1083 205 l 1,27,-1
 1083 0 l 1,28,29
 954 0 954 0 862 127 c 0,30,31
 823 182 823 182 733 367 c 1,32,33
 733 156 733 156 627 37 c 0,34,35
 518 -86 518 -86 307 -86 c 0,36,37
 244 -86 244 -86 201 -35 c 1,38,39
 164 18 164 18 164 78 c 0,0,1
EndSplineSet
PairPos2: "'kern' Horizontal Kerning in Arabic lookup 0 subtable" afii62831 dx=0 dy=0 dh=0 dv=0 dx=0 dy=0 dh=-60 dv=0
PairPos2: "'kern' Horizontal Kerning in Arabic lookup 0 subtable" afii62823 dx=0 dy=0 dh=0 dv=0 dx=0 dy=0 dh=-50 dv=0
PairPos2: "'kern' Horizontal Kerning in Arabic lookup 0 subtable" afii57410 dx=0 dy=0 dh=0 dv=0 dx=0 dy=0 dh=-80 dv=0
PairPos2: "'kern' Horizontal Kerning in Arabic lookup 0 subtable" afii57434 dx=0 dy=0 dh=0 dv=0 dx=0 dy=0 dh=-100 dv=0
PairPos2: "'kern' Horizontal Kerning in Arabic lookup 0 subtable" afii57433 dx=0 dy=0 dh=0 dv=0 dx=0 dy=0 dh=-100 dv=0
PairPos2: "'kern' Horizontal Kerning in Arabic lookup 0 subtable" afii62777 dx=0 dy=0 dh=0 dv=0 dx=0 dy=0 dh=80 dv=0
PairPos2: "'kern' Horizontal Kerning in Arabic lookup 0 subtable" afii62774 dx=0 dy=0 dh=0 dv=0 dx=0 dy=0 dh=80 dv=0
PairPos2: "'kern' Horizontal Kerning in Arabic lookup 0 subtable" afii62771 dx=0 dy=0 dh=0 dv=0 dx=0 dy=0 dh=80 dv=0
PairPos2: "'kern' Horizontal Kerning in Arabic lookup 0 subtable" afii62768 dx=0 dy=0 dh=0 dv=0 dx=0 dy=0 dh=-50 dv=0
PairPos2: "'kern' Horizontal Kerning in Arabic lookup 0 subtable" afii62765 dx=0 dy=0 dh=0 dv=0 dx=0 dy=0 dh=-50 dv=0
PairPos2: "'kern' Horizontal Kerning in Arabic lookup 0 subtable" afii62757 dx=0 dy=0 dh=0 dv=0 dx=0 dy=0 dh=-50 dv=0
PairPos2: "'kern' Horizontal Kerning in Arabic lookup 0 subtable" afii62965 dx=0 dy=0 dh=0 dv=0 dx=0 dy=0 dh=-80 dv=0
PairPos2: "'kern' Horizontal Kerning in Arabic lookup 0 subtable" afii57509 dx=0 dy=0 dh=0 dv=0 dx=0 dy=0 dh=100 dv=0
PairPos2: "'kern' Horizontal Kerning in Arabic lookup 0 subtable" afii52305 dx=0 dy=0 dh=0 dv=0 dx=0 dy=0 dh=-80 dv=0
PairPos2: "'kern' Horizontal Kerning in Arabic lookup 0 subtable" afii57567 dx=0 dy=0 dh=0 dv=0 dx=0 dy=0 dh=100 dv=0
PairPos2: "'kern' Horizontal Kerning in Arabic lookup 0 subtable" afii62959 dx=0 dy=0 dh=0 dv=0 dx=0 dy=0 dh=80 dv=0
PairPos2: "'kern' Horizontal Kerning in Arabic lookup 0 subtable" afii62956 dx=0 dy=0 dh=0 dv=0 dx=0 dy=0 dh=-60 dv=0
EndChar

StartChar: afii57425
Encoding: 1585 1585 194
Width: 890
GlyphClass: 2
Flags: W
AnchorPoint: "Anchor-1" 375 -1050 basechar 0
AnchorPoint: "Anchor-0" 615 810 basechar 0
LayerCount: 2
Fore
SplineSet
-33 -418 m 1,0,1
 241 -401 241 -401 290 -389 c 0,2,3
 435 -344 435 -344 573.5 -210 c 128,-1,4
 712 -76 712 -76 761 72 c 1,5,6
 714 154 714 154 671 233 c 0,7,8
 601 365 601 365 601 406 c 1,9,-1
 608 428 l 2,10,11
 612 436 612 436 634 494 c 0,12,13
 651 545 651 545 667 545 c 0,14,15
 714 545 714 545 778 408 c 1,16,17
 843 289 843 289 843 229 c 0,18,19
 843 -170 843 -170 601 -414 c 0,20,21
 487 -524 487 -524 366 -524 c 0,22,23
 294 -524 294 -524 1 -473 c 1,24,25
 -7 -467 -7 -467 -33 -436 c 1,26,-1
 -33 -418 l 1,0,1
EndSplineSet
Substitution2: "'fina' Terminal Forms in Arabic lookup 2 subtable" afii62782
PairPos2: "'kern' Horizontal Kerning in Arabic lookup 0 subtable" afii57415 dx=0 dy=0 dh=0 dv=0 dx=0 dy=0 dh=-100 dv=0
PairPos2: "'kern' Horizontal Kerning in Arabic lookup 0 subtable" uni0675 dx=0 dy=0 dh=0 dv=0 dx=0 dy=0 dh=-50 dv=0
PairPos2: "'kern' Horizontal Kerning in Arabic lookup 0 subtable" uni0672 dx=0 dy=0 dh=0 dv=0 dx=0 dy=0 dh=-50 dv=0
PairPos2: "'kern' Horizontal Kerning in Arabic lookup 0 subtable" afii62831 dx=0 dy=0 dh=0 dv=0 dx=0 dy=0 dh=200 dv=0
PairPos2: "'kern' Horizontal Kerning in Arabic lookup 0 subtable" afii62823 dx=0 dy=0 dh=0 dv=0 dx=0 dy=0 dh=-150 dv=0
PairPos2: "'kern' Horizontal Kerning in Arabic lookup 0 subtable" afii57410 dx=0 dy=0 dh=0 dv=0 dx=0 dy=0 dh=-200 dv=0
PairPos2: "'kern' Horizontal Kerning in Arabic lookup 0 subtable" afii57434 dx=0 dy=0 dh=0 dv=0 dx=0 dy=0 dh=-190 dv=0
PairPos2: "'kern' Horizontal Kerning in Arabic lookup 0 subtable" afii57433 dx=0 dy=0 dh=0 dv=0 dx=0 dy=0 dh=-190 dv=0
PairPos2: "'kern' Horizontal Kerning in Arabic lookup 0 subtable" afii62768 dx=0 dy=0 dh=0 dv=0 dx=0 dy=0 dh=-150 dv=0
PairPos2: "'kern' Horizontal Kerning in Arabic lookup 0 subtable" afii62765 dx=0 dy=0 dh=0 dv=0 dx=0 dy=0 dh=-150 dv=0
PairPos2: "'kern' Horizontal Kerning in Arabic lookup 0 subtable" afii62761 dx=0 dy=0 dh=0 dv=0 dx=0 dy=0 dh=30 dv=0
PairPos2: "'kern' Horizontal Kerning in Arabic lookup 0 subtable" afii57415.001 dx=0 dy=0 dh=0 dv=0 dx=0 dy=0 dh=-100 dv=0
PairPos2: "'kern' Horizontal Kerning in Arabic lookup 0 subtable" afii62757 dx=0 dy=0 dh=0 dv=0 dx=0 dy=0 dh=-150 dv=0
PairPos2: "'kern' Horizontal Kerning in Arabic lookup 0 subtable" afii57413 dx=0 dy=0 dh=0 dv=0 dx=0 dy=0 dh=200 dv=0
PairPos2: "'kern' Horizontal Kerning in Arabic lookup 0 subtable" afii57411 dx=0 dy=0 dh=0 dv=0 dx=0 dy=0 dh=-50 dv=0
PairPos2: "'kern' Horizontal Kerning in Arabic lookup 0 subtable" afii62965 dx=0 dy=0 dh=0 dv=0 dx=0 dy=0 dh=-200 dv=0
PairPos2: "'kern' Horizontal Kerning in Arabic lookup 0 subtable" afii52305 dx=0 dy=0 dh=0 dv=0 dx=0 dy=0 dh=-200 dv=0
PairPos2: "'kern' Horizontal Kerning in Arabic lookup 0 subtable" afii62956 dx=0 dy=0 dh=0 dv=0 dx=0 dy=0 dh=200 dv=0
EndChar

StartChar: afii62782
Encoding: 65198 65198 195
Width: 895
GlyphClass: 2
Flags: W
AnchorPoint: "Anchor-1" 270 -1230 basechar 0
AnchorPoint: "Anchor-0" 390 735 basechar 0
LayerCount: 2
Fore
SplineSet
12 -606 m 0,0,1
 12 -586 12 -586 158 -545 c 1,2,3
 377 -473 377 -473 459 -424 c 0,4,5
 612 -334 612 -334 668 -217 c 0,6,7
 678 -188 678 -188 678 -184 c 0,8,9
 678 -57 678 -57 655 23 c 0,10,11
 643 57 643 57 561 219 c 1,12,13
 574 381 574 381 606 414 c 1,14,-1
 647 389 l 1,15,16
 705 299 705 299 713 289 c 0,17,18
 750 248 750 248 815 229 c 1,19,20
 895 197 895 197 918 207 c 1,21,-1
 918 0 l 1,22,23
 840 -4 840 -4 764 18 c 1,24,-1
 764 -76 l 2,25,26
 764 -262 764 -262 657.5 -424 c 128,-1,27
 551 -586 551 -586 383 -655 c 1,28,29
 12 -666 12 -666 12 -606 c 0,0,1
EndSplineSet
PairPos2: "'kern' Horizontal Kerning in Arabic lookup 0 subtable" afii57415 dx=0 dy=0 dh=0 dv=0 dx=0 dy=0 dh=-100 dv=0
PairPos2: "'kern' Horizontal Kerning in Arabic lookup 0 subtable" afii62831 dx=0 dy=0 dh=0 dv=0 dx=0 dy=0 dh=120 dv=0
PairPos2: "'kern' Horizontal Kerning in Arabic lookup 0 subtable" afii62823 dx=0 dy=0 dh=0 dv=0 dx=0 dy=0 dh=-100 dv=0
PairPos2: "'kern' Horizontal Kerning in Arabic lookup 0 subtable" afii57410 dx=0 dy=0 dh=0 dv=0 dx=0 dy=0 dh=-150 dv=0
PairPos2: "'kern' Horizontal Kerning in Arabic lookup 0 subtable" afii57434 dx=0 dy=0 dh=0 dv=0 dx=0 dy=0 dh=-150 dv=0
PairPos2: "'kern' Horizontal Kerning in Arabic lookup 0 subtable" afii57433 dx=0 dy=0 dh=0 dv=0 dx=0 dy=0 dh=-150 dv=0
PairPos2: "'kern' Horizontal Kerning in Arabic lookup 0 subtable" afii62768 dx=0 dy=0 dh=0 dv=0 dx=0 dy=0 dh=-100 dv=0
PairPos2: "'kern' Horizontal Kerning in Arabic lookup 0 subtable" afii62765 dx=0 dy=0 dh=0 dv=0 dx=0 dy=0 dh=-100 dv=0
PairPos2: "'kern' Horizontal Kerning in Arabic lookup 0 subtable" afii57415.001 dx=0 dy=0 dh=0 dv=0 dx=0 dy=0 dh=-100 dv=0
PairPos2: "'kern' Horizontal Kerning in Arabic lookup 0 subtable" afii62757 dx=0 dy=0 dh=0 dv=0 dx=0 dy=0 dh=-100 dv=0
PairPos2: "'kern' Horizontal Kerning in Arabic lookup 0 subtable" afii57413 dx=0 dy=0 dh=0 dv=0 dx=0 dy=0 dh=80 dv=0
PairPos2: "'kern' Horizontal Kerning in Arabic lookup 0 subtable" afii62965 dx=0 dy=0 dh=0 dv=0 dx=0 dy=0 dh=-150 dv=0
PairPos2: "'kern' Horizontal Kerning in Arabic lookup 0 subtable" afii52305 dx=0 dy=0 dh=0 dv=0 dx=0 dy=0 dh=-150 dv=0
PairPos2: "'kern' Horizontal Kerning in Arabic lookup 0 subtable" afii62956 dx=0 dy=0 dh=0 dv=0 dx=0 dy=0 dh=120 dv=0
EndChar

StartChar: afii57427
Encoding: 1587 1587 198
Width: 1702
GlyphClass: 2
Flags: W
AnchorPoint: "Anchor-1" 870 -1020 basechar 0
AnchorPoint: "Anchor-0" 1140 1080 basechar 0
LayerCount: 2
Fore
SplineSet
57 -94 m 0,0,1
 57 -16 57 -16 92 119 c 1,2,3
 139 281 139 281 188 289 c 1,4,-1
 195 285 l 1,5,6
 205 272 205 272 205 260 c 0,7,8
 205 233 205 233 186.5 183 c 128,-1,9
 168 133 168 133 168 111 c 0,10,11
 156 4 156 4 156 -29 c 0,12,13
 156 -162 156 -162 248 -233 c 0,14,15
 334 -301 334 -301 467 -301 c 0,16,17
 618 -301 618 -301 766 -219 c 0,18,19
 834 -184 834 -184 891 -127 c 0,20,21
 961 -53 961 -53 961 4 c 0,22,23
 961 135 961 135 936 211 c 0,24,25
 918 262 918 262 840 399 c 1,26,27
 860 545 860 545 881 586 c 1,28,-1
 897 600 l 1,29,30
 936 592 936 592 952.5 558 c 128,-1,31
 969 524 969 524 1004 428 c 1,32,33
 1212 428 1212 428 1270 473 c 0,34,35
 1313 508 1313 508 1401 725 c 1,36,37
 1438 733 1438 733 1450 678 c 1,38,39
 1434 629 1434 629 1419 555 c 1,40,41
 1483 512 1483 512 1538 512 c 0,42,43
 1581 512 1581 512 1593 537 c 1,44,45
 1569 580 1569 580 1554 629 c 1,46,-1
 1614 784 l 1,47,48
 1702 741 1702 741 1702 606 c 0,49,50
 1702 555 1702 555 1686 477 c 1,51,52
 1659 381 1659 381 1636 344 c 1,53,54
 1591 291 1591 291 1507 291 c 0,55,56
 1389 291 1389 291 1352 344 c 1,57,58
 1276 217 1276 217 1036 217 c 1,59,-1
 1036 197 l 2,60,61
 1036 182 1036 182 1038 144 c 128,-1,62
 1040 106 1040 106 1040 84 c 0,63,64
 1040 -63 1040 -63 952 -266 c 1,65,66
 803 -410 803 -410 719 -457 c 0,67,68
 592 -535 592 -535 430 -535 c 0,69,70
 262 -535 262 -535 156 -395 c 0,71,72
 57 -266 57 -266 57 -94 c 0,0,1
EndSplineSet
Substitution2: "'medi' Medial Forms in Arabic lookup 3 subtable" afii62785
Substitution2: "'fina' Terminal Forms in Arabic lookup 2 subtable" afii62786
Substitution2: "'init' Initial Forms in Arabic lookup 1 subtable" afii62784
EndChar

StartChar: afii62786
Encoding: 65202 65202 199
Width: 2003
GlyphClass: 2
Flags: W
AnchorPoint: "Anchor-1" 1065 -1035 basechar 0
AnchorPoint: "Anchor-0" 1230 1005 basechar 0
LayerCount: 2
Fore
SplineSet
47 -365 m 0,0,1
 47 -262 47 -262 92 -121 c 1,2,3
 150 33 150 33 219 76 c 1,4,-1
 225 70 l 1,5,6
 225 53 225 53 178 -53 c 0,7,8
 127 -164 127 -164 127 -233 c 0,9,10
 127 -354 127 -354 197.5 -433 c 128,-1,11
 268 -512 268 -512 395 -512 c 0,12,13
 602 -512 602 -512 752 -424 c 0,14,15
 936 -317 936 -317 936 -121 c 0,16,17
 936 -23 936 -23 918 33 c 0,18,19
 905 72 905 72 846 182 c 1,20,21
 881 387 881 387 903 389 c 1,22,23
 967 313 967 313 1008 240 c 1,24,25
 1128 207 1128 207 1178 207 c 0,26,27
 1284 207 1284 207 1348 260 c 0,28,29
 1374 281 1374 281 1419 344 c 1,30,31
 1450 399 1450 399 1483 399 c 0,32,33
 1507 399 1507 399 1507 377 c 0,34,35
 1507 354 1507 354 1492 313 c 128,-1,36
 1477 272 1477 272 1477 260 c 0,37,38
 1477 211 1477 211 1608 211 c 2,39,-1
 1671 211 l 1,40,41
 1698 217 1698 217 1751 320.5 c 128,-1,42
 1804 424 1804 424 1831 424 c 1,43,44
 1849 395 1849 395 1849 377 c 0,45,46
 1847 342 1847 342 1827 295 c 1,47,48
 1909 211 1909 211 2025 207 c 1,49,-1
 2025 0 l 1,50,-1
 1913 0 l 1,51,52
 1870 4 1870 4 1812.5 44 c 128,-1,53
 1755 84 1755 84 1743 121 c 1,54,55
 1698 43 1698 43 1659 18 c 0,56,57
 1624 -4 1624 -4 1532 -4 c 0,58,59
 1438 -4 1438 -4 1352 76 c 1,60,61
 1253 -4 1253 -4 1135 -4 c 0,62,63
 1096 -4 1096 -4 1022 18 c 1,64,65
 1022 -317 1022 -317 862 -518 c 1,66,67
 692 -741 692 -741 365 -741 c 0,68,69
 207 -741 207 -741 121 -629 c 0,70,71
 47 -530 47 -530 47 -365 c 0,0,1
EndSplineSet
EndChar

StartChar: afii62784
Encoding: 65203 65203 200
Width: 1290
GlyphClass: 2
Flags: W
AnchorPoint: "Anchor-1" 540 -585 basechar 0
AnchorPoint: "Anchor-0" 630 885 basechar 0
LayerCount: 2
Fore
SplineSet
-23 207 m 1,0,1
 119 207 119 207 248 240 c 0,2,3
 440 285 440 285 471 369 c 128,-1,4
 502 453 502 453 528 473 c 1,5,6
 537 467 537 467 537 446 c 0,7,8
 537 381 537 381 500 272 c 1,9,10
 528 262 528 262 549 262 c 0,11,12
 758 262 758 262 840 324 c 0,13,14
 891 365 891 365 918 459 c 0,15,16
 944 549 944 549 999 571 c 1,17,-1
 1004 563 l 2,18,19
 1008 557 1008 557 1008 549 c 0,20,21
 1008 518 1008 518 981 399 c 1,22,23
 1010 354 1010 354 1040 344 c 0,24,25
 1049 342 1049 342 1128 324 c 1,26,-1
 1180 344 l 1,27,28
 1180 365 1180 365 1171.5 389.5 c 128,-1,29
 1163 414 1163 414 1163 424 c 0,30,31
 1163 436 1163 436 1190 518 c 0,32,33
 1225 612 1225 612 1225 618 c 1,34,35
 1247 618 1247 618 1270 549 c 0,36,37
 1290 494 1290 494 1290 459 c 0,38,39
 1290 338 1290 338 1247 240 c 0,40,41
 1190 111 1190 111 1083 111 c 0,42,43
 1030 111 1030 111 903 188 c 1,44,45
 872 113 872 113 758 72 c 0,46,47
 670 43 670 43 571 43 c 0,48,49
 473 43 473 43 389 72 c 1,50,51
 195 0 195 0 27 0 c 2,52,-1
 -23 0 l 1,53,-1
 -23 207 l 1,0,1
EndSplineSet
EndChar

StartChar: afii62785
Encoding: 65204 65204 201
Width: 1401
GlyphClass: 2
Flags: W
AnchorPoint: "Anchor-1" 570 -690 basechar 0
AnchorPoint: "Anchor-0" 675 795 basechar 0
LayerCount: 2
Fore
SplineSet
-23 207 m 1,0,1
 84 207 84 207 188 248 c 1,2,3
 260 272 260 272 330 330 c 1,4,5
 389 373 389 373 399 373 c 0,6,7
 414 373 414 373 418 354 c 1,8,9
 408 313 408 313 377 262 c 1,10,11
 381 242 381 242 446 229 c 0,12,13
 494 219 494 219 528 219 c 0,14,15
 641 219 641 219 684 229 c 0,16,17
 766 248 766 248 803 317 c 1,18,19
 840 360 840 360 868 377 c 1,20,-1
 897 387 l 1,21,-1
 909 373 l 1,22,23
 883 307 883 307 881 262 c 1,24,25
 915 240 915 240 975 240 c 0,26,27
 1073 240 1073 240 1112 324 c 0,28,29
 1169 436 1169 436 1210 453 c 1,30,31
 1212 440 1212 440 1212 430 c 0,32,33
 1212 387 1212 387 1194 322 c 1,34,35
 1284 197 1284 197 1421 207 c 1,36,-1
 1421 0 l 1,37,38
 1313 -4 1313 -4 1253 49 c 0,39,40
 1233 72 1233 72 1155 205 c 1,41,42
 1102 84 1102 84 1083 70 c 1,43,44
 1036 18 1036 18 936 18 c 0,45,46
 860 18 860 18 768 92 c 1,47,48
 692 43 692 43 651 23 c 0,49,50
 602 4 602 4 518 4 c 0,51,52
 285 4 285 4 285 111 c 1,53,54
 246 70 246 70 154 29 c 1,55,56
 70 0 70 0 0 0 c 2,57,-1
 -23 0 l 1,58,-1
 -23 207 l 1,0,1
EndSplineSet
EndChar

StartChar: afii57429
Encoding: 1589 1589 206
Width: 1985
GlyphClass: 2
Flags: W
AnchorPoint: "Anchor-1" 1020 -915 basechar 0
AnchorPoint: "Anchor-0" 1080 1170 basechar 0
LayerCount: 2
Fore
SplineSet
53 -121 m 0,0,1
 53 -43 53 -43 90 92 c 1,2,3
 127 246 127 246 176 291 c 1,4,5
 211 289 211 289 211 254 c 0,6,7
 211 211 211 211 182.5 129 c 128,-1,8
 154 47 154 47 154 4 c 0,9,10
 154 -135 154 -135 242 -224 c 128,-1,11
 330 -313 330 -313 467 -313 c 0,12,13
 586 -313 586 -313 745 -240 c 0,14,15
 930 -150 930 -150 930 -43 c 0,16,17
 930 184 930 184 874 295 c 1,18,19
 834 344 834 344 795 377 c 1,20,-1
 791 395 l 1,21,22
 819 473 819 473 846 524 c 1,23,-1
 868 586 l 1,24,25
 897 586 897 586 936 524 c 0,26,27
 961 477 961 477 985 436 c 1,28,29
 1057 395 1057 395 1108 399 c 1,30,31
 1321 627 1321 627 1374 672 c 1,32,33
 1579 868 1579 868 1692 868 c 0,34,35
 1792 868 1792 868 1874 819 c 1,36,37
 1974 766 1974 766 1974 682 c 0,38,39
 1974 459 1974 459 1772 322 c 0,40,41
 1614 211 1614 211 1360 162 c 0,42,43
 1290 150 1290 150 1243 150 c 0,44,45
 1096 150 1096 150 1026 184 c 1,46,47
 1026 -121 1026 -121 895 -313 c 0,48,49
 741 -535 741 -535 451 -535 c 0,50,51
 281 -535 281 -535 167 -415 c 128,-1,52
 53 -295 53 -295 53 -121 c 0,0,1
1356 373 m 2,53,54
 1464 373 1464 373 1606.5 425 c 128,-1,55
 1749 477 1749 477 1827 545 c 1,56,57
 1821 647 1821 647 1608 647 c 0,58,59
 1538 647 1538 647 1397 535 c 0,60,61
 1378 522 1378 522 1212 373 c 1,62,-1
 1356 373 l 2,53,54
EndSplineSet
Substitution2: "'medi' Medial Forms in Arabic lookup 3 subtable" afii62791
Substitution2: "'fina' Terminal Forms in Arabic lookup 2 subtable" afii62792
Substitution2: "'init' Initial Forms in Arabic lookup 1 subtable" afii62790
EndChar

StartChar: afii62792
Encoding: 65210 65210 207
Width: 2087
GlyphClass: 2
Flags: W
AnchorPoint: "Anchor-1" 1245 -945 basechar 0
AnchorPoint: "Anchor-0" 1080 960 basechar 0
LayerCount: 2
Fore
SplineSet
57 -332 m 0,0,1
 57 -248 57 -248 106 -98 c 1,2,3
 154 63 154 63 197 111 c 1,4,5
 219 111 219 111 219 92 c 0,6,7
 219 70 219 70 180 -35.5 c 128,-1,8
 141 -141 141 -141 141 -199 c 0,9,10
 141 -338 141 -338 241.5 -431 c 128,-1,11
 342 -524 342 -524 485 -524 c 0,12,13
 633 -524 633 -524 811 -430 c 0,14,15
 1008 -328 1008 -328 1008 -188 c 0,16,17
 1008 -121 1008 -121 961 6 c 1,18,19
 922 133 922 133 883 205 c 1,20,21
 905 285 905 285 944 360 c 1,22,23
 983 317 983 317 1022 266 c 1,24,25
 1036 240 1036 240 1083 168 c 1,26,-1
 1141 162 l 1,27,28
 1401 399 1401 399 1427 424 c 0,29,30
 1665 618 1665 618 1772 618 c 0,31,32
 1849 618 1849 618 1931 578 c 1,33,34
 2036 518 2036 518 2036 446 c 0,35,36
 2036 365 2036 365 1913 184 c 1,37,38
 1995 207 1995 207 2087 207 c 2,39,-1
 2109 207 l 1,40,-1
 2109 0 l 1,41,42
 1962 0 1962 0 1686.5 -43 c 128,-1,43
 1411 -86 1411 -86 1270 -86 c 0,44,45
 1190 -86 1190 -86 1090 -57 c 1,46,47
 1090 -119 1090 -119 1075 -217 c 0,48,49
 1032 -446 1032 -446 860 -592 c 0,50,51
 670 -756 670 -756 453 -756 c 0,52,53
 285 -756 285 -756 168 -627 c 0,54,55
 57 -502 57 -502 57 -332 c 0,0,1
1270 141 m 1,56,57
 1642 141 1642 141 1868 311 c 1,58,59
 1784 406 1784 406 1718 406 c 0,60,61
 1591 406 1591 406 1466 322 c 0,62,63
 1427 291 1427 291 1270 141 c 1,56,57
EndSplineSet
EndChar

StartChar: afii62790
Encoding: 65211 65211 208
Width: 1593
GlyphClass: 2
Flags: W
AnchorPoint: "Anchor-1" 525 -735 basechar 0
AnchorPoint: "Anchor-0" 735 990 basechar 0
LayerCount: 2
Fore
SplineSet
-23 207 m 1,0,1
 119 207 119 207 197 246 c 1,2,3
 246 262 246 262 295 317 c 0,4,5
 338 365 338 365 387 373 c 1,6,7
 494 324 494 324 608 285 c 1,8,9
 692 406 692 406 922 580 c 0,10,11
 1171 772 1171 772 1294 772 c 0,12,13
 1374 772 1374 772 1483 705 c 1,14,15
 1604 639 1604 639 1604 561 c 0,16,17
 1604 545 1604 545 1581 485 c 1,18,19
 1544 354 1544 354 1493 291 c 0,20,21
 1421 195 1421 195 1186 111 c 0,22,23
 969 33 969 33 831 33 c 0,24,25
 733 33 733 33 545 63 c 1,26,27
 502 -53 502 -53 440 -90 c 1,28,29
 424 -90 424 -90 424 -49 c 0,30,31
 424 -18 424 -18 477 90 c 1,32,33
 408 133 408 133 344 195 c 1,34,35
 317 102 317 102 207 47 c 0,36,37
 106 0 106 0 0 0 c 2,38,-1
 -23 0 l 1,39,-1
 -23 207 l 1,0,1
860 260 m 1,40,41
 1108 246 1108 246 1438 428 c 1,42,43
 1438 473 1438 473 1352 522 c 1,44,45
 1276 557 1276 557 1219 557 c 0,46,47
 1122 557 1122 557 952 440 c 0,48,49
 944 436 944 436 725 262 c 1,50,-1
 860 260 l 1,40,41
EndSplineSet
EndChar

StartChar: afii62791
Encoding: 65212 65212 209
Width: 1536
GlyphClass: 2
Flags: W
AnchorPoint: "Anchor-1" 600 -765 basechar 0
AnchorPoint: "Anchor-0" 660 1020 basechar 0
LayerCount: 2
Fore
SplineSet
-23 207 m 1,0,1
 78 207 78 207 133 242 c 0,2,3
 211 295 211 295 240 311 c 1,4,5
 291 266 291 266 344 225 c 0,6,7
 401 184 401 184 477 184 c 1,8,9
 741 457 741 457 768 477 c 0,10,11
 1008 702 1008 702 1114 702 c 0,12,13
 1190 702 1190 702 1276 651 c 0,14,15
 1374 592 1374 592 1374 528 c 0,16,17
 1374 428 1374 428 1303 317 c 0,18,19
 1235 217 1235 217 1141 156 c 1,20,21
 1403 182 1403 182 1469.5 194.5 c 128,-1,22
 1536 207 1536 207 1559 207 c 1,23,-1
 1559 0 l 1,24,25
 1280 -29 1280 -29 1114 -29 c 0,26,27
 1053 -29 1053 -29 819 10 c 1,28,29
 618 -27 618 -27 578 -27 c 0,30,31
 477 -27 477 -27 451 -16 c 1,32,33
 428 -27 428 -27 389 -111 c 1,34,35
 344 -195 344 -195 334 -195 c 1,36,-1
 322 -176 l 1,37,38
 344 -80 344 -80 377 4 c 1,39,40
 322 4 322 4 281 69.5 c 128,-1,41
 240 135 240 135 217 135 c 0,42,43
 195 135 195 135 111 67.5 c 128,-1,44
 27 0 27 0 -4 0 c 2,45,-1
 -23 0 l 1,46,-1
 -23 207 l 1,0,1
641 184 m 1,47,48
 745 184 745 184 983 266 c 0,49,50
 1225 352 1225 352 1241 414 c 1,51,52
 1157 473 1157 473 1036 473 c 0,53,54
 944 473 944 473 817 365 c 1,55,56
 725 272 725 272 641 184 c 1,47,48
EndSplineSet
EndChar

StartChar: afii57431
Encoding: 1591 1591 214
Width: 1657
GlyphClass: 2
Flags: W
AnchorPoint: "Anchor-1" 885 -675 basechar 0
AnchorPoint: "Anchor-0" 1005 1605 basechar 0
LayerCount: 2
Fore
SplineSet
-27 70 m 0,0,1
 -27 72 -27 72 -18 78 c 1,2,3
 246 78 246 78 555 121 c 1,4,-1
 651 217 l 1,5,6
 651 401 651 401 568 768 c 128,-1,7
 485 1135 485 1135 485 1325 c 1,8,9
 406 1427 406 1427 406 1509 c 1,10,11
 424 1559 424 1559 440 1608 c 1,12,13
 467 1671 467 1671 485 1688 c 1,14,15
 528 1630 528 1630 545 1593 c 0,16,17
 545 1591 545 1591 602 1538 c 0,18,19
 627 1513 627 1513 627 1464 c 0,20,21
 627 1401 627 1401 586 1325 c 1,22,23
 586 1276 586 1276 618 1108 c 1,24,25
 655 940 655 940 692 766 c 0,26,27
 733 555 733 555 733 489 c 0,28,29
 733 424 733 424 723 262 c 1,30,31
 975 502 975 502 1004 528 c 0,32,33
 1210 705 1210 705 1348 705 c 0,34,35
 1419 705 1419 705 1530 664 c 1,36,37
 1657 612 1657 612 1657 555 c 0,38,39
 1657 373 1657 373 1530 217 c 0,40,41
 1487 168 1487 168 1352 98 c 0,42,43
 958 -111 958 -111 344 -111 c 0,44,45
 324 -111 324 -111 -18 47 c 0,46,47
 -27 49 -27 49 -27 70 c 0,0,1
772 154 m 1,48,49
 958 154 958 154 1151 211 c 0,50,51
 1352 268 1352 268 1489 377 c 1,52,53
 1389 473 1389 473 1266 473 c 0,54,55
 1122 473 1122 473 772 154 c 1,48,49
EndSplineSet
Substitution2: "'medi' Medial Forms in Arabic lookup 3 subtable" afii62797
Substitution2: "'fina' Terminal Forms in Arabic lookup 2 subtable" afii62798
Substitution2: "'init' Initial Forms in Arabic lookup 1 subtable" afii62796
EndChar

StartChar: afii62798
Encoding: 65218 65218 215
Width: 1559
GlyphClass: 2
Flags: W
AnchorPoint: "Anchor-1" 885 -735 basechar 0
AnchorPoint: "Anchor-0" 870 1635 basechar 0
LayerCount: 2
Fore
SplineSet
-23 -18 m 0,0,1
 -23 4 -23 4 98 10 c 1,2,3
 182 23 182 23 266 27 c 0,4,5
 360 33 360 33 387 37 c 0,6,7
 418 43 418 43 494 106 c 0,8,9
 555 156 555 156 584 195 c 1,10,11
 584 408 584 408 522 745 c 0,12,13
 512 795 512 795 401 1294 c 1,14,15
 344 1331 344 1331 344 1438 c 0,16,17
 344 1477 344 1477 367 1559 c 0,18,19
 389 1649 389 1649 408 1657 c 1,20,21
 424 1636 424 1636 424 1620 c 0,22,23
 436 1559 436 1559 459 1530 c 0,24,25
 473 1513 473 1513 528 1450 c 1,26,-1
 537 1423 l 1,27,28
 524 1374 524 1374 502 1313 c 1,29,30
 618 752 618 752 639 612 c 0,31,32
 651 512 651 512 641 242 c 1,33,34
 872 436 872 436 897 457 c 0,35,36
 1083 592 1083 592 1198 592 c 0,37,38
 1276 592 1276 592 1374 545 c 1,39,40
 1489 477 1489 477 1489 414 c 0,41,42
 1489 352 1489 352 1454 279.5 c 128,-1,43
 1419 207 1419 207 1374 164 c 1,44,45
 1493 195 1493 195 1526 201 c 128,-1,46
 1559 207 1559 207 1581 207 c 1,47,-1
 1581 0 l 2,48,49
 1579 0 1579 0 1276 -37 c 0,50,51
 1112 -53 1112 -53 1032 -70 c 0,52,53
 692 -127 692 -127 518 -162 c 1,54,55
 485 -164 485 -164 47 -70 c 0,56,57
 33 -63 33 -63 5 -46 c 128,-1,58
 -23 -29 -23 -29 -23 -18 c 0,0,1
639 57 m 1,59,60
 905 98 905 98 1008 127 c 0,61,62
 1204 182 1204 182 1339 295 c 1,63,64
 1317 322 1317 322 1247 352 c 0,65,66
 1178 381 1178 381 1141 381 c 0,67,68
 1008 381 1008 381 862 268 c 0,69,70
 813 233 813 233 639 57 c 1,59,60
EndSplineSet
EndChar

StartChar: afii62796
Encoding: 65219 65219 216
Width: 1108
GlyphClass: 2
Flags: W
AnchorPoint: "Anchor-1" 420 -510 basechar 0
AnchorPoint: "Anchor-0" 600 1545 basechar 0
LayerCount: 2
Fore
SplineSet
-23 207 m 1,0,1
 29 207 29 207 113 217 c 1,2,3
 182 268 182 268 219 324 c 1,4,5
 219 428 219 428 141 850 c 0,6,7
 53 1305 53 1305 0 1466 c 1,8,9
 -4 1507 -4 1507 18 1571 c 0,10,11
 43 1657 43 1657 72 1657 c 0,12,13
 78 1657 78 1657 98 1581 c 1,14,15
 188 1501 188 1501 188 1466 c 0,16,17
 188 1423 188 1423 139 1290 c 1,18,19
 195 1053 195 1053 219 930 c 0,20,21
 289 600 289 600 289 528 c 0,22,23
 289 440 289 440 285 365 c 1,24,25
 477 545 477 545 570.5 635 c 128,-1,26
 664 725 664 725 819 725 c 0,27,28
 897 725 897 725 993 692 c 1,29,30
 1108 639 1108 639 1108 578 c 0,31,32
 1108 500 1108 500 1030 373 c 0,33,34
 975 285 975 285 918 242 c 0,35,36
 758 121 758 121 473 53 c 1,37,38
 229 0 229 0 0 0 c 2,39,-1
 -23 0 l 1,40,-1
 -23 207 l 1,0,1
289 233 m 1,41,42
 696 289 696 289 946 436 c 1,43,44
 872 496 872 496 846 512 c 0,45,46
 795 537 795 537 723 537 c 0,47,48
 606 537 606 537 289 233 c 1,41,42
EndSplineSet
EndChar

StartChar: afii62797
Encoding: 65220 65220 217
Width: 1151
GlyphClass: 2
Flags: W
AnchorPoint: "Anchor-1" 465 -600 basechar 0
AnchorPoint: "Anchor-0" 600 1500 basechar 0
LayerCount: 2
Fore
SplineSet
-35 1532 m 1,0,1
 23 1720 23 1720 43 1726 c 1,2,3
 53 1698 53 1698 72 1671 c 1,4,5
 102 1608 102 1608 133 1581 c 1,6,7
 176 1532 176 1532 195 1507 c 1,8,9
 195 1477 195 1477 176 1419 c 0,10,11
 156 1352 156 1352 133 1339 c 1,12,13
 182 1010 182 1010 217 854 c 1,14,15
 266 592 266 592 266 522 c 0,16,17
 266 428 266 428 254 377 c 1,18,19
 377 485 377 485 502 586 c 0,20,21
 715 758 715 758 811 758 c 0,22,23
 883 758 883 758 969 692 c 0,24,25
 1057 627 1057 627 1057 555 c 0,26,27
 1057 453 1057 453 983 338 c 1,28,29
 909 240 909 240 819 168 c 1,30,31
 874 168 874 168 985 187.5 c 128,-1,32
 1096 207 1096 207 1151 207 c 2,33,-1
 1171 207 l 1,34,-1
 1171 0 l 1,35,-1
 895 -16 l 1,36,37
 791 -16 791 -16 639 0 c 0,38,39
 612 4 612 4 545 18 c 0,40,41
 477 29 477 29 446 29 c 0,42,43
 387 29 387 29 193.5 14.5 c 128,-1,44
 0 0 0 0 -23 0 c 1,45,-1
 -23 207 l 1,46,47
 4 207 4 207 78 211 c 1,48,49
 150 268 150 268 207 344 c 1,50,51
 207 430 207 430 168 608 c 2,52,-1
 92 952 l 2,53,54
 57 1108 57 1108 43 1235 c 1,55,56
 29 1313 29 1313 23 1352 c 1,57,58
 -23 1483 -23 1483 -35 1532 c 1,0,1
268 225 m 1,59,60
 395 225 395 225 612 291 c 0,61,62
 860 365 860 365 905 440 c 1,63,64
 846 500 846 500 819 512 c 0,65,66
 784 528 784 528 705 528 c 0,67,68
 578 528 578 528 268 225 c 1,59,60
EndSplineSet
EndChar

StartChar: afii57433
Encoding: 1593 1593 222
Width: 1211
GlyphClass: 2
Flags: W
AnchorPoint: "Anchor-1" 570 -1860 basechar 0
AnchorPoint: "Anchor-0" 300 1260 basechar 0
LayerCount: 2
Fore
SplineSet
47 580 m 0,0,1
 47 678 47 678 102 791 c 0,2,3
 162 922 162 922 240 946 c 1,4,5
 330 985 330 985 381 985 c 0,6,7
 545 985 545 985 678 840 c 0,8,9
 692 825 692 825 692 803 c 0,10,11
 692 791 692 791 682 784 c 2,12,-1
 659 774 l 2,13,14
 651 774 651 774 600 802.5 c 128,-1,15
 549 831 549 831 522 831 c 0,16,17
 451 831 451 831 313 784 c 1,18,19
 156 725 156 725 156 678 c 0,20,21
 156 563 156 563 285 496 c 1,22,23
 389 436 389 436 512 436 c 2,24,-1
 571 436 l 1,25,26
 803 586 803 586 918 678 c 0,27,28
 936 692 936 692 944 692 c 0,29,30
 967 692 967 692 969 651 c 1,31,32
 926 500 926 500 905 467 c 1,33,34
 764 365 764 365 639 289 c 1,35,36
 408 139 408 139 322 -53 c 1,37,38
 195 -317 195 -317 195 -477 c 0,39,40
 195 -623 195 -623 248 -727 c 0,41,42
 317 -854 317 -854 440 -895 c 1,43,44
 752 -985 752 -985 985 -985 c 0,45,46
 1276 -985 1276 -985 1571 -930 c 1,47,-1
 1585 -958 l 1,48,-1
 1571 -983 l 1,49,50
 1460 -1073 1460 -1073 1233 -1147 c 0,51,52
 1008 -1219 1008 -1219 860 -1219 c 0,53,54
 496 -1219 496 -1219 311 -1085 c 1,55,56
 92 -936 92 -936 92 -586 c 0,57,58
 92 -410 92 -410 168 -162 c 0,59,60
 254 106 254 106 360 233 c 1,61,62
 195 285 195 285 133 342 c 0,63,64
 47 424 47 424 47 580 c 0,0,1
EndSplineSet
Substitution2: "'medi' Medial Forms in Arabic lookup 3 subtable" afii62803
Substitution2: "'fina' Terminal Forms in Arabic lookup 2 subtable" afii62804
Substitution2: "'init' Initial Forms in Arabic lookup 1 subtable" afii62802
EndChar

StartChar: afii62804
Encoding: 65226 65226 223
Width: 811
GlyphClass: 2
Flags: W
AnchorPoint: "Anchor-1" 675 -1905 basechar 0
AnchorPoint: "Anchor-0" 390 975 basechar 0
LayerCount: 2
Fore
SplineSet
33 -629 m 0,0,1
 33 -494 33 -494 84 -268 c 1,2,3
 135 -70 135 -70 195 76 c 1,4,5
 246 184 246 184 367 262 c 1,6,7
 313 313 313 313 266 313 c 0,8,9
 242 313 242 313 176 295 c 1,10,11
 184 377 184 377 205 457 c 0,12,13
 217 496 217 496 311 563 c 1,14,15
 338 592 338 592 512 592 c 0,16,17
 600 592 600 592 659 549 c 1,18,19
 733 502 733 502 733 428 c 0,20,21
 733 352 733 352 672 268 c 1,22,23
 705 219 705 219 831 207 c 1,24,-1
 831 0 l 1,25,26
 737 0 737 0 651 47 c 0,27,28
 629 57 629 57 500 154 c 1,29,30
 467 154 467 154 395 92 c 0,31,32
 360 57 360 57 299 6 c 1,33,34
 246 -49 246 -49 225 -76 c 0,35,36
 184 -133 184 -133 154 -289 c 1,37,38
 119 -436 119 -436 119 -512 c 0,39,40
 119 -819 119 -819 352 -981 c 1,41,42
 549 -1112 549 -1112 872 -1112 c 0,43,44
 1053 -1112 1053 -1112 1559 -1073 c 1,45,-1
 1559 -1085 l 2,46,47
 1559 -1106 1559 -1106 1538 -1112 c 0,48,49
 1374 -1186 1374 -1186 1210 -1264 c 1,50,51
 999 -1348 999 -1348 854 -1348 c 0,52,53
 33 -1348 33 -1348 33 -629 c 0,0,1
EndSplineSet
EndChar

StartChar: afii62802
Encoding: 65227 65227 224
Width: 981
GlyphClass: 2
Flags: W
AnchorPoint: "Anchor-1" 375 -540 basechar 0
AnchorPoint: "Anchor-0" 465 1200 basechar 0
LayerCount: 2
Fore
SplineSet
-23 207 m 1,0,1
 53 207 53 207 268 272 c 1,2,3
 141 373 141 373 141 496 c 0,4,5
 141 592 141 592 204.5 719 c 128,-1,6
 268 846 268 846 344 897 c 0,7,8
 399 930 399 930 494 930 c 0,9,10
 549 930 549 930 653.5 870.5 c 128,-1,11
 758 811 758 811 788 758 c 1,12,13
 774 752 774 752 752 752 c 0,14,15
 725 752 725 752 671.5 768 c 128,-1,16
 618 784 618 784 592 784 c 0,17,18
 524 784 524 784 399 737 c 0,19,20
 248 684 248 684 248 639 c 0,21,22
 248 561 248 561 367 485 c 1,23,24
 473 408 473 408 555 408 c 0,25,26
 612 408 612 408 790.5 507 c 128,-1,27
 969 606 969 606 985 606 c 0,28,29
 1004 606 1004 606 1004 580 c 0,30,31
 1004 535 1004 535 944 424 c 1,32,33
 846 338 846 338 485 168 c 1,34,35
 113 0 113 0 0 0 c 2,36,-1
 -23 0 l 1,37,-1
 -23 207 l 1,0,1
EndSplineSet
EndChar

StartChar: afii62803
Encoding: 65228 65228 225
Width: 748
GlyphClass: 2
Flags: W
AnchorPoint: "Anchor-1" 330 -585 basechar 0
AnchorPoint: "Anchor-0" 330 945 basechar 0
LayerCount: 2
Fore
SplineSet
-23 207 m 1,0,1
 197 206 197 206 299 266 c 1,2,3
 229 344 229 344 184 344 c 0,4,5
 150 344 150 344 84 322 c 1,6,7
 133 485 133 485 162 528 c 0,8,9
 217 600 217 600 365 600 c 0,10,11
 451 600 451 600 545 555 c 1,12,13
 664 508 664 508 664 440 c 0,14,15
 664 395 664 395 627 344 c 1,16,17
 586 311 586 311 555 268 c 1,18,19
 651 207 651 207 768 207 c 1,20,-1
 768 0 l 1,21,22
 692 -1 692 -1 610 16 c 128,-1,23
 528 33 528 33 479 78 c 1,24,-1
 387 176 l 1,25,26
 242 72 242 72 207 53 c 0,27,28
 106 0 106 0 0 0 c 2,29,-1
 -23 0 l 1,30,-1
 -23 207 l 1,0,1
EndSplineSet
EndChar

StartChar: afii57443
Encoding: 1603 1603 238
Width: 1186
GlyphClass: 2
Flags: W
AnchorPoint: "Anchor-1" 600 -645 basechar 0
AnchorPoint: "Anchor-0" 360 1380 basechar 0
LayerCount: 2
Fore
SplineSet
72 -23 m 1,0,1
 72 164 72 164 113 182 c 1,2,3
 176 162 176 162 344 162 c 0,4,5
 571 162 571 162 1057 262 c 1,6,7
 1057 381 1057 381 993 719 c 0,8,9
 926 1083 926 1083 903 1305 c 1,10,11
 874 1317 874 1317 860 1378 c 1,12,13
 840 1427 840 1427 840 1466 c 0,14,15
 840 1559 840 1559 936 1640 c 1,16,17
 983 1686 983 1686 993 1686 c 1,18,-1
 1004 1669 l 1,19,20
 967 1608 967 1608 946 1581 c 1,21,22
 1022 1495 1022 1495 987 1313 c 1,23,24
 1008 1280 1008 1280 1008 1270 c 2,25,-1
 1008 1262 l 1,26,-1
 1075 854 l 2,27,28
 1102 702 1102 702 1128 549 c 0,29,30
 1157 387 1157 387 1157 248 c 0,31,32
 1157 242 1157 242 1128 121 c 1,33,34
 1102 33 1102 33 944 -4 c 0,35,36
 881 -18 881 -18 705 -29 c 0,37,38
 387 -53 387 -53 76 -57 c 1,39,-1
 72 -23 l 1,0,1
352 891 m 1,40,41
 414 1108 414 1108 545 1108 c 0,42,43
 580 1108 580 1108 606 1083 c 1,44,-1
 608 1055 l 2,45,46
 608 1004 608 1004 602 983 c 1,47,-1
 580 961 l 2,48,49
 578 961 578 961 557 958 c 1,50,51
 545 961 545 961 528 958 c 1,52,53
 524 983 524 983 518 987 c 1,54,55
 440 983 440 983 436 944 c 1,56,57
 473 905 473 905 500 897 c 0,58,59
 512 895 512 895 584 874 c 1,60,61
 692 958 692 958 758 975 c 0,62,63
 768 975 768 975 768 961 c 0,64,65
 768 868 768 868 633 791 c 1,66,67
 528 737 528 737 428 682 c 1,68,-1
 401 678 l 1,69,70
 373 682 373 682 373 692 c 0,71,72
 373 715 373 715 473 795 c 1,73,74
 408 811 408 811 390.5 822.5 c 128,-1,75
 373 834 373 834 352 891 c 1,40,41
EndSplineSet
Substitution2: "'medi' Medial Forms in Arabic lookup 3 subtable" afii52306
Substitution2: "'fina' Terminal Forms in Arabic lookup 2 subtable" afii62816
Substitution2: "'init' Initial Forms in Arabic lookup 1 subtable" afii52305
EndChar

StartChar: afii62816
Encoding: 65242 65242 239
Width: 1671
GlyphClass: 2
Flags: W
AnchorPoint: "Anchor-1" 645 -645 basechar 0
AnchorPoint: "Anchor-0" 600 1305 basechar 0
LayerCount: 2
Fore
SplineSet
47 291 m 0,0,1
 47 387 47 387 84 494 c 0,2,3
 133 627 133 627 197 651 c 1,4,5
 141 485 141 485 141 401 c 0,6,7
 141 344 141 344 182 285 c 1,8,9
 289 111 289 111 524 111 c 0,10,11
 678 111 678 111 936 207 c 1,12,13
 1200 311 1200 311 1298 408 c 0,14,15
 1325 430 1325 430 1339 485 c 2,16,-1
 1356 571 l 1,17,18
 1262 1057 1262 1057 1262 1348 c 0,19,20
 1262 1483 1262 1483 1270 1530 c 0,21,22
 1276 1569 1276 1569 1339 1686 c 1,23,24
 1360 1444 1360 1444 1380 1198 c 1,25,26
 1427 772 1427 772 1493 528 c 0,27,28
 1581 195 1581 195 1692 207 c 1,29,-1
 1692 0 l 1,30,31
 1552 0 1552 0 1483 154 c 1,32,33
 1446 225 1446 225 1413 428 c 1,34,35
 1339 246 1339 246 1276 195 c 0,36,37
 1128 63 1128 63 910 -17.5 c 128,-1,38
 692 -98 692 -98 500 -98 c 0,39,40
 295 -98 295 -98 178 -4 c 0,41,42
 47 98 47 98 47 291 c 0,0,1
555 702 m 1,43,44
 618 918 618 918 745 918 c 0,45,46
 784 918 784 918 811 895 c 1,47,-1
 813 868 l 2,48,49
 813 817 813 817 803 795 c 1,50,-1
 784 772 l 1,51,52
 774 768 774 768 764 766 c 0,53,54
 745 768 745 768 733 768 c 1,55,56
 725 791 725 791 719 803 c 1,57,58
 641 795 641 795 639 752 c 1,59,60
 678 719 678 719 702 705 c 0,61,62
 715 702 715 702 788 692 c 1,63,64
 897 745 897 745 961 788 c 1,65,66
 975 788 975 788 975 768 c 0,67,68
 975 682 975 682 838 606 c 0,69,70
 733 549 733 549 629 494 c 1,71,-1
 606 485 l 1,72,73
 578 494 578 494 578 502 c 0,74,75
 578 524 578 524 672 608 c 1,76,77
 612 618 612 618 595 632.5 c 128,-1,78
 578 647 578 647 555 702 c 1,43,44
EndSplineSet
EndChar

StartChar: afii57444
Encoding: 1604 1604 242
Width: 920
GlyphClass: 2
Flags: W
AnchorPoint: "Anchor-1" 495 -945 basechar 0
AnchorPoint: "Anchor-0" 450 1500 basechar 0
LayerCount: 2
Fore
SplineSet
33 -29 m 0,0,1
 33 53 33 53 63 176 c 1,2,3
 106 317 106 317 156 338 c 1,4,-1
 176 330 l 1,5,-1
 182 313 l 1,6,7
 127 162 127 162 127 119 c 0,8,9
 127 -29 127 -29 194.5 -85 c 128,-1,10
 262 -141 262 -141 408 -141 c 0,11,12
 557 -141 557 -141 678 -80 c 0,13,14
 825 -4 825 -4 825 133 c 0,15,16
 825 168 825 168 803 240 c 0,17,18
 774 338 774 338 772 344 c 0,19,20
 664 881 664 881 608 1141 c 1,21,22
 578 1212 578 1212 549 1243 c 1,23,24
 557 1266 557 1266 586 1360 c 0,25,26
 612 1438 612 1438 629 1454 c 1,27,28
 641 1444 641 1444 664 1401 c 0,29,30
 682 1360 682 1360 696 1348 c 0,31,32
 766 1290 766 1290 774 1276 c 2,33,-1
 784 1253 l 1,34,35
 784 1194 784 1194 741 1106 c 1,36,37
 791 846 791 846 834 578 c 0,38,39
 850 467 850 467 881 248 c 0,40,41
 889 174 889 174 891 180 c 1,42,43
 891 10 891 10 881 -23 c 0,44,45
 819 -207 819 -207 651 -301 c 0,46,47
 500 -389 500 -389 291 -389 c 0,48,49
 176 -389 176 -389 98 -262 c 0,50,51
 33 -154 33 -154 33 -29 c 0,0,1
EndSplineSet
Substitution2: "'medi' Medial Forms in Arabic lookup 3 subtable" afii62818
Substitution2: "'fina' Terminal Forms in Arabic lookup 2 subtable" afii62819
Substitution2: "'init' Initial Forms in Arabic lookup 1 subtable" afii62817
EndChar

StartChar: afii62817
Encoding: 65247 65247 243
Width: 237
GlyphClass: 2
Flags: W
AnchorPoint: "Anchor-1" 165 -585 basechar 0
AnchorPoint: "Anchor-0" -45 1635 basechar 0
LayerCount: 2
Fore
SplineSet
-72 1198 m 1,0,1
 -70 1262 -70 1262 -53 1325 c 1,2,3
 -37 1423 -37 1423 -6 1427 c 1,4,5
 6 1423 6 1423 23 1378 c 1,6,7
 37 1327 37 1327 72 1305 c 2,8,-1
 119 1276 l 1,9,10
 111 1186 111 1186 72 1083 c 1,11,12
 154 692 154 692 156 664 c 0,13,14
 197 424 197 424 197 242 c 0,15,16
 197 150 197 150 150 76 c 1,17,18
 92 0 92 0 0 0 c 2,19,-1
 -23 0 l 1,20,-1
 -23 207 l 1,21,22
 23 207 23 207 72 225 c 0,23,24
 135 248 135 248 133 285 c 1,25,26
 57 629 57 629 27 797 c 0,27,28
 -6 999 -6 999 -27 1102 c 0,29,30
 -35 1151 -35 1151 -72 1198 c 1,0,1
EndSplineSet
EndChar

StartChar: afii62818
Encoding: 65248 65248 244
Width: 436
GlyphClass: 2
Flags: W
AnchorPoint: "Anchor-1" 240 -585 basechar 0
AnchorPoint: "Anchor-0" 0 1785 basechar 0
LayerCount: 2
Fore
SplineSet
-18 207 m 1,0,1
 53 207 53 207 78 225 c 0,2,3
 113 248 113 248 113 313 c 0,4,5
 113 365 113 365 92 535 c 1,6,7
 57 745 57 745 29 952 c 0,8,9
 0 1198 0 1198 0 1374 c 0,10,11
 0 1423 0 1423 10 1493 c 1,12,13
 29 1581 29 1581 57 1581 c 0,14,15
 63 1579 63 1579 72 1567 c 1,16,17
 84 1380 84 1380 92 1290 c 1,18,19
 156 846 156 846 197 684 c 0,20,21
 313 195 313 195 459 207 c 1,22,-1
 459 0 l 1,23,-1
 451 0 l 2,24,25
 281 0 281 0 178 313 c 1,26,27
 178 229 178 229 127 121 c 0,28,29
 70 0 70 0 -4 0 c 2,30,-1
 -18 0 l 1,31,-1
 -18 207 l 1,0,1
EndSplineSet
EndChar

StartChar: afii57445
Encoding: 1605 1605 245
Width: 668
GlyphClass: 2
Flags: W
AnchorPoint: "Anchor-1" 360 -1590 basechar 0
AnchorPoint: "Anchor-0" 180 735 basechar 0
LayerCount: 2
Fore
SplineSet
33 -178 m 0,0,1
 33 -29 33 -29 57 37 c 0,2,3
 98 133 98 133 207 184 c 1,4,5
 291 233 291 233 307 248 c 1,6,-1
 289 248 l 2,7,8
 233 248 233 248 210.5 240.5 c 128,-1,9
 188 233 188 233 150 184 c 1,10,11
 121 246 121 246 106 272 c 1,12,13
 121 377 121 377 148.5 408.5 c 128,-1,14
 176 440 176 440 262 494 c 1,15,16
 295 496 295 496 311 496 c 0,17,18
 377 496 377 496 485 430 c 1,19,20
 586 373 586 373 633 307 c 1,21,22
 641 272 641 272 641 229 c 0,23,24
 641 119 641 119 595 86 c 128,-1,25
 549 53 549 53 418 37 c 0,26,27
 272 18 272 18 228 -2.5 c 128,-1,28
 184 -23 184 -23 156 -63 c 0,29,30
 119 -111 119 -111 119 -154 c 0,31,32
 119 -195 119 -195 176 -414 c 1,33,-1
 233 -672 l 2,34,35
 246 -719 246 -719 260 -872 c 0,36,37
 272 -1022 272 -1022 272 -1075 c 256,38,39
 272 -1128 272 -1128 225 -1163 c 1,40,41
 207 -1147 207 -1147 197 -1108 c 0,42,43
 156 -854 156 -854 119 -696 c 1,44,45
 33 -387 33 -387 33 -178 c 0,0,1
EndSplineSet
Substitution2: "'medi' Medial Forms in Arabic lookup 3 subtable" afii62821
Substitution2: "'fina' Terminal Forms in Arabic lookup 2 subtable" afii62822
Substitution2: "'init' Initial Forms in Arabic lookup 1 subtable" afii62820
EndChar

StartChar: afii62822
Encoding: 65250 65250 246
Width: 922
GlyphClass: 2
Flags: W
AnchorPoint: "Anchor-1" 615 -1140 basechar 0
AnchorPoint: "Anchor-0" 300 900 basechar 0
LayerCount: 2
Fore
SplineSet
29 -106 m 0,0,1
 29 53 29 53 106 211 c 0,2,3
 197 406 197 406 338 406 c 0,4,5
 377 406 377 406 401 399 c 1,6,7
 436 436 436 436 453 459 c 1,8,-1
 467 446 l 1,9,10
 512 389 512 389 528 360 c 1,11,12
 602 291 602 291 706.5 249 c 128,-1,13
 811 207 811 207 905 207 c 2,14,-1
 940 207 l 1,15,-1
 940 0 l 1,16,17
 854 0 854 0 692 43 c 1,18,19
 629 -133 629 -133 618 -135 c 1,20,21
 512 -106 512 -106 457 -23 c 0,22,23
 440 4 440 4 399 121 c 0,24,25
 373 195 373 195 330 195 c 0,26,27
 233 195 233 195 162 106 c 0,28,29
 98 23 98 23 98 -76 c 0,30,31
 98 -211 98 -211 133 -428 c 0,32,33
 176 -692 176 -692 182 -774 c 0,34,35
 188 -897 188 -897 188 -1178 c 1,36,-1
 178 -1192 l 1,37,-1
 154 -1171 l 1,38,39
 135 -1122 135 -1122 133 -1061 c 1,40,41
 102 -788 102 -788 76 -682 c 0,42,43
 29 -467 29 -467 29 -106 c 0,0,1
EndSplineSet
EndChar

StartChar: afii62820
Encoding: 65251 65251 247
Width: 629
GlyphClass: 2
Flags: W
AnchorPoint: "Anchor-1" 270 -570 basechar 0
AnchorPoint: "Anchor-0" 315 990 basechar 0
LayerCount: 2
Fore
SplineSet
-18 207 m 1,0,1
 77 207 77 207 141 272 c 0,2,3
 207 338 207 338 268 406 c 1,4,-1
 291 406 l 1,5,6
 313 477 313 477 360 537 c 0,7,8
 414 612 414 612 473 612 c 0,9,10
 629 612 629 612 629 352 c 0,11,12
 629 291 629 291 602 233 c 1,13,14
 563 168 563 168 518 141 c 1,15,16
 322 162 322 162 233 233 c 1,17,18
 184 156 184 156 141 84 c 1,19,20
 78 0 78 0 0 0 c 2,21,-1
 -18 0 l 1,22,-1
 -18 207 l 1,0,1
342 399 m 1,23,24
 436 334 436 334 502 334 c 1,25,26
 494 399 494 399 485 408 c 1,27,28
 467 451 467 451 424 451 c 0,29,30
 387 451 387 451 342 399 c 1,23,24
EndSplineSet
EndChar

StartChar: afii57446
Encoding: 1606 1606 248
Width: 1093
GlyphClass: 2
Flags: W
AnchorPoint: "Anchor-1" -840 -1665 basechar 0
AnchorPoint: "Anchor-0" 180 1410 basechar 0
LayerCount: 2
Fore
SplineSet
-3136 -414 m 0,0,1
 -3136 -399 -3136 -399 -3113 -399 c 0,2,3
 -3084 -399 -3084 -399 -2988 -451 c 0,4,5
 -2458 -719 -2458 -719 -2079 -811 c 0,6,7
 -1657 -909 -1657 -909 -1116 -909 c 0,8,9
 -285 -909 -285 -909 198.5 -755.5 c 128,-1,10
 682 -602 682 -602 932 -176 c 1,11,12
 932 -43 932 -43 848 119 c 128,-1,13
 764 281 764 281 764 299 c 0,14,15
 764 338 764 338 817 473 c 1,16,17
 813 518 813 518 835 518 c 0,18,19
 876 518 876 518 960 299 c 1,20,21
 1046 90 1046 90 1046 18 c 1,22,23
 1081 -260 1081 -260 806.5 -571.5 c 128,-1,24
 532 -883 532 -883 -72 -1032 c 1,25,26
 -600 -1135 -600 -1135 -1094 -1135 c 0,27,28
 -1487 -1135 -1487 -1135 -1839 -1096 c 1,29,30
 -2312 -1032 -2312 -1032 -2548 -909 c 0,31,32
 -2687 -840 -2687 -840 -2855 -702 c 1,33,34
 -2931 -633 -2931 -633 -3011 -571 c 1,35,36
 -3136 -459 -3136 -459 -3136 -414 c 0,0,1
407 986 m 0,37,38
 407 1006 407 1006 451 1070.5 c 128,-1,39
 495 1135 495 1135 507 1135 c 0,40,41
 524 1135 524 1135 591 1100 c 0,42,43
 663 1059 663 1059 663 1033 c 0,44,45
 663 1014 663 1014 622 953 c 1,46,47
 585 883 585 883 558 883 c 0,48,49
 534 883 534 883 470.5 923 c 128,-1,50
 407 963 407 963 407 986 c 0,37,38
EndSplineSet
Substitution2: "'medi' Medial Forms in Arabic lookup 3 subtable" afii62824
Substitution2: "'fina' Terminal Forms in Arabic lookup 2 subtable" afii62825
Substitution2: "'init' Initial Forms in Arabic lookup 1 subtable" afii62823
EndChar

StartChar: afii62825
Encoding: 65254 65254 249
Width: 1017
GlyphClass: 2
Flags: W
AnchorPoint: "Anchor-1" -765 -1740 basechar 0
AnchorPoint: "Anchor-0" 165 1155 basechar 0
LayerCount: 2
Fore
SplineSet
-3216 -494 m 0,0,1
 -3216 -459 -3216 -459 -3177 -459 c 0,2,3
 -3148 -459 -3148 -459 -3083 -500 c 0,4,5
 -2790 -692 -2790 -692 -2475 -797 c 1,6,7
 -1942 -983 -1942 -983 -1182 -983 c 0,8,9
 -337 -983 -337 -983 382 -745 c 0,10,11
 610 -670 610 -670 749 -530 c 0,12,13
 872 -401 872 -401 872 -307 c 0,14,15
 872 -233 872 -233 796 -94 c 0,16,17
 739 6 739 6 679 113 c 1,18,19
 702 182 702 182 722 246 c 1,20,21
 765 342 765 342 776 342 c 0,22,23
 798 342 798 342 882 207 c 1,24,-1
 1046 207 l 1,25,-1
 1046 0 l 1,26,-1
 948 -4 l 1,27,28
 966 -106 966 -106 966 -188 c 0,29,30
 966 -301 966 -301 907 -446 c 1,31,32
 849 -600 849 -600 767 -655 c 1,33,34
 292 -1022 292 -1022 -167 -1112 c 0,35,36
 -674 -1214 -674 -1214 -1166 -1214 c 0,37,38
 -2014 -1214 -2014 -1214 -2524 -1032 c 0,39,40
 -2722 -961 -2722 -961 -2952 -766 c 0,41,42
 -3030 -702 -3030 -702 -3105 -639 c 0,43,44
 -3216 -545 -3216 -545 -3216 -494 c 0,0,1
318 781 m 0,45,46
 318 801 318 801 361 867.5 c 128,-1,47
 404 934 404 934 422 934 c 0,48,49
 434 934 434 934 500 897 c 0,50,51
 576 856 576 856 576 828 c 0,52,53
 576 813 576 813 535 748 c 0,54,55
 490 682 490 682 463 682 c 0,56,57
 439 682 439 682 378.5 720 c 128,-1,58
 318 758 318 758 318 781 c 0,45,46
EndSplineSet
EndChar

StartChar: afii62828
Encoding: 65258 65258 253
Width: 846
GlyphClass: 2
Flags: W
AnchorPoint: "Anchor-1" 300 -495 basechar 0
AnchorPoint: "Anchor-0" 165 1035 basechar 0
LayerCount: 2
Fore
SplineSet
33 281 m 0,0,1
 33 428 33 428 150 528 c 1,2,3
 225 602 225 602 389 682 c 1,4,-1
 395 705 l 1,5,-1
 395 819 l 1,6,7
 399 897 399 897 430 922 c 1,8,9
 446 915 446 915 477 719 c 1,10,11
 522 500 522 500 580 387 c 1,12,13
 682 207 682 207 846 207 c 2,14,-1
 862 207 l 1,15,-1
 862 0 l 1,16,17
 682 0 682 0 592 98 c 1,18,19
 524 164 524 164 459 360 c 1,20,21
 373 248 373 248 344 233 c 1,22,23
 289 188 289 188 176 188 c 0,24,25
 33 188 33 188 33 281 c 0,0,1
207 414 m 1,26,27
 260 408 260 408 272 408 c 0,28,29
 344 408 344 408 436 451 c 1,30,31
 414 537 414 537 401 606 c 1,32,33
 381 549 381 549 349 524.5 c 128,-1,34
 317 500 317 500 207 414 c 1,26,27
EndSplineSet
EndChar

StartChar: afii57448
Encoding: 1608 1608 254
Width: 866
GlyphClass: 2
Flags: W
AnchorPoint: "Anchor-1" 420 -1125 basechar 0
AnchorPoint: "Anchor-0" 615 990 basechar 0
LayerCount: 2
Fore
SplineSet
-115 -453 m 0,0,1
 -115 -451 -115 -451 -103 -428 c 1,2,3
 -88 -424 -88 -424 -80 -424 c 0,4,5
 70 -424 70 -424 131 -410 c 0,6,7
 319 -375 319 -375 514 -225 c 0,8,9
 717 -70 717 -70 766 111 c 0,10,11
 772 127 772 127 772 135 c 0,12,13
 762 197 762 197 749 225 c 1,14,15
 717 141 717 141 702 121 c 0,16,17
 674 70 674 70 610 70 c 0,18,19
 543 70 543 70 488.5 126 c 128,-1,20
 434 182 434 182 434 248 c 0,21,22
 434 352 434 352 493 467 c 0,23,24
 555 584 555 584 633 627 c 1,25,26
 729 627 729 627 805 502 c 0,27,28
 866 399 866 399 866 295 c 0,29,30
 866 211 866 211 842.5 84 c 128,-1,31
 819 -43 819 -43 788 -119 c 0,32,33
 752 -205 752 -205 653 -328 c 0,34,35
 483 -530 483 -530 289 -530 c 0,36,37
 252 -530 252 -530 -88 -477 c 0,38,39
 -115 -473 -115 -473 -115 -453 c 0,0,1
569 324 m 2,40,41
 569 311 569 311 627 291 c 1,42,43
 659 313 659 313 665 324 c 1,44,45
 653 373 653 373 592 373 c 1,46,-1
 575 352 l 1,47,-1
 569 324 l 2,40,41
EndSplineSet
Substitution2: "'fina' Terminal Forms in Arabic lookup 2 subtable" afii62829
PairPos2: "'kern' Horizontal Kerning in Arabic lookup 0 subtable" afii62831 dx=0 dy=0 dh=0 dv=0 dx=0 dy=0 dh=250 dv=0
PairPos2: "'kern' Horizontal Kerning in Arabic lookup 0 subtable" afii57450 dx=0 dy=0 dh=0 dv=0 dx=0 dy=0 dh=100 dv=0
PairPos2: "'kern' Horizontal Kerning in Arabic lookup 0 subtable" afii57449 dx=0 dy=0 dh=0 dv=0 dx=0 dy=0 dh=100 dv=0
PairPos2: "'kern' Horizontal Kerning in Arabic lookup 0 subtable" afii57410 dx=0 dy=0 dh=0 dv=0 dx=0 dy=0 dh=-100 dv=0
PairPos2: "'kern' Horizontal Kerning in Arabic lookup 0 subtable" afii57434 dx=0 dy=0 dh=0 dv=0 dx=0 dy=0 dh=-100 dv=0
PairPos2: "'kern' Horizontal Kerning in Arabic lookup 0 subtable" afii57433 dx=0 dy=0 dh=0 dv=0 dx=0 dy=0 dh=-100 dv=0
PairPos2: "'kern' Horizontal Kerning in Arabic lookup 0 subtable" afii62761 dx=0 dy=0 dh=0 dv=0 dx=0 dy=0 dh=100 dv=0
PairPos2: "'kern' Horizontal Kerning in Arabic lookup 0 subtable" afii57414 dx=0 dy=0 dh=0 dv=0 dx=0 dy=0 dh=100 dv=0
PairPos2: "'kern' Horizontal Kerning in Arabic lookup 0 subtable" afii57413 dx=0 dy=0 dh=0 dv=0 dx=0 dy=0 dh=250 dv=0
PairPos2: "'kern' Horizontal Kerning in Arabic lookup 0 subtable" afii57555 dx=0 dy=0 dh=0 dv=0 dx=0 dy=0 dh=100 dv=0
PairPos2: "'kern' Horizontal Kerning in Arabic lookup 0 subtable" afii62965 dx=0 dy=0 dh=0 dv=0 dx=0 dy=0 dh=-100 dv=0
PairPos2: "'kern' Horizontal Kerning in Arabic lookup 0 subtable" afii57509 dx=0 dy=0 dh=0 dv=0 dx=0 dy=0 dh=100 dv=0
PairPos2: "'kern' Horizontal Kerning in Arabic lookup 0 subtable" afii52305 dx=0 dy=0 dh=0 dv=0 dx=0 dy=0 dh=-100 dv=0
PairPos2: "'kern' Horizontal Kerning in Arabic lookup 0 subtable" afii57567 dx=0 dy=0 dh=0 dv=0 dx=0 dy=0 dh=100 dv=0
PairPos2: "'kern' Horizontal Kerning in Arabic lookup 0 subtable" afii62956 dx=0 dy=0 dh=0 dv=0 dx=0 dy=0 dh=250 dv=0
EndChar

StartChar: afii62829
Encoding: 65262 65262 255
Width: 921
GlyphClass: 2
Flags: W
AnchorPoint: "Anchor-1" 375 -1080 basechar 0
AnchorPoint: "Anchor-0" 540 840 basechar 0
LayerCount: 2
Fore
SplineSet
-52 -401 m 1,0,1
 -44 -395 -44 -395 -22 -395 c 2,2,-1
 79 -395 l 2,3,4
 292 -395 292 -395 368 -375 c 1,5,6
 468 -342 468 -342 613 -219 c 0,7,8
 765 -94 765 -94 800 0 c 1,9,10
 630 0 630 0 574 23 c 1,11,12
 472 57 472 57 472 197 c 0,13,14
 472 285 472 285 538 395 c 0,15,16
 609 518 609 518 681 518 c 0,17,18
 734 518 734 518 802 389 c 1,19,20
 865 289 865 289 886 207 c 1,21,-1
 939 207 l 1,22,-1
 939 0 l 1,23,-1
 865 0 l 1,24,25
 851 -139 851 -139 708 -311 c 1,26,27
 562 -473 562 -473 427 -522 c 1,28,29
 306 -502 306 -502 150 -473 c 1,30,31
 -52 -428 -52 -428 -52 -401 c 1,0,1
579 246 m 1,32,33
 626 207 626 207 685 207 c 0,34,35
 695 207 695 207 710 211 c 1,36,37
 710 242 710 242 695 272 c 0,38,39
 673 313 673 313 646 313 c 0,40,41
 597 313 597 313 579 246 c 1,32,33
EndSplineSet
PairPos2: "'kern' Horizontal Kerning in Arabic lookup 0 subtable" afii62831 dx=0 dy=0 dh=0 dv=0 dx=0 dy=0 dh=250 dv=0
PairPos2: "'kern' Horizontal Kerning in Arabic lookup 0 subtable" afii57450 dx=0 dy=0 dh=0 dv=0 dx=0 dy=0 dh=70 dv=0
PairPos2: "'kern' Horizontal Kerning in Arabic lookup 0 subtable" afii57449 dx=0 dy=0 dh=0 dv=0 dx=0 dy=0 dh=70 dv=0
PairPos2: "'kern' Horizontal Kerning in Arabic lookup 0 subtable" afii57410 dx=0 dy=0 dh=0 dv=0 dx=0 dy=0 dh=-200 dv=0
PairPos2: "'kern' Horizontal Kerning in Arabic lookup 0 subtable" afii57434 dx=0 dy=0 dh=0 dv=0 dx=0 dy=0 dh=-100 dv=0
PairPos2: "'kern' Horizontal Kerning in Arabic lookup 0 subtable" afii57433 dx=0 dy=0 dh=0 dv=0 dx=0 dy=0 dh=-100 dv=0
PairPos2: "'kern' Horizontal Kerning in Arabic lookup 0 subtable" afii62761 dx=0 dy=0 dh=0 dv=0 dx=30 dy=0 dh=100 dv=0
PairPos2: "'kern' Horizontal Kerning in Arabic lookup 0 subtable" afii57414 dx=0 dy=0 dh=0 dv=0 dx=0 dy=0 dh=70 dv=0
PairPos2: "'kern' Horizontal Kerning in Arabic lookup 0 subtable" afii57413 dx=0 dy=0 dh=0 dv=0 dx=0 dy=0 dh=250 dv=0
PairPos2: "'kern' Horizontal Kerning in Arabic lookup 0 subtable" afii57555 dx=0 dy=0 dh=0 dv=0 dx=0 dy=0 dh=70 dv=0
PairPos2: "'kern' Horizontal Kerning in Arabic lookup 0 subtable" afii62965 dx=0 dy=0 dh=0 dv=0 dx=0 dy=0 dh=-200 dv=0
PairPos2: "'kern' Horizontal Kerning in Arabic lookup 0 subtable" afii52305 dx=0 dy=0 dh=0 dv=0 dx=0 dy=0 dh=-200 dv=0
PairPos2: "'kern' Horizontal Kerning in Arabic lookup 0 subtable" afii62956 dx=0 dy=0 dh=0 dv=0 dx=0 dy=0 dh=250 dv=0
EndChar

StartChar: afii62840
Encoding: 65275 65275 268
Width: 1122
GlyphClass: 3
Flags: W
AnchorPoint: "Anchor-3" 915 -495 baselig 0
AnchorPoint: "Anchor-2" 930 1710 baselig 0
AnchorPoint: "Anchor-3" 480 -645 baselig 1
AnchorPoint: "Anchor-2" 135 1560 baselig 1
LayerCount: 2
Fore
SplineSet
141 1262 m 1,0,1
 162 1352 162 1352 176 1401 c 0,2,3
 182 1413 182 1413 207 1413 c 1,4,5
 500 1198 500 1198 897 500 c 1,6,7
 983 612 983 612 983 881 c 0,8,9
 983 1200 983 1200 969 1233 c 0,10,11
 922 1352 922 1352 922 1348 c 1,12,13
 922 1403 922 1403 946 1501 c 1,14,15
 981 1616 981 1616 1010 1616 c 0,16,17
 1026 1616 1026 1616 1032 1581 c 0,18,19
 1057 1466 1057 1466 1135 1403 c 1,20,-1
 1135 1378 l 2,21,22
 1135 1290 1135 1290 1073 1194 c 1,23,-1
 1073 803 l 1,24,25
 1053 494 1053 494 944 373 c 1,26,27
 993 229 993 229 993 111 c 0,28,29
 993 -49 993 -49 897 -70 c 1,30,31
 664 -106 664 -106 508 -111 c 0,32,33
 473 -113 473 -113 473 -57 c 0,34,35
 473 -35 473 -35 477 6 c 0,36,37
 485 57 485 57 494 78 c 2,38,-1
 512 106 l 1,39,40
 612 156 612 156 682 219 c 1,41,42
 719 260 719 260 831 377 c 1,43,44
 725 702 725 702 389 961 c 1,45,-1
 399 926 l 1,46,-1
 389 909 l 1,47,48
 262 952 262 952 141 1108 c 1,49,-1
 141 1262 l 1,0,1
784 135 m 1,50,51
 850 135 850 135 905 150 c 1,52,53
 897 197 897 197 868 260 c 1,54,55
 766 162 766 162 723 139 c 1,56,-1
 784 135 l 1,50,51
EndSplineSet
Ligature2: "'rlig' Required Ligatures in Arabic lookup 6 subtable" afii62817 afii62760
Substitution2: "'fina' Terminal Forms in Arabic lookup 2 subtable" afii62841
PairPos2: "'kern' Horizontal Kerning in Arabic lookup 0 subtable" afii62831 dx=0 dy=0 dh=0 dv=0 dx=0 dy=0 dh=-100 dv=0
PairPos2: "'kern' Horizontal Kerning in Arabic lookup 0 subtable" afii57450 dx=0 dy=0 dh=0 dv=0 dx=0 dy=0 dh=-100 dv=0
PairPos2: "'kern' Horizontal Kerning in Arabic lookup 0 subtable" afii57449 dx=0 dy=0 dh=0 dv=0 dx=0 dy=0 dh=-100 dv=0
PairPos2: "'kern' Horizontal Kerning in Arabic lookup 0 subtable" afii57448 dx=0 dy=0 dh=0 dv=0 dx=0 dy=0 dh=-100 dv=0
PairPos2: "'kern' Horizontal Kerning in Arabic lookup 0 subtable" afii62811 dx=0 dy=0 dh=0 dv=0 dx=0 dy=0 dh=-100 dv=0
PairPos2: "'kern' Horizontal Kerning in Arabic lookup 0 subtable" afii62808 dx=0 dy=0 dh=0 dv=0 dx=0 dy=0 dh=-100 dv=0
PairPos2: "'kern' Horizontal Kerning in Arabic lookup 0 subtable" afii57434 dx=0 dy=0 dh=0 dv=0 dx=0 dy=0 dh=-100 dv=0
PairPos2: "'kern' Horizontal Kerning in Arabic lookup 0 subtable" afii57433 dx=0 dy=0 dh=0 dv=0 dx=0 dy=0 dh=-100 dv=0
PairPos2: "'kern' Horizontal Kerning in Arabic lookup 0 subtable" afii62799 dx=0 dy=0 dh=0 dv=0 dx=0 dy=0 dh=-100 dv=0
PairPos2: "'kern' Horizontal Kerning in Arabic lookup 0 subtable" afii57432 dx=0 dy=0 dh=0 dv=0 dx=0 dy=0 dh=-100 dv=0
PairPos2: "'kern' Horizontal Kerning in Arabic lookup 0 subtable" afii62796 dx=0 dy=0 dh=0 dv=0 dx=0 dy=0 dh=-100 dv=0
PairPos2: "'kern' Horizontal Kerning in Arabic lookup 0 subtable" afii57431 dx=0 dy=0 dh=0 dv=0 dx=0 dy=0 dh=-100 dv=0
PairPos2: "'kern' Horizontal Kerning in Arabic lookup 0 subtable" afii62793 dx=0 dy=0 dh=0 dv=0 dx=0 dy=0 dh=-100 dv=0
PairPos2: "'kern' Horizontal Kerning in Arabic lookup 0 subtable" afii62790 dx=0 dy=0 dh=0 dv=0 dx=0 dy=0 dh=-100 dv=0
PairPos2: "'kern' Horizontal Kerning in Arabic lookup 0 subtable" afii62787 dx=0 dy=0 dh=0 dv=0 dx=0 dy=0 dh=-100 dv=0
PairPos2: "'kern' Horizontal Kerning in Arabic lookup 0 subtable" afii62784 dx=0 dy=0 dh=0 dv=0 dx=0 dy=0 dh=-100 dv=0
PairPos2: "'kern' Horizontal Kerning in Arabic lookup 0 subtable" afii57426 dx=0 dy=0 dh=0 dv=0 dx=0 dy=0 dh=-100 dv=0
PairPos2: "'kern' Horizontal Kerning in Arabic lookup 0 subtable" afii57425 dx=0 dy=0 dh=0 dv=0 dx=0 dy=0 dh=-100 dv=0
PairPos2: "'kern' Horizontal Kerning in Arabic lookup 0 subtable" afii57424 dx=0 dy=0 dh=0 dv=0 dx=0 dy=0 dh=-100 dv=0
PairPos2: "'kern' Horizontal Kerning in Arabic lookup 0 subtable" afii57423 dx=0 dy=0 dh=0 dv=0 dx=0 dy=0 dh=-100 dv=0
PairPos2: "'kern' Horizontal Kerning in Arabic lookup 0 subtable" afii62777 dx=0 dy=0 dh=0 dv=0 dx=0 dy=0 dh=-100 dv=0
PairPos2: "'kern' Horizontal Kerning in Arabic lookup 0 subtable" afii62774 dx=0 dy=0 dh=0 dv=0 dx=0 dy=0 dh=-100 dv=0
PairPos2: "'kern' Horizontal Kerning in Arabic lookup 0 subtable" afii62771 dx=0 dy=0 dh=0 dv=0 dx=0 dy=0 dh=-100 dv=0
PairPos2: "'kern' Horizontal Kerning in Arabic lookup 0 subtable" afii62761 dx=0 dy=0 dh=0 dv=0 dx=0 dy=0 dh=-100 dv=0
PairPos2: "'kern' Horizontal Kerning in Arabic lookup 0 subtable" afii57414 dx=0 dy=0 dh=0 dv=0 dx=0 dy=0 dh=-100 dv=0
PairPos2: "'kern' Horizontal Kerning in Arabic lookup 0 subtable" afii52399 dx=0 dy=0 dh=0 dv=0 dx=-30 dy=45 dh=-100 dv=0
PairPos2: "'kern' Horizontal Kerning in Arabic lookup 0 subtable" afii57555 dx=0 dy=0 dh=0 dv=0 dx=0 dy=0 dh=-100 dv=0
PairPos2: "'kern' Horizontal Kerning in Arabic lookup 0 subtable" afii57509 dx=0 dy=0 dh=0 dv=0 dx=0 dy=0 dh=300 dv=0
PairPos2: "'kern' Horizontal Kerning in Arabic lookup 0 subtable" afii57567 dx=0 dy=0 dh=0 dv=0 dx=0 dy=0 dh=300 dv=0
PairPos2: "'kern' Horizontal Kerning in Arabic lookup 0 subtable" afii62959 dx=0 dy=0 dh=0 dv=0 dx=0 dy=0 dh=-100 dv=0
PairPos2: "'kern' Horizontal Kerning in Arabic lookup 0 subtable" afii62956 dx=0 dy=0 dh=0 dv=0 dx=0 dy=0 dh=-100 dv=0
EndChar

StartChar: afii62841
Encoding: 65276 65276 269
Width: 1454
GlyphClass: 3
Flags: W
AnchorPoint: "Anchor-3" 1050 -540 baselig 0
AnchorPoint: "Anchor-2" 870 1575 baselig 0
AnchorPoint: "Anchor-3" 420 -615 baselig 1
AnchorPoint: "Anchor-2" 150 1365 baselig 1
LayerCount: 2
Fore
SplineSet
166 1075 m 0,0,1
 166 1163 166 1163 213 1163 c 1,2,-1
 240 1155 l 1,3,4
 377 1090 377 1090 522 930 c 0,5,6
 643 795 643 795 698 639 c 1,7,8
 748 518 748 518 776 299 c 1,9,10
 895 446 895 446 934 655 c 1,11,12
 944 752 944 752 944 1036 c 1,13,14
 954 1276 954 1276 989 1401 c 1,15,-1
 1008 1411 l 1,16,-1
 1020 1413 l 1,17,18
 1075 1413 1075 1413 1122 1083 c 2,19,-1
 1192 629 l 1,20,21
 1210 473 1210 473 1272 360 c 1,22,23
 1348 207 1348 207 1475 207 c 1,24,-1
 1475 0 l 1,25,26
 1382 0 1382 0 1333 27 c 0,27,28
 1219 84 1219 84 1151 334 c 1,29,30
 1092 524 1092 524 1092 713 c 0,31,32
 1092 831 1092 831 1030 1061 c 1,33,34
 1020 612 1020 612 1016 555 c 0,35,36
 995 322 995 322 889 182 c 1,37,38
 772 18 772 18 494 -106 c 1,39,40
 338 -170 338 -170 197 -184 c 0,41,42
 193 -184 193 -184 176 -182 c 1,43,44
 326 -86 326 -86 481 10 c 1,45,46
 655 141 655 141 731 254 c 1,47,48
 698 440 698 440 616 563 c 0,49,50
 557 655 557 655 395 817 c 1,51,-1
 377 795 l 1,52,-1
 354 791 l 1,53,54
 276 831 276 831 219 862 c 1,55,-1
 174 958 l 1,56,57
 166 1008 166 1008 166 1075 c 0,0,1
EndSplineSet
Ligature2: "'rlig' Required Ligatures in Arabic lookup 6 subtable" afii62818 afii62760
PairPos2: "'kern' Horizontal Kerning in Arabic lookup 0 subtable" afii62831 dx=0 dy=0 dh=0 dv=0 dx=0 dy=0 dh=100 dv=0
PairPos2: "'kern' Horizontal Kerning in Arabic lookup 0 subtable" afii57448 dx=0 dy=0 dh=0 dv=0 dx=0 dy=0 dh=-100 dv=0
PairPos2: "'kern' Horizontal Kerning in Arabic lookup 0 subtable" afii57445 dx=0 dy=0 dh=0 dv=0 dx=0 dy=0 dh=-100 dv=0
PairPos2: "'kern' Horizontal Kerning in Arabic lookup 0 subtable" afii57434 dx=0 dy=0 dh=0 dv=0 dx=0 dy=0 dh=-100 dv=0
PairPos2: "'kern' Horizontal Kerning in Arabic lookup 0 subtable" afii57433 dx=0 dy=0 dh=0 dv=0 dx=0 dy=0 dh=-100 dv=0
PairPos2: "'kern' Horizontal Kerning in Arabic lookup 0 subtable" afii57426 dx=0 dy=0 dh=0 dv=0 dx=0 dy=0 dh=-100 dv=0
PairPos2: "'kern' Horizontal Kerning in Arabic lookup 0 subtable" afii57425 dx=0 dy=0 dh=0 dv=0 dx=0 dy=0 dh=-100 dv=0
PairPos2: "'kern' Horizontal Kerning in Arabic lookup 0 subtable" afii52399 dx=0 dy=0 dh=0 dv=0 dx=0 dy=0 dh=-150 dv=0
PairPos2: "'kern' Horizontal Kerning in Arabic lookup 0 subtable" afii57509 dx=0 dy=0 dh=0 dv=0 dx=0 dy=0 dh=200 dv=0
PairPos2: "'kern' Horizontal Kerning in Arabic lookup 0 subtable" afii57567 dx=0 dy=0 dh=0 dv=0 dx=0 dy=0 dh=200 dv=0
PairPos2: "'kern' Horizontal Kerning in Arabic lookup 0 subtable" afii62956 dx=0 dy=0 dh=0 dv=0 dx=0 dy=0 dh=100 dv=0
EndChar

StartChar: afii59759
Encoding: 3663 3663 276
Width: 1233
GlyphClass: 2
Flags: W
LayerCount: 2
Fore
SplineSet
616 983 m 0,0,1
 823 983 823 983 969.5 836.5 c 128,-1,2
 1116 690 1116 690 1116 483 c 0,3,4
 1116 277 1116 277 969.5 130.5 c 128,-1,5
 823 -16 823 -16 616 -16 c 0,6,7
 410 -16 410 -16 263.5 130.5 c 128,-1,8
 117 277 117 277 117 483 c 0,9,10
 117 690 117 690 263.5 836.5 c 128,-1,11
 410 983 410 983 616 983 c 0,0,1
616 147 m 0,12,13
 758 147 758 147 849 242 c 128,-1,14
 940 337 940 337 940 483 c 256,15,16
 940 629 940 629 849 724 c 128,-1,17
 758 819 758 819 616 819 c 0,18,19
 475 819 475 819 384 724 c 128,-1,20
 293 629 293 629 293 483 c 256,21,22
 293 337 293 337 384 242 c 128,-1,23
 475 147 475 147 616 147 c 0,12,13
616 598 m 0,24,25
 664 598 664 598 697.5 565 c 128,-1,26
 731 532 731 532 731 485 c 256,27,28
 731 438 731 438 697.5 404.5 c 128,-1,29
 664 371 664 371 616 371 c 0,30,31
 569 371 569 371 535.5 404.5 c 128,-1,32
 502 438 502 438 502 485 c 256,33,34
 502 532 502 532 535.5 565 c 128,-1,35
 569 598 569 598 616 598 c 0,24,25
EndSplineSet
EndChar

StartChar: afii59760
Encoding: 3664 3664 277
Width: 1233
GlyphClass: 2
Flags: W
LayerCount: 2
Fore
SplineSet
616 924 m 0,0,1
 834 924 834 924 975 794.5 c 128,-1,2
 1116 665 1116 665 1116 453 c 0,3,4
 1116 242 1116 242 975 113 c 128,-1,5
 834 -16 834 -16 616 -16 c 0,6,7
 399 -16 399 -16 258 113 c 128,-1,8
 117 242 117 242 117 453 c 0,9,10
 117 665 117 665 258 794.5 c 128,-1,11
 399 924 399 924 616 924 c 0,0,1
616 150 m 0,12,13
 765 150 765 150 852.5 231 c 128,-1,14
 940 312 940 312 940 453 c 256,15,16
 940 594 940 594 852 677 c 128,-1,17
 764 760 764 760 616 760 c 0,18,19
 469 760 469 760 381 677 c 128,-1,20
 293 594 293 594 293 453 c 0,21,22
 293 310 293 310 381.5 230 c 128,-1,23
 470 150 470 150 616 150 c 0,12,13
EndSplineSet
EndChar

StartChar: glyph279
Encoding: 65559 -1 279
Width: 0
GlyphClass: 2
Flags: W
LayerCount: 2
Fore
SplineSet
36 1831 m 1,0,-1
 36 863 l 1,1,-1
 -36 863 l 1,2,-1
 -36 1831 l 1,3,-1
 36 1831 l 1,0,-1
36 543 m 1,4,-1
 36 -423 l 1,5,-1
 -36 -423 l 1,6,-1
 -36 543 l 1,7,-1
 36 543 l 1,4,-1
EndSplineSet
EndChar

StartChar: glyph280
Encoding: 65560 -1 280
Width: 0
GlyphClass: 2
Flags: W
LayerCount: 2
Fore
SplineSet
-234 -423 m 1,0,-1
 -234 -352 l 1,1,-1
 -36 -352 l 1,2,-1
 -36 1760 l 1,3,-1
 -234 1760 l 1,4,-1
 -234 1831 l 1,5,-1
 234 1831 l 1,6,-1
 234 1760 l 1,7,-1
 36 1760 l 1,8,-1
 36 -352 l 1,9,-1
 234 -352 l 1,10,-1
 234 -423 l 1,11,-1
 -234 -423 l 1,0,-1
EndSplineSet
EndChar

StartChar: glyph281
Encoding: 65561 -1 281
Width: 0
GlyphClass: 2
Flags: W
LayerCount: 2
Fore
SplineSet
224 1646 m 1,0,-1
 36 1504 l 1,1,-1
 36 -423 l 1,2,-1
 -36 -423 l 1,3,-1
 -36 1831 l 1,4,-1
 224 1646 l 1,0,-1
EndSplineSet
EndChar

StartChar: glyph282
Encoding: 65562 -1 282
Width: 0
GlyphClass: 2
Flags: W
LayerCount: 2
Fore
SplineSet
36 1831 m 1,0,-1
 36 -423 l 1,1,-1
 -36 -423 l 1,2,-1
 -36 1504 l 1,3,-1
 -224 1646 l 1,4,-1
 36 1831 l 1,0,-1
EndSplineSet
EndChar

StartChar: glyph283
Encoding: 65563 -1 283
Width: 0
GlyphClass: 2
Flags: W
LayerCount: 2
Fore
SplineSet
36 1831 m 1,0,-1
 36 -352 l 1,1,-1
 234 -352 l 1,2,-1
 234 -423 l 1,3,-1
 -36 -423 l 1,4,-1
 -36 1831 l 1,5,-1
 36 1831 l 1,0,-1
EndSplineSet
EndChar

StartChar: glyph284
Encoding: 65564 -1 284
Width: 0
GlyphClass: 2
Flags: W
LayerCount: 2
Fore
SplineSet
224 1646 m 1,0,-1
 36 1504 l 1,1,-1
 36 -423 l 1,2,-1
 -36 -423 l 1,3,-1
 -36 1504 l 1,4,-1
 -224 1641 l 1,5,-1
 0 1831 l 1,6,-1
 224 1646 l 1,0,-1
EndSplineSet
EndChar

StartChar: uni0670
Encoding: 1648 1648 297
Width: 0
GlyphClass: 4
Flags: W
AnchorPoint: "Anchor-2" 0 0 mark 0
AnchorPoint: "Anchor-0" 0 0 mark 0
LayerCount: 2
Fore
SplineSet
22 70 m 1,0,-1
 -18 -18 l 1,1,2
 -24 44 -24 44 -33.5 175 c 128,-1,3
 -43 306 -43 306 -76 374 c 1,4,5
 9 514 9 514 14 514 c 0,6,7
 35 509 35 509 43.5 392 c 128,-1,8
 52 275 52 275 22 70 c 1,0,-1
EndSplineSet
EndChar

StartChar: glyph298
Encoding: 65565 -1 298
Width: 458
GlyphClass: 2
Flags: W
LayerCount: 2
Fore
SplineSet
235 1433 m 2,0,1
 266 1457 266 1457 294 1461.5 c 128,-1,2
 322 1466 322 1466 343 1455 c 128,-1,3
 364 1444 364 1444 377 1419 c 128,-1,4
 390 1394 390 1394 390 1357 c 2,5,-1
 389 1277 l 1,6,-1
 69 1277 l 1,7,-1
 69 1335 l 1,8,-1
 123 1335 l 1,9,-1
 235 1433 l 2,0,1
203 1335 m 1,10,-1
 331 1335 l 1,11,-1
 331 1365 l 2,12,13
 329 1394 329 1394 311 1402 c 128,-1,14
 293 1410 293 1410 263 1388 c 2,15,-1
 203 1335 l 1,10,-1
EndSplineSet
EndChar

StartChar: glyph299
Encoding: 65566 -1 299
Width: 1241
GlyphClass: 2
Flags: W
LayerCount: 2
Fore
SplineSet
53 242 m 0,0,1
 53 322 53 322 78 430 c 0,2,3
 113 578 113 578 168 578 c 0,4,5
 188 578 188 578 188 549 c 0,6,7
 188 535 188 535 171 471.5 c 128,-1,8
 154 408 154 408 154 365 c 0,9,10
 154 219 154 219 254 121 c 128,-1,11
 354 23 354 23 502 23 c 0,12,13
 672 23 672 23 872 141 c 1,14,15
 1061 260 1061 260 1157 401 c 1,16,17
 1157 451 1157 451 1128 512 c 1,18,19
 1096 555 1096 555 1061 606 c 1,20,21
 1036 440 1036 440 905 440 c 0,22,23
 846 440 846 440 795 545 c 0,24,25
 752 633 752 633 752 705 c 0,26,27
 752 791 752 791 811 881 c 0,28,29
 881 983 881 983 958 983 c 0,30,31
 983 983 983 983 1036 936 c 1,32,33
 1235 784 1235 784 1235 494 c 0,34,35
 1235 217 1235 217 999 0 c 0,36,37
 764 -211 764 -211 485 -211 c 0,38,39
 289 -211 289 -211 168 -80 c 0,40,41
 53 43 53 43 53 242 c 0,0,1
895 692 m 0,42,43
 895 641 895 641 922 641 c 0,44,45
 958 641 958 641 967 692 c 1,46,-1
 958 715 l 1,47,-1
 918 733 l 1,48,49
 895 725 895 725 895 692 c 0,42,43
EndSplineSet
EndChar

StartChar: uni06DD
Encoding: 1757 1757 388
Width: 2300
GlyphClass: 2
Flags: W
LayerCount: 2
Fore
SplineSet
2250 715 m 256,0,1
 2250 469 2250 469 2146 249 c 0,2,3
 2046 35 2046 35 1867 -119 c 1,4,5
 1870 -133 1870 -133 1870 -148 c 0,6,7
 1870 -203 1870 -203 1831 -241.5 c 128,-1,8
 1792 -280 1792 -280 1737 -280 c 0,9,10
 1697 -280 1697 -280 1664 -258 c 1,11,12
 1424 -385 1424 -385 1149 -385 c 0,13,14
 876 -385 876 -385 636 -258 c 1,15,16
 603 -280 603 -280 563 -280 c 0,17,18
 508 -280 508 -280 469 -241.5 c 128,-1,19
 430 -203 430 -203 430 -148 c 0,20,21
 430 -133 430 -133 433 -119 c 1,22,23
 254 35 254 35 154 249 c 0,24,25
 50 469 50 469 50 715 c 256,26,27
 50 961 50 961 154 1181 c 0,28,29
 254 1394 254 1394 433 1548 c 1,30,31
 430 1562 430 1562 430 1577 c 0,32,33
 430 1632 430 1632 469 1670.5 c 128,-1,34
 508 1709 508 1709 563 1709 c 0,35,36
 603 1709 603 1709 636 1687 c 1,37,38
 876 1814 876 1814 1151 1814 c 0,39,40
 1424 1814 1424 1814 1664 1687 c 1,41,42
 1697 1709 1697 1709 1737 1709 c 0,43,44
 1792 1709 1792 1709 1831 1670.5 c 128,-1,45
 1870 1632 1870 1632 1870 1577 c 0,46,47
 1870 1562 1870 1562 1867 1548 c 1,48,49
 2046 1394 2046 1394 2146 1181 c 0,50,51
 2250 961 2250 961 2250 715 c 256,0,1
1816 1576 m 0,52,53
 1816 1609 1816 1609 1793 1632 c 128,-1,54
 1770 1655 1770 1655 1738 1655 c 256,55,56
 1706 1655 1706 1655 1682.5 1631.5 c 128,-1,57
 1659 1608 1659 1608 1659 1576 c 256,58,59
 1659 1544 1659 1544 1682 1521 c 128,-1,60
 1705 1498 1705 1498 1738 1498 c 0,61,62
 1770 1498 1770 1498 1793 1521 c 128,-1,63
 1816 1544 1816 1544 1816 1576 c 0,52,53
1602 1595 m 1,64,65
 1390 1704 1390 1704 1151 1704 c 0,66,67
 910 1704 910 1704 698 1595 c 1,68,-1
 1602 1595 l 1,64,65
641 1576 m 256,69,70
 641 1608 641 1608 617.5 1631.5 c 128,-1,71
 594 1655 594 1655 562 1655 c 256,72,73
 530 1655 530 1655 507 1632 c 128,-1,74
 484 1609 484 1609 484 1576 c 0,75,76
 484 1544 484 1544 507 1521 c 128,-1,77
 530 1498 530 1498 562 1498 c 0,78,79
 595 1498 595 1498 618 1521 c 128,-1,80
 641 1544 641 1544 641 1576 c 256,69,70
2140 714 m 0,81,82
 2140 933 2140 933 2048 1131 c 0,83,84
 1960 1321 1960 1321 1801 1460 c 1,85,86
 1772 1444 1772 1444 1737 1444 c 0,87,88
 1681 1444 1681 1444 1642 1485 c 1,89,-1
 658 1485 l 1,90,91
 619 1444 619 1444 563 1444 c 0,92,93
 528 1444 528 1444 499 1460 c 1,94,95
 340 1321 340 1321 252 1131 c 0,96,97
 160 933 160 933 160 714 c 0,98,99
 160 265 160 265 499 -31 c 1,100,101
 528 -15 528 -15 563 -15 c 0,102,103
 619 -15 619 -15 658 -56 c 1,104,-1
 1642 -56 l 1,105,106
 1681 -15 1681 -15 1737 -15 c 0,107,108
 1772 -15 1772 -15 1801 -31 c 1,109,110
 2140 265 2140 265 2140 714 c 0,81,82
1816 -147 m 0,111,112
 1816 -115 1816 -115 1793 -92 c 128,-1,113
 1770 -69 1770 -69 1738 -69 c 0,114,115
 1705 -69 1705 -69 1682 -92 c 128,-1,116
 1659 -115 1659 -115 1659 -147 c 256,117,118
 1659 -179 1659 -179 1682.5 -202.5 c 128,-1,119
 1706 -226 1706 -226 1738 -226 c 256,120,121
 1770 -226 1770 -226 1793 -203 c 128,-1,122
 1816 -180 1816 -180 1816 -147 c 0,111,112
1602 -166 m 1,123,-1
 698 -166 l 1,124,125
 910 -275 910 -275 1151 -275 c 0,126,127
 1390 -275 1390 -275 1602 -166 c 1,123,-1
641 -147 m 256,128,129
 641 -115 641 -115 618 -92 c 128,-1,130
 595 -69 595 -69 562 -69 c 0,131,132
 530 -69 530 -69 507 -92 c 128,-1,133
 484 -115 484 -115 484 -147 c 0,134,135
 484 -180 484 -180 507 -203 c 128,-1,136
 530 -226 530 -226 562 -226 c 256,137,138
 594 -226 594 -226 617.5 -202.5 c 128,-1,139
 641 -179 641 -179 641 -147 c 256,128,129
EndSplineSet
EndChar

StartChar: uni06DE
Encoding: 1758 1758 389
Width: 2221
GlyphClass: 2
Flags: W
LayerCount: 2
Fore
SplineSet
2171 750 m 1,0,-1
 1861 439 l 1,1,-1
 1861 0 l 1,2,-1
 1421 0 l 1,3,-1
 1111 -311 l 1,4,-1
 800 0 l 1,5,-1
 361 0 l 1,6,-1
 361 439 l 1,7,-1
 50 750 l 1,8,-1
 361 1061 l 1,9,-1
 361 1500 l 1,10,-1
 800 1500 l 1,11,-1
 1111 1811 l 1,12,-1
 1421 1500 l 1,13,-1
 1861 1500 l 1,14,-1
 1861 1061 l 1,15,-1
 2171 750 l 1,0,-1
436 364 m 1,16,-1
 436 75 l 1,17,-1
 725 75 l 1,18,-1
 436 364 l 1,16,-1
725 1425 m 1,19,-1
 436 1425 l 1,20,-1
 436 1136 l 1,21,-1
 725 1425 l 1,19,-1
1786 1136 m 1,22,-1
 1786 1425 l 1,23,-1
 1496 1425 l 1,24,-1
 1786 1136 l 1,22,-1
1786 75 m 1,25,-1
 1786 364 l 1,26,-1
 1496 75 l 1,27,-1
 1786 75 l 1,25,-1
906 0 m 1,28,-1
 1111 -205 l 1,29,-1
 1315 0 l 1,30,-1
 906 0 l 1,28,-1
361 955 m 1,31,-1
 156 750 l 1,32,-1
 361 545 l 1,33,-1
 361 955 l 1,31,-1
1315 1500 m 1,34,-1
 1111 1705 l 1,35,-1
 906 1500 l 1,36,-1
 1315 1500 l 1,34,-1
1786 1030 m 1,37,-1
 1390 1425 l 1,38,-1
 831 1425 l 1,39,-1
 436 1030 l 1,40,-1
 436 470 l 1,41,-1
 831 75 l 1,42,-1
 1390 75 l 1,43,-1
 1786 470 l 1,44,-1
 1786 1030 l 1,37,-1
2065 750 m 1,45,-1
 1861 955 l 1,46,-1
 1861 545 l 1,47,-1
 2065 750 l 1,45,-1
1328 750 m 256,48,49
 1328 660 1328 660 1264.5 596 c 128,-1,50
 1201 532 1201 532 1111 532 c 256,51,52
 1021 532 1021 532 957 596 c 128,-1,53
 893 660 893 660 893 750 c 256,54,55
 893 840 893 840 957 903.5 c 128,-1,56
 1021 967 1021 967 1111 967 c 256,57,58
 1201 967 1201 967 1264.5 903.5 c 128,-1,59
 1328 840 1328 840 1328 750 c 256,48,49
1253 750 m 256,60,61
 1253 809 1253 809 1211 850.5 c 128,-1,62
 1169 892 1169 892 1110 892 c 256,63,64
 1051 892 1051 892 1009 850.5 c 128,-1,65
 967 809 967 809 967 750 c 256,66,67
 967 691 967 691 1009 649 c 128,-1,68
 1051 607 1051 607 1110 607 c 256,69,70
 1169 607 1169 607 1211 649 c 128,-1,71
 1253 691 1253 691 1253 750 c 256,60,61
EndSplineSet
EndChar

StartChar: uni06DF
Encoding: 1759 1759 390
Width: 0
GlyphClass: 2
Flags: W
LayerCount: 2
Fore
SplineSet
75 1429 m 256,0,1
 75 1398 75 1398 53 1376 c 128,-1,2
 31 1354 31 1354 0 1354 c 256,3,4
 -31 1354 -31 1354 -53 1376 c 128,-1,5
 -75 1398 -75 1398 -75 1429 c 256,6,7
 -75 1460 -75 1460 -53 1482 c 128,-1,8
 -31 1504 -31 1504 0 1504 c 256,9,10
 31 1504 31 1504 53 1482 c 128,-1,11
 75 1460 75 1460 75 1429 c 256,0,1
EndSplineSet
EndChar

StartChar: uni06E9
Encoding: 1769 1769 391
Width: 1229
GlyphClass: 2
Flags: W
LayerCount: 2
Fore
SplineSet
1179 0 m 1,0,-1
 50 0 l 1,1,-1
 278 261 l 1,2,-1
 278 849 l 1,3,-1
 50 1108 l 1,4,-1
 614 1676 l 1,5,-1
 1179 1108 l 1,6,-1
 951 849 l 1,7,-1
 951 261 l 1,8,-1
 1179 0 l 1,0,-1
1101 1108 m 1,9,-1
 614 1598 l 1,10,-1
 128 1108 l 1,11,-1
 338 871 l 1,12,-1
 338 239 l 1,13,-1
 178 56 l 1,14,-1
 1051 56 l 1,15,-1
 891 239 l 1,16,-1
 891 871 l 1,17,-1
 1101 1108 l 1,9,-1
995 1108 m 1,18,-1
 845 937 l 1,19,-1
 845 131 l 1,20,-1
 384 131 l 1,21,-1
 384 937 l 1,22,-1
 234 1108 l 1,23,-1
 614 1489 l 1,24,-1
 995 1108 l 1,18,-1
922 1108 m 1,25,-1
 614 1416 l 1,26,-1
 307 1108 l 1,27,-1
 433 968 l 1,28,-1
 433 186 l 1,29,-1
 796 186 l 1,30,-1
 796 968 l 1,31,-1
 922 1108 l 1,25,-1
833 1108 m 1,32,-1
 745 1011 l 1,33,-1
 745 267 l 1,34,-1
 484 267 l 1,35,-1
 484 1011 l 1,36,-1
 396 1108 l 1,37,-1
 614 1331 l 1,38,-1
 833 1108 l 1,32,-1
780 1108 m 1,39,-1
 614 1278 l 1,40,-1
 449 1108 l 1,41,-1
 523 1027 l 1,42,-1
 523 309 l 1,43,-1
 705 309 l 1,44,-1
 705 1027 l 1,45,-1
 780 1108 l 1,39,-1
EndSplineSet
EndChar

StartChar: uni06EB
Encoding: 1771 1771 393
Width: 0
GlyphClass: 2
Flags: W
LayerCount: 2
Fore
SplineSet
168 1522 m 1,0,-1
 -1 1354 l 1,1,-1
 -168 1521 l 1,2,-1
 1 1689 l 1,3,-1
 168 1522 l 1,0,-1
104 1522 m 1,4,-1
 0 1626 l 1,5,-1
 -104 1521 l 1,6,-1
 0 1417 l 1,7,-1
 104 1522 l 1,4,-1
EndSplineSet
EndChar

StartChar: comma
Encoding: 44 44 402
Width: 523
Flags: W
LayerCount: 2
Fore
SplineSet
429 40 m 0,0,1
 429 -135 429 -135 276 -267 c 0,2,3
 227 -310 227 -310 211 -310 c 0,4,5
 200 -310 200 -310 175 -292 c 1,6,7
 321 -146 321 -146 341 3 c 1,8,9
 244 2 244 2 213 22 c 0,10,11
 175 48 175 48 175 119 c 0,12,13
 175 235 175 235 287 235 c 0,14,15
 429 235 429 235 429 40 c 0,0,1
EndSplineSet
EndChar

StartChar: afii57407
Encoding: 1567 1567 403
Width: 1104
GlyphClass: 2
Flags: W
LayerCount: 2
Fore
SplineSet
203 1061 m 0,0,1
 203 1171 203 1171 281 1253 c 0,2,3
 315 1284 315 1284 494 1323 c 2,4,-1
 731 1376 l 2,5,6
 756 1384 756 1384 773.5 1423 c 128,-1,7
 791 1462 791 1462 795 1462 c 0,8,9
 827 1421 827 1421 827 1323 c 0,10,11
 827 1282 827 1282 795.5 1254.5 c 128,-1,12
 764 1227 764 1227 629 1204 c 0,13,14
 467 1178 467 1178 410 1155 c 0,15,16
 305 1116 305 1116 305 1022 c 0,17,18
 305 946 305 946 397 868 c 0,19,20
 403 860 403 860 551 764 c 0,21,22
 629 715 629 715 657 668 c 0,23,24
 694 604 694 604 694 518 c 0,25,26
 694 442 694 442 676 381 c 1,27,-1
 643 401 l 1,28,-1
 643 434 l 2,29,30
 643 539 643 539 557 604 c 1,31,32
 481 655 481 655 403 711 c 0,33,34
 301 784 301 784 256 836 c 0,35,36
 203 893 203 893 203 1061 c 0,0,1
551 115 m 0,37,38
 551 141 551 141 569 193 c 1,39,40
 586 258 586 258 602 258 c 0,41,42
 627 258 627 258 690.5 219 c 128,-1,43
 754 180 754 180 754 168 c 0,44,45
 754 135 754 135 748 88 c 1,46,47
 731 37 731 37 713 29 c 1,48,49
 629 51 629 51 618 55 c 0,50,51
 551 76 551 76 551 115 c 0,37,38
EndSplineSet
EndChar

StartChar: afii57392
Encoding: 1776 1776 404
Width: 717
Flags: W
LayerCount: 2
Fore
SplineSet
215 643 m 1,0,1
 215 684 215 684 244 770 c 1,2,3
 272 872 272 872 293 872 c 0,4,5
 332 872 332 872 440.5 812 c 128,-1,6
 549 752 549 752 549 725 c 0,7,8
 549 524 549 524 471 498 c 1,9,10
 248 571 248 571 215 612 c 1,11,-1
 215 643 l 1,12,-1
 215 643 l 1,0,1
EndSplineSet
EndChar

StartChar: afii57393
Encoding: 1777 1777 405
Width: 872
Flags: W
LayerCount: 2
Fore
SplineSet
182 1206 m 1,0,1
 182 1243 182 1243 201.5 1339.5 c 128,-1,2
 221 1436 221 1436 242 1450 c 1,3,4
 385 1331 385 1331 577.5 987 c 128,-1,5
 770 643 770 643 764 303 c 0,6,7
 764 244 764 244 735.5 113 c 128,-1,8
 707 -18 707 -18 680 -23 c 1,9,10
 662 29 662 29 655.5 121 c 128,-1,11
 649 213 649 213 565 470 c 128,-1,12
 481 727 481 727 346 935 c 128,-1,13
 211 1143 211 1143 182 1206 c 1,0,1
EndSplineSet
EndChar

StartChar: afii57394
Encoding: 1778 1778 406
Width: 891
Flags: W
LayerCount: 2
Fore
SplineSet
66 1210 m 1,0,1
 66 1247 66 1247 85 1343.5 c 128,-1,2
 104 1440 104 1440 125 1454 c 1,3,4
 215 1378 215 1378 326 1212 c 1,5,6
 412 1137 412 1137 481 1137 c 0,7,8
 616 1137 616 1137 674 1210 c 0,9,10
 707 1251 707 1251 723 1352 c 0,11,12
 739 1436 739 1436 764 1446 c 1,13,14
 799 1430 799 1430 799 1378 c 0,15,16
 799 1151 799 1151 756 1047 c 1,17,18
 696 924 696 924 530 850 c 1,19,20
 651 578 651 578 647 307 c 0,21,22
 647 248 647 248 618.5 117 c 128,-1,23
 590 -14 590 -14 563 -18 c 1,24,25
 545 33 545 33 538.5 125 c 128,-1,26
 532 217 532 217 448.5 474 c 128,-1,27
 365 731 365 731 229.5 939 c 128,-1,28
 94 1147 94 1147 66 1210 c 1,0,1
EndSplineSet
EndChar

StartChar: afii57395
Encoding: 1779 1779 407
Width: 1178
Flags: W
LayerCount: 2
Fore
SplineSet
59 1225 m 1,0,1
 59 1262 59 1262 78.5 1358 c 128,-1,2
 98 1454 98 1454 119 1468 c 1,3,4
 219 1384 219 1384 344 1188 c 1,5,6
 397 1141 397 1141 473 1141 c 0,7,8
 584 1141 584 1141 651 1217 c 0,9,10
 678 1253 678 1253 725 1356 c 1,11,12
 752 1432 752 1432 770 1432 c 1,13,-1
 797 1411 l 1,14,-1
 809 1372 l 1,15,16
 797 1352 797 1352 797 1325 c 0,17,18
 797 1221 797 1221 905 1221 c 0,19,20
 979 1221 979 1221 1014 1262 c 0,21,22
 1032 1284 1032 1284 1047 1356 c 0,23,24
 1059 1411 1059 1411 1083 1427 c 1,25,26
 1108 1397 1108 1397 1108 1358 c 0,27,28
 1108 1239 1108 1239 1057 1110 c 0,29,30
 991 942 991 942 891 942 c 0,31,32
 829 942 829 942 795 958 c 0,33,34
 780 963 780 963 719 1024 c 1,35,36
 692 958 692 958 621 913 c 0,37,38
 569 881 569 881 520 872 c 1,39,40
 645 596 645 596 641 322 c 0,41,42
 641 262 641 262 612.5 131 c 128,-1,43
 584 0 584 0 557 -4 c 1,44,45
 539 47 539 47 532.5 139 c 128,-1,46
 526 231 526 231 442 488 c 128,-1,47
 358 745 358 745 223 953 c 128,-1,48
 88 1161 88 1161 59 1225 c 1,0,1
EndSplineSet
EndChar

StartChar: afii62843
Encoding: 1780 1780 408
Width: 1047
Flags: W
LayerCount: 2
Fore
SplineSet
117 1239 m 1,0,1
 117 1276 117 1276 136.5 1372 c 128,-1,2
 156 1468 156 1468 176 1483 c 1,3,4
 227 1438 227 1438 309 1329.5 c 128,-1,5
 391 1221 391 1221 442 1198 c 1,6,7
 500 1354 500 1354 566.5 1428.5 c 128,-1,8
 633 1503 633 1503 727 1503 c 0,9,10
 764 1503 764 1503 788.5 1486.5 c 128,-1,11
 813 1470 813 1470 833.5 1440.5 c 128,-1,12
 854 1411 854 1411 868.5 1378.5 c 128,-1,13
 883 1346 883 1346 883 1323 c 1,14,15
 827 1327 827 1327 795.5 1329 c 128,-1,16
 764 1331 764 1331 750 1331 c 0,17,18
 631 1331 631 1331 569 1180 c 1,19,20
 623 1128 623 1128 674 1128 c 0,21,22
 778 1128 778 1128 889 1221 c 1,23,24
 934 1204 934 1204 926 1163 c 0,25,26
 844 879 844 879 573 879 c 2,27,-1
 561 879 l 1,28,29
 702 573 702 573 698 336 c 0,30,31
 698 276 698 276 669.5 145 c 128,-1,32
 641 14 641 14 614 10 c 1,33,34
 596 61 596 61 590 153.5 c 128,-1,35
 584 246 584 246 500 503 c 128,-1,36
 416 760 416 760 280.5 968 c 128,-1,37
 145 1176 145 1176 117 1239 c 1,0,1
EndSplineSet
EndChar

StartChar: afii62844
Encoding: 1781 1781 409
Width: 1047
Flags: W
LayerCount: 2
Fore
SplineSet
936 424 m 1,0,1
 961 268 961 268 895 134 c 128,-1,2
 829 0 829 0 710.5 2 c 128,-1,3
 592 4 592 4 541 68 c 1,4,5
 481 4 481 4 369.5 5 c 128,-1,6
 258 6 258 6 190.5 86 c 128,-1,7
 123 166 123 166 127 285 c 1,8,9
 127 451 127 451 212 695.5 c 128,-1,10
 297 940 297 940 356 1055 c 1,11,12
 322 1061 322 1061 322 1083 c 0,13,14
 322 1108 322 1108 457 1323 c 1,15,16
 881 901 881 901 936 424 c 1,0,1
807 399 m 0,17,18
 807 506 807 506 678 716 c 128,-1,19
 549 926 549 926 459 977 c 1,20,21
 262 565 262 565 262 426 c 1,22,23
 250 367 250 367 283.5 316.5 c 128,-1,24
 317 266 317 266 369 266 c 0,25,26
 422 266 422 266 470 303 c 128,-1,27
 518 340 518 340 537 381 c 1,28,29
 543 369 543 369 588 317.5 c 128,-1,30
 633 266 633 266 688 266 c 0,31,32
 807 266 807 266 807 399 c 0,17,18
EndSplineSet
EndChar

StartChar: afii62845
Encoding: 1782 1782 410
Width: 1155
Flags: W
LayerCount: 2
Fore
SplineSet
1038 985 m 1,0,1
 1032 958 1032 958 1027 938 c 128,-1,2
 1022 918 1022 918 987 807 c 1,3,4
 971 782 971 782 829 686 c 0,5,6
 655 567 655 567 469 369.5 c 128,-1,7
 283 172 283 172 238 92 c 0,8,9
 195 12 195 12 156 -27 c 1,10,11
 133 -10 133 -10 162 119 c 0,12,13
 193 250 193 250 217 303 c 0,14,15
 311 510 311 510 487 682 c 1,16,-1
 461 688 l 2,17,18
 371 709 371 709 309 766 c 0,19,20
 225 840 225 840 225 924 c 0,21,22
 225 1040 225 1040 375 1231 c 1,23,24
 543 1432 543 1432 672 1432 c 0,25,26
 735 1432 735 1432 815 1352 c 0,27,28
 897 1272 897 1272 897 1190 c 0,29,30
 897 1165 897 1165 866 1165 c 0,31,32
 848 1165 848 1165 815 1180 c 0,33,34
 690 1249 690 1249 618 1249 c 0,35,36
 559 1249 559 1249 481 1180 c 0,37,38
 403 1112 403 1112 393 1049 c 1,39,40
 408 1006 408 1006 451 956 c 0,41,42
 502 899 502 899 592 899 c 0,43,44
 739 899 739 899 889 985 c 0,45,46
 913 1001 913 1001 932 1012 c 2,47,-1
 973 1040 l 1,48,49
 997 1067 997 1067 1024 1067 c 0,50,51
 1049 1067 1049 1067 1049 1030 c 0,52,53
 1049 1012 1049 1012 1038 985 c 1,0,1
EndSplineSet
EndChar

StartChar: afii57399
Encoding: 1783 1783 411
Width: 1169
Flags: W
LayerCount: 2
Fore
SplineSet
92 1098 m 0,0,1
 92 1327 92 1327 143 1327 c 0,2,3
 233 1327 233 1327 432 924 c 0,4,5
 614 563 614 563 643 418 c 1,6,7
 705 647 705 647 811 973 c 1,8,9
 971 1421 971 1421 1030 1421 c 0,10,11
 1051 1421 1051 1421 1051 1321 c 2,12,-1
 1051 1204 l 1,13,-1
 821 592 l 1,14,15
 770 432 770 432 723 274 c 1,16,17
 637 12 637 12 592 12 c 0,18,19
 571 12 571 12 565 53 c 0,20,21
 524 283 524 283 489 375 c 1,22,23
 371 649 371 649 143 954 c 0,24,25
 92 1026 92 1026 92 1098 c 0,0,1
EndSplineSet
EndChar

StartChar: afii57400
Encoding: 1784 1784 412
Width: 1169
Flags: W
LayerCount: 2
Fore
SplineSet
119 127 m 0,0,1
 119 283 119 283 145 330 c 0,2,3
 289 602 289 602 336 797 c 2,4,-1
 444 1231 l 2,5,6
 492 1423 492 1423 539 1423 c 0,7,8
 559 1423 559 1423 631 1157 c 1,9,10
 680 954 680 954 825 739 c 1,11,12
 895 627 895 627 1100 373 c 1,13,14
 1071 160 1071 160 1071 53 c 1,15,16
 1067 0 1067 0 1049 0 c 0,17,18
 1001 0 1001 0 879 195 c 0,19,20
 776 356 776 356 670 575 c 0,21,22
 545 834 545 834 512 981 c 1,23,24
 492 823 492 823 362 430 c 0,25,26
 215 -10 215 -10 139 -29 c 1,27,28
 119 6 119 6 119 127 c 0,0,1
EndSplineSet
EndChar

StartChar: afii57401
Encoding: 1785 1785 413
Width: 1040
Flags: W
LayerCount: 2
Fore
SplineSet
119 936 m 0,0,1
 119 1083 119 1083 174 1231 c 1,2,3
 256 1425 256 1425 365 1425 c 0,4,5
 512 1425 512 1425 582 1255 c 1,6,7
 618 1155 618 1155 668 903 c 1,8,9
 698 668 698 668 739 608 c 0,10,11
 795 516 795 516 850 422 c 0,12,13
 932 279 932 279 932 227 c 0,14,15
 932 184 932 184 915 109 c 0,16,17
 891 16 891 16 856 16 c 0,18,19
 848 16 848 16 838 20 c 1,20,21
 705 160 705 160 618 379 c 1,22,23
 549 590 549 590 549 799 c 1,24,25
 403 705 403 705 350 705 c 0,26,27
 256 705 256 705 187.5 771.5 c 128,-1,28
 119 838 119 838 119 936 c 0,0,1
262 1069 m 0,29,30
 262 997 262 997 373 997 c 0,31,32
 449 997 449 997 485 1055 c 1,33,-1
 487 1083 l 1,34,35
 487 1155 487 1155 346 1155 c 0,36,37
 311 1155 311 1155 286.5 1124.5 c 128,-1,38
 262 1094 262 1094 262 1069 c 0,29,30
EndSplineSet
EndChar

StartChar: afii57392.001
Encoding: 1632 1632 414
Width: 717
Flags: W
LayerCount: 2
Fore
SplineSet
215 643 m 1,0,1
 215 684 215 684 244 770 c 1,2,3
 272 872 272 872 293 872 c 0,4,5
 332 872 332 872 440.5 812 c 128,-1,6
 549 752 549 752 549 725 c 0,7,8
 549 524 549 524 471 498 c 1,9,10
 248 571 248 571 215 612 c 1,11,-1
 215 643 l 1,12,-1
 215 643 l 1,0,1
EndSplineSet
EndChar

StartChar: afii57393.001
Encoding: 1633 1633 415
Width: 872
Flags: W
LayerCount: 2
Fore
SplineSet
182 1206 m 1,0,1
 182 1243 182 1243 201.5 1339.5 c 128,-1,2
 221 1436 221 1436 242 1450 c 1,3,4
 385 1331 385 1331 577.5 987 c 128,-1,5
 770 643 770 643 764 303 c 0,6,7
 764 244 764 244 735.5 113 c 128,-1,8
 707 -18 707 -18 680 -23 c 1,9,10
 662 29 662 29 655.5 121 c 128,-1,11
 649 213 649 213 565 470 c 128,-1,12
 481 727 481 727 346 935 c 128,-1,13
 211 1143 211 1143 182 1206 c 1,0,1
EndSplineSet
EndChar

StartChar: afii57394.001
Encoding: 1634 1634 416
Width: 891
Flags: W
LayerCount: 2
Fore
SplineSet
66 1210 m 1,0,1
 66 1247 66 1247 85 1343.5 c 128,-1,2
 104 1440 104 1440 125 1454 c 1,3,4
 215 1378 215 1378 326 1212 c 1,5,6
 412 1137 412 1137 481 1137 c 0,7,8
 616 1137 616 1137 674 1210 c 0,9,10
 707 1251 707 1251 723 1352 c 0,11,12
 739 1436 739 1436 764 1446 c 1,13,14
 799 1430 799 1430 799 1378 c 0,15,16
 799 1151 799 1151 756 1047 c 1,17,18
 696 924 696 924 530 850 c 1,19,20
 651 578 651 578 647 307 c 0,21,22
 647 248 647 248 618.5 117 c 128,-1,23
 590 -14 590 -14 563 -18 c 1,24,25
 545 33 545 33 538.5 125 c 128,-1,26
 532 217 532 217 448.5 474 c 128,-1,27
 365 731 365 731 229.5 939 c 128,-1,28
 94 1147 94 1147 66 1210 c 1,0,1
EndSplineSet
EndChar

StartChar: afii57395.001
Encoding: 1635 1635 417
Width: 1178
Flags: W
LayerCount: 2
Fore
SplineSet
59 1225 m 1,0,1
 59 1262 59 1262 78.5 1358 c 128,-1,2
 98 1454 98 1454 119 1468 c 1,3,4
 219 1384 219 1384 344 1188 c 1,5,6
 397 1141 397 1141 473 1141 c 0,7,8
 584 1141 584 1141 651 1217 c 0,9,10
 678 1253 678 1253 725 1356 c 1,11,12
 752 1432 752 1432 770 1432 c 1,13,-1
 797 1411 l 1,14,-1
 809 1372 l 1,15,16
 797 1352 797 1352 797 1325 c 0,17,18
 797 1221 797 1221 905 1221 c 0,19,20
 979 1221 979 1221 1014 1262 c 0,21,22
 1032 1284 1032 1284 1047 1356 c 0,23,24
 1059 1411 1059 1411 1083 1427 c 1,25,26
 1108 1397 1108 1397 1108 1358 c 0,27,28
 1108 1239 1108 1239 1057 1110 c 0,29,30
 991 942 991 942 891 942 c 0,31,32
 829 942 829 942 795 958 c 0,33,34
 780 963 780 963 719 1024 c 1,35,36
 692 958 692 958 621 913 c 0,37,38
 569 881 569 881 520 872 c 1,39,40
 645 596 645 596 641 322 c 0,41,42
 641 262 641 262 612.5 131 c 128,-1,43
 584 0 584 0 557 -4 c 1,44,45
 539 47 539 47 532.5 139 c 128,-1,46
 526 231 526 231 442 488 c 128,-1,47
 358 745 358 745 223 953 c 128,-1,48
 88 1161 88 1161 59 1225 c 1,0,1
EndSplineSet
EndChar

StartChar: afii57396
Encoding: 1636 1636 418
Width: 1137
Flags: W
LayerCount: 2
Fore
SplineSet
90 840 m 0,0,1
 90 961 90 961 280.5 1211.5 c 128,-1,2
 471 1462 471 1462 565 1462 c 0,3,4
 584 1462 584 1462 584 1436 c 0,5,6
 584 1339 584 1339 496 1241 c 0,7,8
 446 1190 446 1190 322 1090 c 0,9,10
 233 1020 233 1020 233 991 c 0,11,12
 233 942 233 942 322 915 c 2,13,-1
 496 862 l 1,14,15
 584 815 584 815 584 741 c 0,16,17
 584 653 584 653 515 529.5 c 128,-1,18
 446 406 446 406 446 375 c 0,19,20
 446 262 446 262 645 262 c 0,21,22
 717 262 717 262 979 326 c 1,23,-1
 1006 307 l 1,24,25
 973 262 973 262 956 244 c 0,26,27
 827 111 827 111 756 59 c 1,28,29
 647 0 647 0 496 0 c 0,30,31
 395 0 395 0 331.5 57.5 c 128,-1,32
 268 115 268 115 268 207 c 0,33,34
 268 262 268 262 326.5 386 c 128,-1,35
 385 510 385 510 385 555 c 0,36,37
 385 584 385 584 309 604 c 0,38,39
 207 635 207 635 164 666 c 0,40,41
 90 721 90 721 90 840 c 0,0,1
EndSplineSet
EndChar

StartChar: afii57397
Encoding: 1637 1637 419
Width: 934
Flags: W
LayerCount: 2
Fore
SplineSet
127 436 m 0,0,1
 127 629 127 629 229 920 c 0,2,3
 354 1264 354 1264 508 1264 c 0,4,5
 594 1264 594 1264 707 1112 c 0,6,7
 848 920 848 920 848 692 c 0,8,9
 848 469 848 469 733 313 c 1,10,11
 618 143 618 143 389 143 c 0,12,13
 281 143 281 143 201 231 c 1,14,15
 127 322 127 322 127 436 c 0,0,1
229 565 m 0,16,17
 229 522 229 522 291.5 470 c 128,-1,18
 354 418 354 418 406 418 c 0,19,20
 430 418 430 418 440 424 c 1,21,22
 446 422 446 422 461 422 c 0,23,24
 539 422 539 422 631 459 c 1,25,26
 729 508 729 508 729 580 c 0,27,28
 729 674 729 674 637 815 c 0,29,30
 532 973 532 973 446 973 c 0,31,32
 354 973 354 973 289 807 c 1,33,34
 229 674 229 674 229 565 c 0,16,17
EndSplineSet
EndChar

StartChar: afii57398
Encoding: 1638 1638 420
Width: 1249
Flags: W
LayerCount: 2
Fore
SplineSet
168 1221 m 0,0,1
 168 1284 168 1284 195 1364 c 0,2,3
 225 1460 225 1460 281 1460 c 0,4,5
 309 1460 309 1460 365 1446 c 0,6,7
 422 1430 422 1430 446 1430 c 1,8,9
 506 1417 506 1417 606 1417 c 0,10,11
 653 1417 653 1417 742 1430.5 c 128,-1,12
 831 1444 831 1444 877 1444 c 0,13,14
 930 1444 930 1444 938 1395 c 1,15,16
 942 1309 942 1309 942 1249 c 0,17,18
 944 1081 944 1081 971 942 c 1,19,20
 987 834 987 834 1049 653 c 1,21,22
 1055 608 1055 608 1147 434 c 1,23,24
 1237 283 1237 283 1237 244 c 0,25,26
 1237 16 1237 16 1141 16 c 0,27,28
 1059 16 1059 16 969 268 c 1,29,30
 831 633 831 633 831 1141 c 1,31,32
 635 1085 635 1085 598 1085 c 2,33,-1
 479 1085 l 2,34,35
 168 1085 168 1085 168 1221 c 0,0,1
EndSplineSet
EndChar

StartChar: afii57399.001
Encoding: 1639 1639 421
Width: 1169
Flags: W
LayerCount: 2
Fore
SplineSet
92 1098 m 0,0,1
 92 1327 92 1327 143 1327 c 0,2,3
 233 1327 233 1327 432 924 c 0,4,5
 614 563 614 563 643 418 c 1,6,7
 705 647 705 647 811 973 c 1,8,9
 971 1421 971 1421 1030 1421 c 0,10,11
 1051 1421 1051 1421 1051 1321 c 2,12,-1
 1051 1204 l 1,13,-1
 821 592 l 1,14,15
 770 432 770 432 723 274 c 1,16,17
 637 12 637 12 592 12 c 0,18,19
 571 12 571 12 565 53 c 0,20,21
 524 283 524 283 489 375 c 1,22,23
 371 649 371 649 143 954 c 0,24,25
 92 1026 92 1026 92 1098 c 0,0,1
EndSplineSet
EndChar

StartChar: afii57400.001
Encoding: 1640 1640 422
Width: 1169
Flags: W
LayerCount: 2
Fore
SplineSet
119 127 m 0,0,1
 119 283 119 283 145 330 c 0,2,3
 289 602 289 602 336 797 c 2,4,-1
 444 1231 l 2,5,6
 492 1423 492 1423 539 1423 c 0,7,8
 559 1423 559 1423 631 1157 c 1,9,10
 680 954 680 954 825 739 c 1,11,12
 895 627 895 627 1100 373 c 1,13,14
 1071 160 1071 160 1071 53 c 1,15,16
 1067 0 1067 0 1049 0 c 0,17,18
 1001 0 1001 0 879 195 c 0,19,20
 776 356 776 356 670 575 c 0,21,22
 545 834 545 834 512 981 c 1,23,24
 492 823 492 823 362 430 c 0,25,26
 215 -10 215 -10 139 -29 c 1,27,28
 119 6 119 6 119 127 c 0,0,1
EndSplineSet
EndChar

StartChar: afii57401.001
Encoding: 1641 1641 423
Width: 1040
Flags: W
LayerCount: 2
Fore
SplineSet
119 936 m 0,0,1
 119 1083 119 1083 174 1231 c 1,2,3
 256 1425 256 1425 365 1425 c 0,4,5
 512 1425 512 1425 582 1255 c 1,6,7
 618 1155 618 1155 668 903 c 1,8,9
 698 668 698 668 739 608 c 0,10,11
 795 516 795 516 850 422 c 0,12,13
 932 279 932 279 932 227 c 0,14,15
 932 184 932 184 915 109 c 0,16,17
 891 16 891 16 856 16 c 0,18,19
 848 16 848 16 838 20 c 1,20,21
 705 160 705 160 618 379 c 1,22,23
 549 590 549 590 549 799 c 1,24,25
 403 705 403 705 350 705 c 0,26,27
 256 705 256 705 187.5 771.5 c 128,-1,28
 119 838 119 838 119 936 c 0,0,1
262 1069 m 0,29,30
 262 997 262 997 373 997 c 0,31,32
 449 997 449 997 485 1055 c 1,33,-1
 487 1083 l 1,34,35
 487 1155 487 1155 346 1155 c 0,36,37
 311 1155 311 1155 286.5 1124.5 c 128,-1,38
 262 1094 262 1094 262 1069 c 0,29,30
EndSplineSet
EndChar

StartChar: guillemotleft
Encoding: 171 171 424
Width: 641
Flags: W
LayerCount: 2
Fore
SplineSet
535 18 m 1,0,1
 537 4 537 4 524 4 c 0,2,3
 518 4 518 4 502 18 c 0,4,5
 313 168 313 168 313 440 c 0,6,7
 313 555 313 555 373 672 c 1,8,9
 428 795 428 795 524 850 c 1,10,11
 528 846 528 846 535 838 c 1,12,13
 528 819 528 819 518 795 c 0,14,15
 496 758 496 758 494 752 c 0,16,17
 440 639 440 639 440 436 c 0,18,19
 440 317 440 317 459 229 c 0,20,21
 477 156 477 156 528 33 c 1,22,-1
 535 18 l 1,0,1
281 18 m 1,23,24
 281 4 281 4 268 4 c 0,25,26
 262 4 262 4 248 18 c 0,27,28
 156 84 156 84 106 207 c 0,29,30
 63 317 63 317 63 440 c 0,31,32
 63 678 63 678 248 838 c 0,33,34
 248 840 248 840 268 850 c 1,35,36
 281 850 281 850 281 838 c 1,37,38
 272 831 272 831 272 819 c 1,39,40
 248 768 248 768 211 659 c 1,41,42
 184 545 184 545 184 360 c 0,43,44
 184 285 184 285 211 207 c 1,45,46
 233 127 233 127 248 78 c 1,47,48
 262 63 262 63 272 33 c 0,49,50
 272 27 272 27 281 18 c 1,23,24
EndSplineSet
EndChar

StartChar: guillemotright
Encoding: 187 187 425
Width: 692
Flags: W
LayerCount: 2
Fore
SplineSet
387 -4 m 0,0,1
 387 4 387 4 389 10 c 0,2,3
 401 43 401 43 408 53 c 0,4,5
 428 106 428 106 453 184 c 1,6,7
 473 262 473 262 473 334 c 0,8,9
 473 524 473 524 451 639 c 1,10,11
 414 752 414 752 389 803 c 0,12,13
 387 811 387 811 387 817 c 0,14,15
 387 831 387 831 395 831 c 1,16,17
 408 819 408 819 414 817 c 0,18,19
 602 655 602 655 602 418 c 0,20,21
 602 295 602 295 555 184 c 0,22,23
 502 63 502 63 414 -4 c 0,24,25
 401 -18 401 -18 395 -18 c 0,26,27
 387 -18 387 -18 387 -4 c 0,0,1
135 10 m 1,28,29
 182 135 182 135 197 207 c 0,30,31
 219 295 219 295 219 414 c 0,32,33
 219 618 219 618 168 733 c 0,34,35
 168 737 168 737 150 772 c 0,36,37
 133 797 133 797 133 817 c 0,38,39
 135 825 135 825 139 831 c 1,40,41
 233 774 233 774 291 651 c 0,42,43
 344 535 344 535 344 418 c 0,44,45
 344 150 344 150 162 -4 c 0,46,47
 150 -18 150 -18 139 -18 c 0,48,49
 127 -18 127 -18 127 -4 c 1,50,-1
 135 10 l 1,28,29
EndSplineSet
EndChar

StartChar: quoteleft
Encoding: 8216 8216 426
Width: 425
Flags: W
LayerCount: 2
Fore
SplineSet
121 993 m 0,0,1
 122 1058 122 1058 166 1121.5 c 128,-1,2
 210 1185 210 1185 265 1211 c 1,3,-1
 296 1153 l 1,4,5
 280 1144 280 1144 258 1120 c 128,-1,6
 236 1096 236 1096 226 1058 c 1,7,8
 292 1030 292 1030 289 975 c 0,9,10
 289 959 289 959 282.5 944.5 c 128,-1,11
 276 930 276 930 265 919 c 128,-1,12
 254 908 254 908 239 901.5 c 128,-1,13
 224 895 224 895 208 895 c 0,14,15
 188 895 188 895 171.5 903.5 c 128,-1,16
 155 912 155 912 144 925.5 c 128,-1,17
 133 939 133 939 127 957 c 128,-1,18
 121 975 121 975 121 993 c 0,0,1
EndSplineSet
EndChar

StartChar: quoteright
Encoding: 8217 8217 427
Width: 372
Flags: W
LayerCount: 2
Fore
SplineSet
311 1113 m 0,0,1
 310 1048 310 1048 266 984.5 c 128,-1,2
 222 921 222 921 167 895 c 1,3,-1
 136 953 l 1,4,5
 152 962 152 962 174 986 c 128,-1,6
 196 1010 196 1010 206 1048 c 1,7,8
 140 1076 140 1076 143 1131 c 0,9,10
 143 1147 143 1147 149.5 1161.5 c 128,-1,11
 156 1176 156 1176 167 1187 c 128,-1,12
 178 1198 178 1198 192.5 1204.5 c 128,-1,13
 207 1211 207 1211 224 1211 c 0,14,15
 244 1211 244 1211 260 1202.5 c 128,-1,16
 276 1194 276 1194 287.5 1180.5 c 128,-1,17
 299 1167 299 1167 305 1149 c 128,-1,18
 311 1131 311 1131 311 1113 c 0,0,1
EndSplineSet
EndChar

StartChar: afii57451
Encoding: 1611 1611 428
Width: 0
GlyphClass: 4
Flags: W
AnchorPoint: "Anchor-2" 0 0 mark 0
AnchorPoint: "Anchor-0" 0 0 mark 0
LayerCount: 2
Fore
SplineSet
-220 92 m 1,0,-1
 213 319 l 1,1,-1
 213 219 l 1,2,-1
 -220 0 l 1,3,-1
 -220 92 l 1,0,-1
-220 282 m 1,4,-1
 213 509 l 1,5,-1
 213 411 l 1,6,-1
 -220 194 l 1,7,-1
 -220 282 l 1,4,-1
EndSplineSet
EndChar

StartChar: afii57454
Encoding: 1614 1614 429
Width: 0
GlyphClass: 4
Flags: W
AnchorPoint: "Anchor-2" 0 0 mark 0
AnchorPoint: "Anchor-0" 0 0 mark 0
LayerCount: 2
Fore
SplineSet
-220 92 m 1,0,-1
 213 319 l 1,1,-1
 213 221 l 1,2,-1
 -220 4 l 1,3,-1
 -220 92 l 1,0,-1
EndSplineSet
EndChar

StartChar: afii57455
Encoding: 1615 1615 430
Width: 0
GlyphClass: 4
Flags: W
AnchorPoint: "Anchor-2" 0 0 mark 0
AnchorPoint: "Anchor-0" 0 0 mark 0
LayerCount: 2
Fore
SplineSet
-184 55 m 1,0,1
 -53 119 -53 119 4 217 c 1,2,3
 -57 248 -57 248 -57 330 c 0,4,5
 -57 387 -57 387 -4 459 c 1,6,7
 53 527 53 527 113 527 c 0,8,9
 211 527 211 527 211 434 c 0,10,11
 211 324 211 324 150 258 c 1,12,13
 184 234 184 234 211 232 c 1,14,15
 219 217 219 217 219 203 c 0,16,17
 219 160 219 160 195 127 c 1,18,19
 106 148 106 148 76 160 c 1,20,21
 -43 35 -43 35 -162 -8 c 1,22,-1
 -184 55 l 1,0,1
18 365 m 0,23,24
 18 299 18 299 72 299 c 0,25,26
 92 299 92 299 113 338 c 0,27,28
 135 375 135 375 135 400 c 0,29,30
 135 451 135 451 78 451 c 0,31,32
 53 451 53 451 35.5 421 c 128,-1,33
 18 391 18 391 18 365 c 0,23,24
EndSplineSet
EndChar

StartChar: afii57452
Encoding: 1612 1612 431
Width: 0
GlyphClass: 4
Flags: W
AnchorPoint: "Anchor-2" 0 0 mark 0
AnchorPoint: "Anchor-0" 0 0 mark 0
LayerCount: 2
Fore
SplineSet
-244 207 m 1,0,1
 -190 264 -190 264 -127 264 c 0,2,3
 -78 264 -78 264 -78 199 c 0,4,5
 -78 160 -78 160 -90 125 c 1,6,7
 4 186 4 186 20 215 c 1,8,9
 -31 281 -31 281 -31 317 c 0,10,11
 -31 364 -31 364 20 428 c 0,12,13
 70 491 70 491 109 491 c 0,14,15
 188 491 188 491 188 399 c 0,16,17
 188 303 188 303 147 254 c 1,18,19
 180 248 180 248 199 238 c 1,20,21
 201 229 201 229 201 215 c 0,22,23
 201 166 201 166 180 147 c 1,24,25
 127 154 127 154 98 160 c 1,26,27
 -90 12 -90 12 -205 -2 c 1,28,-1
 -223 63 l 1,29,-1
 -141 113 l 1,30,31
 -133 131 -133 131 -133 154 c 0,32,33
 -133 188 -133 188 -166 188 c 0,34,35
 -188 188 -188 188 -219 168 c 1,36,-1
 -244 207 l 1,0,1
39 336 m 0,37,38
 39 317 39 317 55.5 295.5 c 128,-1,39
 72 274 72 274 88 274 c 256,40,41
 104 274 104 274 118.5 309 c 128,-1,42
 133 344 133 344 133 364 c 0,43,44
 133 403 133 403 84 403 c 0,45,46
 39 403 39 403 39 336 c 0,37,38
EndSplineSet
EndChar

StartChar: afii57456
Encoding: 1616 1616 432
Width: 0
GlyphClass: 4
Flags: W
AnchorPoint: "Anchor-3" 0 0 mark 0
AnchorPoint: "Anchor-1" 0 0 mark 0
LayerCount: 2
Fore
SplineSet
-220 92 m 1,0,-1
 213 319 l 1,1,-1
 213 221 l 1,2,-1
 -220 4 l 1,3,-1
 -220 92 l 1,0,-1
EndSplineSet
EndChar

StartChar: afii57457
Encoding: 1617 1617 433
Width: 0
GlyphClass: 4
Flags: W
AnchorPoint: "Anchor-2" 0 0 mark 0
AnchorPoint: "Anchor-0" 0 0 mark 0
LayerCount: 2
Fore
SplineSet
-199 134 m 0,0,1
 -199 281 -199 281 -129 275 c 1,2,-1
 -121 275 l 1,3,4
 -142 140 -142 140 -101 140 c 0,5,6
 -49 140 -49 140 -39 205 c 0,7,8
 -29 261 -29 261 -23 310 c 1,9,-1
 39 336 l 1,10,11
 39 299 39 299 41 267 c 0,12,13
 49 218 49 218 84 218 c 0,14,15
 139 218 139 218 139 375 c 1,16,-1
 188 402 l 1,17,18
 200 336 200 336 200 261 c 0,19,20
 200 91 200 91 106 91 c 0,21,22
 61 91 61 91 20 131 c 1,23,24
 -29 52 -29 52 -39 45 c 0,25,26
 -72 5 -72 5 -125 5 c 0,27,28
 -162 5 -162 5 -183 52 c 0,29,30
 -199 95 -199 95 -199 134 c 0,0,1
EndSplineSet
EndChar

StartChar: afii57458
Encoding: 1618 1618 434
Width: 0
GlyphClass: 4
Flags: W
AnchorPoint: "Anchor-2" 0 0 mark 0
AnchorPoint: "Anchor-0" 0 0 mark 0
LayerCount: 2
Fore
SplineSet
-174 190 m 0,0,1
 -174 262 -174 262 -126 315 c 128,-1,2
 -78 368 -78 368 2 368 c 0,3,4
 73 368 73 368 126.5 315 c 128,-1,5
 180 262 180 262 180 190 c 0,6,7
 180 116 180 116 126.5 66 c 128,-1,8
 73 16 73 16 2 16 c 0,9,10
 -78 16 -78 16 -126 66 c 128,-1,11
 -174 116 -174 116 -174 190 c 0,0,1
-109 188 m 256,12,13
 -109 141 -109 141 -76 108 c 128,-1,14
 -43 75 -43 75 2 75 c 0,15,16
 51 75 51 75 83.5 108 c 128,-1,17
 116 141 116 141 116 188 c 256,18,19
 116 235 116 235 83.5 269 c 128,-1,20
 51 303 51 303 2 303 c 0,21,22
 -43 303 -43 303 -76 269 c 128,-1,23
 -109 235 -109 235 -109 188 c 256,12,13
EndSplineSet
EndChar

StartChar: exclam
Encoding: 33 33 437
Width: 633
GlyphClass: 2
Flags: W
LayerCount: 2
Fore
SplineSet
190 1280 m 0,0,1
 190 1333 190 1333 225 1380 c 0,2,3
 266 1434 266 1434 322 1434 c 0,4,5
 369 1434 369 1434 414 1381.5 c 128,-1,6
 459 1329 459 1329 455 1280 c 0,7,8
 377 666 377 666 364.5 579 c 128,-1,9
 352 492 352 492 352 481 c 1,10,-1
 281 481 l 1,11,12
 279 578 279 578 250 795 c 2,13,-1
 193 1257 l 2,14,15
 190 1276 190 1276 190 1280 c 0,0,1
182 178 m 0,16,17
 197 213 197 213 242 270 c 0,18,19
 295 340 295 340 309 334 c 0,20,21
 334 326 334 326 399.5 246 c 128,-1,22
 465 166 465 166 459 147 c 0,23,24
 444 111 444 111 412 61 c 0,25,26
 373 -2 373 -2 342 0 c 1,27,28
 250 66 250 66 240 70 c 0,29,30
 166 133 166 133 182 178 c 0,16,17
EndSplineSet
EndChar

StartChar: afii64060
Encoding: 64830 64830 438
Width: 846
GlyphClass: 2
Flags: W
LayerCount: 2
Fore
SplineSet
150 696 m 0,0,1
 150 1194 150 1194 510 1669 c 1,2,-1
 641 1669 l 1,3,4
 477 1397 477 1397 416 1202 c 1,5,6
 338 973 338 973 338 696 c 0,7,8
 338 207 338 207 641 -272 c 1,9,-1
 510 -272 l 1,10,11
 150 186 150 186 150 696 c 0,0,1
EndSplineSet
EndChar

StartChar: afii64061
Encoding: 64831 64831 439
Width: 846
GlyphClass: 2
Flags: W
LayerCount: 2
Fore
SplineSet
743 696 m 0,0,1
 743 186 743 186 383 -272 c 1,2,-1
 252 -272 l 1,3,4
 555 207 555 207 555 696 c 0,5,6
 555 973 555 973 477 1202 c 1,7,8
 416 1397 416 1397 252 1669 c 1,9,-1
 383 1669 l 1,10,11
 743 1194 743 1194 743 696 c 0,0,1
EndSplineSet
EndChar

StartChar: afii62821
Encoding: 65252 65252 440
Width: 817
GlyphClass: 2
Flags: W
AnchorPoint: "Anchor-1" 390 -585 basechar 0
AnchorPoint: "Anchor-0" 315 780 basechar 0
LayerCount: 2
Fore
SplineSet
-18 207 m 1,0,1
 43 205 43 205 121 219 c 1,2,3
 176 262 176 262 225 342 c 0,4,5
 262 408 262 408 299 477 c 1,6,7
 371 533 371 533 477 428 c 0,8,9
 522 381 522 381 561 330 c 1,10,11
 602 289 602 289 693 243 c 128,-1,12
 784 197 784 197 838 205 c 1,13,-1
 838 0 l 1,14,15
 684 -4 684 -4 549 84 c 1,16,17
 535 33 535 33 524 23 c 1,18,19
 508 -4 508 -4 467 -4 c 0,20,21
 408 -4 408 -4 302.5 43 c 128,-1,22
 197 90 197 90 162 133 c 1,23,24
 78 0 78 0 0 0 c 2,25,-1
 -18 0 l 1,26,-1
 -18 207 l 1,0,1
285 289 m 1,27,28
 408 242 408 242 477 217 c 1,29,30
 424 377 424 377 352 377 c 0,31,32
 313 377 313 377 285 289 c 1,27,28
EndSplineSet
EndChar

StartChar: uni25CC
Encoding: 9676 9676 441
Width: 911
Flags: W
AnchorPoint: "Anchor-1" 480 -435 basechar 0
AnchorPoint: "Anchor-0" 465 930 basechar 0
LayerCount: 2
Fore
SplineSet
771 629 m 256,0,1
 771 592 771 592 734 592 c 0,2,3
 695 592 695 592 695 629 c 256,4,5
 695 666 695 666 734 666 c 0,6,7
 771 666 771 666 771 629 c 256,0,1
658 703 m 0,8,9
 658 666 658 666 621 666 c 0,10,11
 582 666 582 666 582 703 c 0,12,13
 582 742 582 742 621 742 c 0,14,15
 658 742 658 742 658 703 c 0,8,9
847 516 m 0,16,17
 847 477 847 477 808 477 c 0,18,19
 771 477 771 477 771 516 c 0,20,21
 771 553 771 553 810 553 c 0,22,23
 847 553 847 553 847 516 c 0,16,17
873 384 m 256,24,25
 873 347 873 347 836 347 c 0,26,27
 797 347 797 347 797 384 c 256,28,29
 797 421 797 421 836 421 c 0,30,31
 873 421 873 421 873 384 c 256,24,25
525 731 m 0,32,33
 525 692 525 692 488 692 c 256,34,35
 451 692 451 692 451 731 c 0,36,37
 451 768 451 768 488 768 c 256,38,39
 525 768 525 768 525 731 c 0,32,33
847 251 m 0,40,41
 847 214 847 214 808 214 c 0,42,43
 771 214 771 214 771 251 c 0,44,45
 771 290 771 290 808 290 c 0,46,47
 847 290 847 290 847 251 c 0,40,41
394 703 m 0,48,49
 394 666 394 666 356 666 c 0,50,51
 319 666 319 666 319 703 c 0,52,53
 319 742 319 742 356 742 c 0,54,55
 394 742 394 742 394 703 c 0,48,49
282 629 m 256,56,57
 282 592 282 592 243 592 c 0,58,59
 206 592 206 592 206 627 c 0,60,61
 206 666 206 666 243 666 c 0,62,63
 282 666 282 666 282 629 c 256,56,57
771 138 m 0,64,65
 771 101 771 101 734 101 c 256,66,67
 697 101 697 101 697 138 c 0,68,69
 697 177 697 177 734 177 c 256,70,71
 771 177 771 177 771 138 c 0,64,65
658 64 m 0,72,73
 658 27 658 27 621 27 c 256,74,75
 584 27 584 27 584 64 c 0,76,77
 584 103 584 103 621 103 c 256,78,79
 658 103 658 103 658 64 c 0,72,73
206 516 m 0,80,81
 206 477 206 477 171 477 c 0,82,83
 132 477 132 477 132 516 c 0,84,85
 132 553 132 553 169 553 c 256,86,87
 206 553 206 553 206 516 c 0,80,81
180 384 m 256,88,89
 180 347 180 347 143 347 c 0,90,91
 104 347 104 347 104 384 c 256,92,93
 104 421 104 421 143 421 c 0,94,95
 180 421 180 421 180 384 c 256,88,89
525 38 m 0,96,97
 525 -1 525 -1 488 -1 c 256,98,99
 451 -1 451 -1 451 38 c 0,100,101
 451 75 451 75 488 75 c 256,102,103
 525 75 525 75 525 38 c 0,96,97
394 66 m 0,104,105
 394 27 394 27 356 27 c 0,106,107
 319 27 319 27 319 64 c 0,108,109
 319 103 319 103 356 103 c 0,110,111
 394 103 394 103 394 66 c 0,104,105
206 251 m 0,112,113
 206 214 206 214 169 214 c 256,114,115
 132 214 132 214 132 251 c 0,116,117
 132 290 132 290 169 290 c 256,118,119
 206 290 206 290 206 251 c 0,112,113
282 138 m 0,120,121
 282 101 282 101 245 101 c 0,122,123
 206 101 206 101 206 138 c 0,124,125
 206 177 206 177 243 177 c 0,126,127
 282 177 282 177 282 138 c 0,120,121
EndSplineSet
EndChar

StartChar: afii62819
Encoding: 65246 65246 442
Width: 1049
GlyphClass: 2
Flags: W
AnchorPoint: "Anchor-1" 540 -1230 basechar 0
AnchorPoint: "Anchor-0" 495 1515 basechar 0
LayerCount: 2
Fore
SplineSet
33 -332 m 0,0,1
 33 -268 33 -268 92 -102 c 0,2,3
 154 78 154 78 184 78 c 1,4,-1
 197 72 l 1,5,-1
 207 53 l 1,6,7
 197 27 197 27 156 -86 c 0,8,9
 127 -170 127 -170 127 -225 c 0,10,11
 127 -352 127 -352 199.5 -418.5 c 128,-1,12
 272 -485 272 -485 401 -485 c 0,13,14
 692 -485 692 -485 817 -272 c 1,15,16
 817 53 817 53 719 719 c 0,17,18
 692 881 692 881 682 961 c 0,19,20
 641 1235 641 1235 641 1276 c 0,21,22
 641 1280 641 1280 670 1427 c 1,23,-1
 678 1438 l 1,24,-1
 692 1419 l 1,25,26
 741 1325 741 1325 764 1178 c 1,27,28
 774 1053 774 1053 795 926 c 1,29,30
 834 629 834 629 862 512 c 0,31,32
 940 188 940 188 1061 207 c 1,33,-1
 1061 0 l 1,34,35
 944 0 944 0 872 119 c 1,36,37
 881 -43 881 -43 891 -272 c 0,38,39
 897 -467 897 -467 741 -586 c 0,40,41
 592 -702 592 -702 401 -702 c 0,42,43
 229 -702 229 -702 131 -602 c 128,-1,44
 33 -502 33 -502 33 -332 c 0,0,1
EndSplineSet
EndChar

StartChar: braceright
Encoding: 125 125 445
Width: 830
GlyphClass: 2
Flags: W
LayerCount: 2
Fore
SplineSet
150 1172 m 1,0,-1
 150 1202 l 1,1,2
 290 1183 290 1183 378.5 1088 c 128,-1,3
 467 993 467 993 467 876 c 0,4,5
 467 815 467 815 448 735 c 128,-1,6
 429 655 429 655 429 611 c 0,7,8
 429 549 429 549 479.5 496.5 c 128,-1,9
 530 444 530 444 621 432 c 1,10,-1
 621 397 l 1,11,12
 530 386 530 386 479.5 332.5 c 128,-1,13
 429 279 429 279 429 219 c 0,14,15
 429 175 429 175 448 93.5 c 128,-1,16
 467 12 467 12 467 -49 c 0,17,18
 467 -162 467 -162 378.5 -258 c 128,-1,19
 290 -354 290 -354 150 -373 c 1,20,-1
 150 -345 l 1,21,22
 248 -319 248 -319 294 -266 c 128,-1,23
 340 -213 340 -213 340 -148 c 0,24,25
 340 -98 340 -98 321 -16.5 c 128,-1,26
 302 65 302 65 302 122 c 0,27,28
 302 208 302 208 365 288.5 c 128,-1,29
 428 369 428 369 551 412 c 1,30,31
 430 457 430 457 366 539 c 128,-1,32
 302 621 302 621 302 707 c 0,33,34
 302 763 302 763 321 845 c 128,-1,35
 340 927 340 927 340 977 c 0,36,37
 340 1042 340 1042 294 1095 c 128,-1,38
 248 1148 248 1148 150 1172 c 1,0,-1
EndSplineSet
EndChar

StartChar: uni0656
Encoding: 1622 1622 452
Width: 0
GlyphClass: 4
Flags: W
AnchorPoint: "Anchor-3" 0 0 mark 0
AnchorPoint: "Anchor-1" 0 0 mark 0
LayerCount: 2
Fore
SplineSet
22 70 m 1,0,-1
 -18 -18 l 1,1,2
 -24 44 -24 44 -33.5 175 c 128,-1,3
 -43 306 -43 306 -76 374 c 1,4,5
 9 514 9 514 14 514 c 0,6,7
 35 509 35 509 43.5 392 c 128,-1,8
 52 275 52 275 22 70 c 1,0,-1
EndSplineSet
EndChar

StartChar: E005
Encoding: 65578 -1 470
Width: 295
GlyphClass: 3
Flags: W
LayerCount: 2
Fore
SplineSet
-10 0 m 1,0,-1
 -10 147 l 1,1,-1
 305 147 l 1,2,-1
 305 0 l 1,3,-1
 -10 0 l 1,0,-1
EndSplineSet
EndChar

StartChar: afii57470
Encoding: 1726 1726 480
Width: 944
Flags: W
AnchorPoint: "Anchor-1" 315 -570 basechar 0
AnchorPoint: "Anchor-0" 315 1215 basechar 0
LayerCount: 2
Fore
SplineSet
-18 207 m 1,0,1
 63 207 63 207 164 233 c 0,2,3
 285 262 285 262 334 299 c 1,4,5
 281 414 281 414 281 428 c 0,6,7
 281 473 281 473 322 537 c 0,8,9
 365 612 365 612 373 641 c 1,10,11
 344 659 344 659 344 705 c 0,12,13
 344 752 344 752 373 811 c 1,14,15
 401 881 401 881 440 881 c 0,16,17
 563 881 563 881 725 692 c 0,18,19
 854 545 854 545 860 537 c 0,20,21
 944 424 944 424 944 344 c 0,22,23
 944 307 944 307 868 184 c 0,24,25
 846 156 846 156 788 156 c 0,26,27
 592 156 592 156 494 205 c 1,28,29
 377 141 377 141 262 78 c 1,30,31
 98 0 98 0 0 0 c 2,32,-1
 -18 0 l 1,33,-1
 -18 207 l 1,0,1
592 338 m 1,34,35
 774 291 774 291 811 291 c 0,36,37
 838 291 838 291 838 311 c 0,38,39
 838 352 838 352 745 446 c 0,40,41
 678 518 678 518 612 561 c 1,42,43
 629 451 629 451 592 338 c 1,34,35
344 424 m 0,44,45
 344 401 344 401 352 399 c 0,46,47
 414 365 414 365 477 373 c 1,48,49
 545 418 545 418 545 467 c 0,50,51
 545 508 545 508 524 545 c 0,52,53
 502 580 502 580 467 580 c 0,54,55
 436 580 436 580 390 518.5 c 128,-1,56
 344 457 344 457 344 424 c 0,44,45
EndSplineSet
Substitution2: "'medi' Medial Forms in Arabic lookup 3 subtable" afii62827
Substitution2: "'fina' Terminal Forms in Arabic lookup 2 subtable" afii62827
Substitution2: "'init' Initial Forms in Arabic lookup 1 subtable" afii57470
EndChar

StartChar: at
Encoding: 64 64 489
Width: 1594
Flags: W
LayerCount: 2
Fore
SplineSet
1189 809 m 1,0,-1
 1091 472 l 2,1,2
 1036 283 1036 283 1024 232 c 128,-1,3
 1012 181 1012 181 1012 151 c 0,4,5
 1012 125 1012 125 1030 105.5 c 128,-1,6
 1048 86 1048 86 1075 86 c 0,7,8
 1138 86 1138 86 1224 148 c 128,-1,9
 1310 210 1310 210 1372 349 c 128,-1,10
 1434 488 1434 488 1434 637 c 0,11,12
 1434 782 1434 782 1364.5 904.5 c 128,-1,13
 1295 1027 1295 1027 1167.5 1093 c 128,-1,14
 1040 1159 1040 1159 886 1159 c 0,15,16
 690 1159 690 1159 523.5 1055 c 128,-1,17
 357 951 357 951 259 757 c 128,-1,18
 161 563 161 563 161 352 c 0,19,20
 161 158 161 158 246.5 0 c 128,-1,21
 332 -158 332 -158 488 -240.5 c 128,-1,22
 644 -323 644 -323 823 -323 c 0,23,24
 1045 -323 1045 -323 1224.5 -203.5 c 128,-1,25
 1404 -84 1404 -84 1501 146 c 1,26,-1
 1551 146 l 1,27,28
 1476 -86 1476 -86 1275.5 -229.5 c 128,-1,29
 1075 -373 1075 -373 819 -373 c 0,30,31
 617 -373 617 -373 445 -278 c 128,-1,32
 273 -183 273 -183 178 -8.5 c 128,-1,33
 83 166 83 166 83 375 c 0,34,35
 83 598 83 598 187.5 791 c 128,-1,36
 292 984 292 984 480.5 1093 c 128,-1,37
 669 1202 669 1202 880 1202 c 0,38,39
 1056 1202 1056 1202 1196.5 1129.5 c 128,-1,40
 1337 1057 1337 1057 1411 918.5 c 128,-1,41
 1485 780 1485 780 1485 623 c 0,42,43
 1485 468 1485 468 1415.5 316.5 c 128,-1,44
 1346 165 1346 165 1240 96 c 128,-1,45
 1134 27 1134 27 1018 27 c 0,46,47
 953 27 953 27 921 56.5 c 128,-1,48
 889 86 889 86 889 141 c 0,49,50
 889 189 889 189 904 266 c 1,51,52
 780 115 780 115 704 70 c 128,-1,53
 628 25 628 25 571 25 c 0,54,55
 511 25 511 25 465 79 c 128,-1,56
 419 133 419 133 419 222 c 0,57,58
 419 345 419 345 498.5 496.5 c 128,-1,59
 578 648 578 648 709 745 c 0,60,61
 806 814 806 814 884 814 c 0,62,63
 940 814 940 814 978 785 c 128,-1,64
 1016 756 1016 756 1028 698 c 1,65,-1
 1057 791 l 1,66,-1
 1189 809 l 1,0,-1
894 775 m 0,67,68
 830 775 830 775 764 708 c 0,69,70
 669 611 669 611 602 444 c 0,71,72
 551 322 551 322 551 247 c 0,73,74
 551 194 551 194 581.5 161 c 128,-1,75
 612 128 612 128 648 128 c 0,76,77
 698 128 698 128 751.5 165 c 128,-1,78
 805 202 805 202 864.5 279.5 c 128,-1,79
 924 357 924 357 951 434 c 0,80,81
 999 568 999 568 999 653 c 0,82,83
 999 708 999 708 968 741.5 c 128,-1,84
 937 775 937 775 894 775 c 0,67,68
EndSplineSet
EndChar

StartChar: A
Encoding: 65 65 490
Width: 1249
Flags: W
LayerCount: 2
Fore
SplineSet
792 383 m 1,0,-1
 348 383 l 1,1,-1
 271 203 l 2,2,3
 242 136 242 136 242 104 c 0,4,5
 242 77 242 77 267 56.5 c 128,-1,6
 292 36 292 36 373 32 c 1,7,-1
 373 0 l 1,8,-1
 13 0 l 1,9,-1
 13 32 l 1,10,11
 85 44 85 44 107 64 c 0,12,13
 150 105 150 105 202 229 c 2,14,-1
 605 1172 l 1,15,-1
 635 1172 l 1,16,-1
 1033 219 l 2,17,18
 1081 104 1081 104 1120.5 70 c 128,-1,19
 1160 36 1160 36 1230 32 c 1,20,-1
 1230 0 l 1,21,-1
 779 0 l 1,22,-1
 779 32 l 1,23,24
 847 35 847 35 871 54.5 c 128,-1,25
 895 74 895 74 895 102 c 0,26,27
 895 138 895 138 861 219 c 2,28,-1
 792 383 l 1,0,-1
768 445 m 1,29,-1
 573 909 l 1,30,-1
 373 445 l 1,31,-1
 768 445 l 1,29,-1
EndSplineSet
EndChar

StartChar: B
Encoding: 66 66 491
Width: 1154
Flags: W
LayerCount: 2
Fore
SplineSet
800 585 m 1,0,1
 919 560 919 560 978 504 c 0,2,3
 1059 425 1059 425 1059 314 c 0,4,5
 1059 228 1059 228 1005 150 c 128,-1,6
 951 72 951 72 856.5 36 c 128,-1,7
 762 0 762 0 569 0 c 2,8,-1
 29 0 l 1,9,-1
 29 32 l 1,10,-1
 72 32 l 2,11,12
 144 32 144 32 176 77 c 0,13,14
 194 107 194 107 194 203 c 2,15,-1
 194 943 l 2,16,17
 194 1049 194 1049 170 1077 c 0,18,19
 137 1114 137 1114 72 1114 c 2,20,-1
 29 1114 l 1,21,-1
 29 1145 l 1,22,-1
 524 1145 l 2,23,24
 662 1145 662 1145 746 1126 c 0,25,26
 873 1095 873 1095 939.5 1017.5 c 128,-1,27
 1006 940 1006 940 1006 840 c 0,28,29
 1006 754 1006 754 953.5 685.5 c 128,-1,30
 901 617 901 617 800 585 c 1,0,1
357 631 m 1,31,32
 388 624 388 624 428 621.5 c 128,-1,33
 468 619 468 619 516 619 c 0,34,35
 640 619 640 619 701.5 645.5 c 128,-1,36
 763 672 763 672 796.5 726.5 c 128,-1,37
 830 781 830 781 830 847 c 0,38,39
 830 948 830 948 747.5 1018.5 c 128,-1,40
 665 1089 665 1089 509 1089 c 0,41,42
 424 1089 424 1089 357 1070 c 1,43,-1
 357 631 l 1,31,32
357 83 m 1,44,45
 454 60 454 60 550 60 c 0,46,47
 704 60 704 60 784 129 c 128,-1,48
 864 198 864 198 864 299 c 0,49,50
 864 366 864 366 827.5 427.5 c 128,-1,51
 791 489 791 489 709 524.5 c 128,-1,52
 627 560 627 560 506 560 c 0,53,54
 454 560 454 560 416.5 558.5 c 128,-1,55
 379 557 379 557 357 552 c 1,56,-1
 357 83 l 1,44,45
EndSplineSet
EndChar

StartChar: C
Encoding: 67 67 492
Width: 1154
Flags: W
LayerCount: 2
Fore
SplineSet
1042 1172 m 1,0,-1
 1068 782 l 1,1,-1
 1042 782 l 1,2,3
 990 957 990 957 892.5 1034 c 128,-1,4
 795 1111 795 1111 659 1111 c 0,5,6
 545 1111 545 1111 453 1053 c 128,-1,7
 361 995 361 995 308 868 c 128,-1,8
 255 741 255 741 255 553 c 0,9,10
 255 398 255 398 305 284 c 128,-1,11
 355 170 355 170 455.5 109.5 c 128,-1,12
 556 49 556 49 684 49 c 0,13,14
 795 49 795 49 880 96.5 c 128,-1,15
 965 144 965 144 1068 285 c 1,16,-1
 1094 268 l 1,17,18
 1007 116 1007 116 893 44.5 c 128,-1,19
 779 -27 779 -27 620 -27 c 0,20,21
 336 -27 336 -27 180 185 c 0,22,23
 62 342 62 342 62 556 c 0,24,25
 62 727 62 727 139.5 870.5 c 128,-1,26
 217 1014 217 1014 351.5 1093 c 128,-1,27
 486 1172 486 1172 645 1172 c 0,28,29
 770 1172 770 1172 890 1111 c 0,30,31
 926 1092 926 1092 941 1092 c 0,32,33
 964 1092 964 1092 981 1109 c 0,34,35
 1003 1131 1003 1131 1012 1172 c 1,36,-1
 1042 1172 l 1,0,-1
EndSplineSet
EndChar

StartChar: D
Encoding: 68 68 493
Width: 1249
Flags: W
LayerCount: 2
Fore
SplineSet
30 0 m 1,0,-1
 30 32 l 1,1,-1
 73 32 l 2,2,3
 146 32 146 32 176 78 c 0,4,5
 194 106 194 106 194 203 c 2,6,-1
 194 943 l 2,7,8
 194 1049 194 1049 171 1077 c 0,9,10
 137 1114 137 1114 73 1114 c 2,11,-1
 30 1114 l 1,12,-1
 30 1145 l 1,13,-1
 496 1145 l 2,14,15
 753 1145 753 1145 886.5 1086.5 c 128,-1,16
 1020 1028 1020 1028 1102 892.5 c 128,-1,17
 1184 757 1184 757 1184 579 c 0,18,19
 1184 340 1184 340 1038 180 c 0,20,21
 876 0 876 0 541 0 c 2,22,-1
 30 0 l 1,0,-1
357 83 m 1,23,24
 464 60 464 60 537 60 c 0,25,26
 732 60 732 60 861.5 197.5 c 128,-1,27
 991 335 991 335 991 570 c 0,28,29
 991 808 991 808 861.5 944.5 c 128,-1,30
 732 1081 732 1081 530 1081 c 0,31,32
 454 1081 454 1081 357 1057 c 1,33,-1
 357 83 l 1,23,24
EndSplineSet
EndChar

StartChar: E
Encoding: 69 69 494
Width: 1057
Flags: W
LayerCount: 2
Fore
SplineSet
361 1084 m 1,0,-1
 361 631 l 1,1,-1
 613 631 l 2,2,3
 711 631 711 631 745 660 c 0,4,5
 788 699 788 699 793 796 c 1,6,-1
 825 796 l 1,7,-1
 825 398 l 1,8,-1
 793 398 l 1,9,10
 781 482 781 482 770 505 c 0,11,12
 754 535 754 535 719.5 551.5 c 128,-1,13
 685 568 685 568 613 568 c 2,14,-1
 361 568 l 1,15,-1
 361 191 l 2,16,17
 361 115 361 115 368 99 c 128,-1,18
 375 83 375 83 392 72.5 c 128,-1,19
 409 62 409 62 456 62 c 2,20,-1
 651 62 l 2,21,22
 748 62 748 62 791.5 76 c 128,-1,23
 835 90 835 90 876 129 c 0,24,25
 928 181 928 181 983 287 c 1,26,-1
 1017 287 l 1,27,-1
 919 0 l 1,28,-1
 36 0 l 1,29,-1
 36 32 l 1,30,-1
 76 32 l 2,31,32
 116 32 116 32 153 51 c 0,33,34
 180 64 180 64 190 91 c 128,-1,35
 200 118 200 118 200 202 c 2,36,-1
 200 947 l 2,37,38
 200 1055 200 1055 178 1080 c 0,39,40
 147 1114 147 1114 76 1114 c 2,41,-1
 36 1114 l 1,42,-1
 36 1145 l 1,43,-1
 919 1145 l 1,44,-1
 931 895 l 1,45,-1
 898 895 l 1,46,47
 880 985 880 985 858.5 1019 c 128,-1,48
 837 1053 837 1053 795 1070 c 0,49,50
 761 1084 761 1084 676 1084 c 2,51,-1
 361 1084 l 1,0,-1
EndSplineSet
EndChar

StartChar: F
Encoding: 70 70 495
Width: 962
Flags: W
LayerCount: 2
Fore
SplineSet
354 1084 m 1,0,-1
 354 633 l 1,1,-1
 563 633 l 2,2,3
 635 633 635 633 668 664.5 c 128,-1,4
 701 696 701 696 711 790 c 1,5,-1
 743 790 l 1,6,-1
 743 402 l 1,7,-1
 711 402 l 1,8,9
 711 468 711 468 694.5 499.5 c 128,-1,10
 678 531 678 531 649 547 c 128,-1,11
 620 563 620 563 563 563 c 2,12,-1
 354 563 l 1,13,-1
 354 203 l 2,14,15
 354 116 354 116 366 87 c 0,16,17
 373 66 373 66 400 52 c 0,18,19
 437 32 437 32 478 32 c 2,20,-1
 519 32 l 1,21,-1
 519 0 l 1,22,-1
 28 0 l 1,23,-1
 28 32 l 1,24,-1
 68 32 l 2,25,26
 139 32 139 32 171 73 c 0,27,28
 192 99 192 99 192 203 c 2,29,-1
 192 943 l 2,30,31
 192 1029 192 1029 180 1058 c 0,32,33
 172 1079 172 1079 146 1094 c 0,34,35
 109 1114 109 1114 68 1114 c 2,36,-1
 28 1114 l 1,37,-1
 28 1145 l 1,38,-1
 880 1145 l 1,39,-1
 891 894 l 1,40,-1
 862 894 l 1,41,42
 840 973 840 973 810.5 1011 c 128,-1,43
 781 1049 781 1049 738.5 1066.5 c 128,-1,44
 696 1084 696 1084 606 1084 c 2,45,-1
 354 1084 l 1,0,-1
EndSplineSet
EndChar

StartChar: G
Encoding: 71 71 496
Width: 1249
Flags: W
LayerCount: 2
Fore
SplineSet
1063 1172 m 1,0,-1
 1092 810 l 1,1,-1
 1063 810 l 1,2,3
 1017 946 1017 946 947 1014 c 0,4,5
 844 1113 844 1113 684 1113 c 0,6,7
 465 1113 465 1113 350 940 c 0,8,9
 255 793 255 793 255 591 c 0,10,11
 255 428 255 428 318.5 292.5 c 128,-1,12
 382 157 382 157 485 94.5 c 128,-1,13
 588 32 588 32 695 32 c 0,14,15
 758 32 758 32 817 47.5 c 128,-1,16
 876 63 876 63 931 95 c 1,17,-1
 931 425 l 2,18,19
 931 512 931 512 918.5 538 c 128,-1,20
 906 564 906 564 879 578.5 c 128,-1,21
 852 593 852 593 781 593 c 1,22,-1
 781 625 l 1,23,-1
 1225 625 l 1,24,-1
 1225 593 l 1,25,-1
 1204 593 l 2,26,27
 1139 593 1139 593 1113 549 c 0,28,29
 1096 517 1096 517 1096 425 c 2,30,-1
 1096 75 l 1,31,32
 999 23 999 23 904.5 -2 c 128,-1,33
 810 -27 810 -27 695 -27 c 0,34,35
 362 -27 362 -27 190 187 c 0,36,37
 61 347 61 347 61 556 c 0,38,39
 61 707 61 707 133 845 c 0,40,41
 220 1010 220 1010 370 1098 c 0,42,43
 496 1172 496 1172 667 1172 c 0,44,45
 730 1172 730 1172 781 1161.5 c 128,-1,46
 832 1151 832 1151 926 1117 c 0,47,48
 973 1099 973 1099 990 1099 c 0,49,50
 1005 1099 1005 1099 1016.5 1114 c 128,-1,51
 1028 1129 1028 1129 1031 1172 c 1,52,-1
 1063 1172 l 1,0,-1
EndSplineSet
EndChar

StartChar: H
Encoding: 72 72 497
Width: 1249
Flags: W
LayerCount: 2
Fore
SplineSet
356 614 m 1,0,-1
 888 614 l 1,1,-1
 888 942 l 2,2,3
 888 1031 888 1031 876 1058 c 0,4,5
 868 1079 868 1079 842 1094 c 0,6,7
 804 1114 804 1114 764 1114 c 2,8,-1
 725 1114 l 1,9,-1
 725 1145 l 1,10,-1
 1214 1145 l 1,11,-1
 1214 1114 l 1,12,-1
 1173 1114 l 2,13,14
 1134 1114 1134 1114 1096 1095 c 0,15,16
 1069 1080 1069 1080 1059 1054 c 0,17,18
 1049 1025 1049 1025 1049 942 c 2,19,-1
 1049 203 l 2,20,21
 1049 115 1049 115 1061 87 c 0,22,23
 1070 65 1070 65 1096 52 c 0,24,25
 1132 32 1132 32 1173 32 c 2,26,-1
 1214 32 l 1,27,-1
 1214 0 l 1,28,-1
 725 0 l 1,29,-1
 725 32 l 1,30,-1
 764 32 l 2,31,32
 835 32 835 32 867 73 c 0,33,34
 888 99 888 99 888 203 c 2,35,-1
 888 551 l 1,36,-1
 356 551 l 1,37,-1
 356 203 l 2,38,39
 356 115 356 115 367 87 c 0,40,41
 375 66 375 66 402 52 c 0,42,43
 439 32 439 32 479 32 c 2,44,-1
 520 32 l 1,45,-1
 520 0 l 1,46,-1
 30 0 l 1,47,-1
 30 32 l 1,48,-1
 70 32 l 2,49,50
 141 32 141 32 173 73 c 0,51,52
 193 99 193 99 193 203 c 2,53,-1
 193 942 l 2,54,55
 193 1031 193 1031 182 1058 c 0,56,57
 173 1079 173 1079 148 1094 c 0,58,59
 111 1114 111 1114 70 1114 c 2,60,-1
 30 1114 l 1,61,-1
 30 1145 l 1,62,-1
 520 1145 l 1,63,-1
 520 1114 l 1,64,-1
 479 1114 l 2,65,66
 440 1114 440 1114 402 1095 c 0,67,68
 376 1081 376 1081 366 1054 c 0,69,70
 356 1026 356 1026 356 942 c 2,71,-1
 356 614 l 1,0,-1
EndSplineSet
EndChar

StartChar: I
Encoding: 73 73 498
Width: 577
Flags: W
LayerCount: 2
Fore
SplineSet
535 32 m 1,0,-1
 535 0 l 1,1,-1
 43 0 l 1,2,-1
 43 32 l 1,3,-1
 84 32 l 2,4,5
 155 32 155 32 187 73 c 0,6,7
 207 99 207 99 207 203 c 2,8,-1
 207 943 l 2,9,10
 207 1029 207 1029 197 1058 c 0,11,12
 188 1079 188 1079 161 1094 c 0,13,14
 125 1114 125 1114 84 1114 c 2,15,-1
 43 1114 l 1,16,-1
 43 1145 l 1,17,-1
 535 1145 l 1,18,-1
 535 1114 l 1,19,-1
 492 1114 l 2,20,21
 422 1114 422 1114 391 1073 c 0,22,23
 370 1045 370 1045 370 943 c 2,24,-1
 370 203 l 2,25,26
 370 116 370 116 380 87 c 0,27,28
 389 66 389 66 416 52 c 0,29,30
 452 32 452 32 492 32 c 2,31,-1
 535 32 l 1,0,-1
EndSplineSet
EndChar

StartChar: J
Encoding: 74 74 499
Width: 674
Flags: W
LayerCount: 2
Fore
SplineSet
172 1114 m 1,0,-1
 172 1145 l 1,1,-1
 663 1145 l 1,2,-1
 663 1114 l 1,3,-1
 622 1114 l 2,4,5
 551 1114 551 1114 519 1073 c 0,6,7
 499 1045 499 1045 499 943 c 2,8,-1
 499 382 l 2,9,10
 499 253 499 253 471 173 c 128,-1,11
 443 93 443 93 373.5 33 c 128,-1,12
 304 -27 304 -27 206 -27 c 0,13,14
 127 -27 127 -27 81.5 13 c 128,-1,15
 36 53 36 53 36 104 c 0,16,17
 36 145 36 145 57 166 c 0,18,19
 84 192 84 192 122 192 c 0,20,21
 149 192 149 192 170.5 174 c 128,-1,22
 192 156 192 156 225 79 c 0,23,24
 244 34 244 34 275 34 c 0,25,26
 298 34 298 34 317.5 62 c 128,-1,27
 337 90 337 90 337 160 c 2,28,-1
 337 943 l 2,29,30
 337 1029 337 1029 326 1058 c 0,31,32
 318 1079 318 1079 290 1094 c 0,33,34
 254 1114 254 1114 213 1114 c 2,35,-1
 172 1114 l 1,0,-1
EndSplineSet
EndChar

StartChar: K
Encoding: 75 75 500
Width: 1249
Flags: W
LayerCount: 2
Fore
SplineSet
517 636 m 1,0,-1
 940 215 l 2,1,2
 1044 112 1044 112 1117 74 c 128,-1,3
 1190 36 1190 36 1264 32 c 1,4,-1
 1264 0 l 1,5,-1
 719 0 l 1,6,-1
 719 32 l 1,7,8
 768 32 768 32 789.5 48 c 128,-1,9
 811 64 811 64 811 84 c 0,10,11
 811 105 811 105 803 121 c 128,-1,12
 795 137 795 137 750 180 c 2,13,-1
 355 572 l 1,14,-1
 355 203 l 2,15,16
 355 116 355 116 366 87 c 0,17,18
 373 66 373 66 401 52 c 0,19,20
 437 32 437 32 478 32 c 2,21,-1
 517 32 l 1,22,-1
 517 0 l 1,23,-1
 29 0 l 1,24,-1
 29 32 l 1,25,-1
 70 32 l 2,26,27
 140 32 140 32 172 73 c 0,28,29
 192 99 192 99 192 203 c 2,30,-1
 192 943 l 2,31,32
 192 1029 192 1029 181 1058 c 0,33,34
 173 1079 173 1079 147 1094 c 0,35,36
 109 1114 109 1114 70 1114 c 2,37,-1
 29 1114 l 1,38,-1
 29 1145 l 1,39,-1
 517 1145 l 1,40,-1
 517 1114 l 1,41,-1
 478 1114 l 2,42,43
 439 1114 439 1114 401 1095 c 0,44,45
 375 1081 375 1081 365 1054 c 128,-1,46
 355 1027 355 1027 355 943 c 2,47,-1
 355 592 l 1,48,49
 372 609 372 609 471 699 c 0,50,51
 721 929 721 929 774 1006 c 0,52,53
 796 1040 796 1040 796 1066 c 0,54,55
 796 1085 796 1085 778.5 1099.5 c 128,-1,56
 761 1114 761 1114 719 1114 c 2,57,-1
 693 1114 l 1,58,-1
 693 1145 l 1,59,-1
 1113 1145 l 1,60,-1
 1113 1114 l 1,61,62
 1076 1113 1076 1113 1046 1104 c 128,-1,63
 1016 1095 1016 1095 971.5 1068.5 c 128,-1,64
 927 1042 927 1042 864 982 c 0,65,66
 845 965 845 965 692 809 c 2,67,-1
 517 636 l 1,0,-1
EndSplineSet
EndChar

StartChar: L
Encoding: 76 76 501
Width: 1057
Flags: W
LayerCount: 2
Fore
SplineSet
992 317 m 1,0,-1
 1020 310 l 1,1,-1
 922 0 l 1,2,-1
 35 0 l 1,3,-1
 35 32 l 1,4,-1
 78 32 l 2,5,6
 150 32 150 32 181 78 c 0,7,8
 200 106 200 106 200 204 c 2,9,-1
 200 943 l 2,10,11
 200 1049 200 1049 176 1077 c 0,12,13
 142 1114 142 1114 78 1114 c 2,14,-1
 35 1114 l 1,15,-1
 35 1145 l 1,16,-1
 553 1145 l 1,17,-1
 553 1114 l 1,18,19
 463 1116 463 1116 426 1097.5 c 128,-1,20
 389 1079 389 1079 375 1052 c 128,-1,21
 361 1025 361 1025 361 923 c 2,22,-1
 361 204 l 2,23,24
 361 133 361 133 375 108 c 0,25,26
 386 90 386 90 407 81.5 c 128,-1,27
 428 73 428 73 539 73 c 2,28,-1
 622 73 l 2,29,30
 754 73 754 73 806.5 92.5 c 128,-1,31
 859 112 859 112 903.5 161 c 128,-1,32
 948 210 948 210 992 317 c 1,0,-1
EndSplineSet
EndChar

StartChar: M
Encoding: 77 77 502
Width: 1539
Flags: W
LayerCount: 2
Fore
SplineSet
708 0 m 1,0,-1
 265 964 l 1,1,-1
 265 199 l 2,2,3
 265 93 265 93 288 66 c 0,4,5
 319 32 319 32 387 32 c 2,6,-1
 428 32 l 1,7,-1
 428 0 l 1,8,-1
 29 0 l 1,9,-1
 29 32 l 1,10,-1
 70 32 l 2,11,12
 141 32 141 32 172 75 c 0,13,14
 191 103 191 103 191 199 c 2,15,-1
 191 948 l 2,16,17
 191 1023 191 1023 175 1057 c 0,18,19
 162 1081 162 1081 130.5 1097.5 c 128,-1,20
 99 1114 99 1114 29 1114 c 1,21,-1
 29 1145 l 1,22,-1
 352 1145 l 1,23,-1
 769 250 l 1,24,-1
 1177 1145 l 1,25,-1
 1501 1145 l 1,26,-1
 1501 1114 l 1,27,-1
 1463 1114 l 2,28,29
 1389 1114 1389 1114 1358 1070 c 0,30,31
 1340 1044 1340 1044 1340 948 c 2,32,-1
 1340 199 l 2,33,34
 1340 93 1340 93 1363 66 c 0,35,36
 1395 32 1395 32 1463 32 c 2,37,-1
 1501 32 l 1,38,-1
 1501 0 l 1,39,-1
 1016 0 l 1,40,-1
 1016 32 l 1,41,-1
 1056 32 l 2,42,43
 1130 32 1130 32 1160 75 c 0,44,45
 1177 103 1177 103 1177 199 c 2,46,-1
 1177 964 l 1,47,-1
 736 0 l 1,48,-1
 708 0 l 1,0,-1
EndSplineSet
EndChar

StartChar: N
Encoding: 78 78 503
Width: 1249
Flags: W
LayerCount: 2
Fore
SplineSet
-23 1145 m 1,0,-1
 288 1145 l 1,1,-1
 989 286 l 1,2,-1
 989 948 l 2,3,4
 989 1053 989 1053 965 1079 c 0,5,6
 933 1114 933 1114 866 1114 c 2,7,-1
 826 1114 l 1,8,-1
 826 1145 l 1,9,-1
 1225 1145 l 1,10,-1
 1225 1114 l 1,11,-1
 1185 1114 l 2,12,13
 1112 1114 1112 1114 1081 1070 c 0,14,15
 1063 1044 1063 1044 1063 948 c 2,16,-1
 1063 -19 l 1,17,-1
 1033 -19 l 1,18,-1
 276 904 l 1,19,-1
 276 199 l 2,20,21
 276 93 276 93 300 66 c 0,22,23
 331 32 331 32 399 32 c 2,24,-1
 440 32 l 1,25,-1
 440 0 l 1,26,-1
 40 0 l 1,27,-1
 40 32 l 1,28,-1
 81 32 l 2,29,30
 155 32 155 32 183 75 c 0,31,32
 203 103 203 103 203 199 c 2,33,-1
 203 995 l 1,34,35
 153 1054 153 1054 127.5 1072.5 c 128,-1,36
 102 1091 102 1091 52 1107 c 0,37,38
 28 1114 28 1114 -23 1114 c 1,39,-1
 -23 1145 l 1,0,-1
EndSplineSet
EndChar

StartChar: O
Encoding: 79 79 504
Width: 1249
Flags: W
LayerCount: 2
Fore
SplineSet
633 1172 m 0,0,1
 855 1172 855 1172 1019 1002.5 c 128,-1,2
 1183 833 1183 833 1183 580 c 0,3,4
 1183 319 1183 319 1018 146 c 128,-1,5
 853 -27 853 -27 619 -27 c 0,6,7
 382 -27 382 -27 221.5 141.5 c 128,-1,8
 61 310 61 310 61 577 c 0,9,10
 61 851 61 851 247 1022 c 0,11,12
 408 1172 408 1172 633 1172 c 0,0,1
616 1110 m 0,13,14
 463 1110 463 1110 370 996 c 0,15,16
 254 854 254 854 254 581 c 0,17,18
 254 300 254 300 373 149 c 0,19,20
 467 34 467 34 617 34 c 0,21,22
 780 34 780 34 885 159.5 c 128,-1,23
 990 285 990 285 990 557 c 0,24,25
 990 852 990 852 874 995 c 0,26,27
 780 1110 780 1110 616 1110 c 0,13,14
EndSplineSet
EndChar

StartChar: P
Encoding: 80 80 505
Width: 962
Flags: W
LayerCount: 2
Fore
SplineSet
355 537 m 1,0,-1
 355 203 l 2,1,2
 355 95 355 95 378 68 c 0,3,4
 411 32 411 32 475 32 c 2,5,-1
 519 32 l 1,6,-1
 519 0 l 1,7,-1
 29 0 l 1,8,-1
 29 32 l 1,9,-1
 72 32 l 2,10,11
 145 32 145 32 176 78 c 0,12,13
 192 105 192 105 192 203 c 2,14,-1
 192 943 l 2,15,16
 192 1050 192 1050 170 1077 c 0,17,18
 137 1114 137 1114 72 1114 c 2,19,-1
 29 1114 l 1,20,-1
 29 1145 l 1,21,-1
 449 1145 l 2,22,23
 602 1145 602 1145 691 1113.5 c 128,-1,24
 780 1082 780 1082 840.5 1006.5 c 128,-1,25
 901 931 901 931 901 829 c 0,26,27
 901 688 901 688 808.5 601 c 128,-1,28
 716 514 716 514 547 514 c 0,29,30
 506 514 506 514 458 519.5 c 128,-1,31
 410 525 410 525 355 537 c 1,0,-1
355 585 m 1,32,33
 399 577 399 577 433.5 572.5 c 128,-1,34
 468 568 468 568 493 568 c 0,35,36
 581 568 581 568 644.5 636 c 128,-1,37
 708 704 708 704 708 812 c 0,38,39
 708 886 708 886 678 950 c 128,-1,40
 648 1014 648 1014 592.5 1045.5 c 128,-1,41
 537 1077 537 1077 466 1077 c 0,42,43
 422 1077 422 1077 355 1061 c 1,44,-1
 355 585 l 1,32,33
EndSplineSet
EndChar

